<svg id="Capa_1" enable-background="new 0 0 512 512" height="512" viewBox="0 0 512 512" width="512" xmlns="http://www.w3.org/2000/svg"><g><path d="m207.432 291.49-50.251 40.812c-28.77 23.366-45.476 58.456-45.476 95.519v29.535h288.591v-29.535c0-37.064-16.706-72.153-45.476-95.519l-50.251-40.812c-8.369-6.797-13.229-17.005-13.229-27.787v-15.406c0-10.782 4.86-20.99 13.229-27.787l50.251-40.812c28.77-23.366 45.476-58.456 45.476-95.519v-29.535h-288.591v29.535c0 37.064 16.706 72.153 45.476 95.519l50.251 40.812c8.369 6.797 13.229 17.005 13.229 27.787v15.406c0 10.782-4.86 20.99-13.229 27.787z" fill="#cde9fa"/><path d="m111.705 427.821v29.535h288.591v-29.535c0-2.671-.097-5.33-.269-7.977h-288.054c-.171 2.647-.268 5.306-.268 7.977z" fill="#a2ddfd"/><path d="m111.705 84.179c0 .155.006.31.007.465h288.578c.001-.155.007-.31.007-.465v-29.535h-288.592z" fill="#a2ddfd"/><path d="m255.999 320.608c16.121 0 31.751 5.547 44.264 15.71l30.907 25.102c13.01 10.565 22.426 24.437 27.449 39.93 2.962 9.138-3.956 18.494-13.562 18.494h-178.114c-9.606 0-16.524-9.356-13.562-18.494 5.022-15.493 14.439-29.364 27.448-39.93l30.908-25.102c12.513-10.163 28.142-15.71 44.262-15.71z" fill="#fbf1cf"/><path d="m235.23 323.753c-8.501 2.633-16.486 6.874-23.493 12.565l-30.908 25.102c-13.009 10.565-22.426 24.437-27.448 39.93-2.962 9.138 3.956 18.494 13.562 18.494h111.337c-56.862-21.011-63.542-77.394-43.05-96.091z" fill="#fae0bd"/><path d="m303.881 150.58c9.12 0 13.186 11.455 6.106 17.204l-29.068 23.608c-.125.102-.25.204-.375.307-14.312 11.779-34.778 11.779-49.09 0-.124-.102-.249-.204-.374-.306l-29.068-23.608c-7.079-5.75-3.014-17.204 6.106-17.204h95.763z" fill="#fbf1cf"/><path d="m273.162 196.487c-16.78-4.715-32.061-31.024-26.278-45.908h-38.765c-9.12 0-13.186 11.455-6.106 17.204l29.068 23.608.375.306c11.994 9.874 28.311 11.466 41.706 4.79z" fill="#fae0bd"/><g><g fill="#fff"><ellipse cx="176.443" cy="123.139" rx="29.355" ry="23.377"/><ellipse cx="335.557" cy="123.139" rx="29.355" ry="23.377"/></g></g><path d="m460.035 7.5h-408.07c-12.207 0-22.103 9.896-22.103 22.103v2.937c0 12.207 9.896 22.103 22.103 22.103h408.069c12.207 0 22.103-9.896 22.103-22.103v-2.937c.001-12.207-9.895-22.103-22.102-22.103z" fill="#d99a84"/><path d="m51.965 504.5h408.069c12.207 0 22.103-9.896 22.103-22.103v-2.938c0-12.207-9.896-22.103-22.103-22.103h-408.069c-12.207 0-22.103 9.896-22.103 22.103v2.938c0 12.207 9.896 22.103 22.103 22.103z" fill="#d99a84"/><path d="m64.873 54.644h46.832v402.712h-46.832z" fill="#e0b799"/><path d="m400.295 54.644h46.832v402.712h-46.832z" fill="#e0b799" transform="matrix(-1 0 0 -1 847.423 512)"/><path d="m115.097 232.584h-53.617c-9.184 0-16.629 7.445-16.629 16.629v13.573c0 9.184 7.445 16.629 16.629 16.629h53.617c9.184 0 16.629-7.445 16.629-16.629v-13.573c.001-9.184-7.445-16.629-16.629-16.629z" fill="#d99a84"/><path d="m396.903 232.584h53.617c9.184 0 16.63 7.445 16.63 16.629v13.573c0 9.184-7.445 16.629-16.63 16.629h-53.617c-9.184 0-16.629-7.445-16.629-16.629v-13.573c-.001-9.184 7.445-16.629 16.629-16.629z" fill="#d99a84"/><path d="m460.035 62.144c16.323 0 29.603-13.28 29.603-29.604v-2.938c0-16.322-13.28-29.602-29.603-29.602h-322.756c-4.142 0-7.5 3.358-7.5 7.5s3.358 7.5 7.5 7.5h322.756c8.052 0 14.603 6.551 14.603 14.603v2.938c0 8.052-6.551 14.604-14.603 14.604h-408.07c-8.052 0-14.603-6.551-14.603-14.604v-2.938c0-8.052 6.551-14.603 14.603-14.603h48.634c4.142 0 7.5-3.358 7.5-7.5s-3.358-7.5-7.5-7.5h-48.634c-16.323 0-29.603 13.28-29.603 29.603v2.938c0 16.323 13.28 29.604 29.603 29.604h5.408v163.297c-11.354 1.956-20.022 11.868-20.022 23.772v13.573c0 11.905 8.667 21.816 20.022 23.773v163.297h-5.408c-16.323 0-29.603 13.28-29.603 29.604v2.938c0 16.323 13.28 29.603 29.603 29.603h325.756c4.142 0 7.5-3.358 7.5-7.5s-3.358-7.5-7.5-7.5h-325.756c-8.052 0-14.603-6.551-14.603-14.603v-2.938c0-8.052 6.551-14.604 14.603-14.604h408.069c8.052 0 14.603 6.551 14.603 14.604v2.938c0 8.052-6.551 14.603-14.603 14.603h-45.634c-4.142 0-7.5 3.358-7.5 7.5s3.358 7.5 7.5 7.5h45.634c16.323 0 29.603-13.28 29.603-29.603v-2.938c0-16.323-13.28-29.604-29.603-29.604h-5.408v-163.298c11.354-1.956 20.022-11.868 20.022-23.773v-13.573c0-11.905-8.668-21.816-20.022-23.772v-163.297zm-52.24 0h31.832v162.94h-31.832zm-288.59 82.889c8.108 15.384 19.324 29.18 33.248 40.487l50.25 40.812c6.646 5.398 10.458 13.403 10.458 21.965v15.406c0 8.561-3.811 16.567-10.458 21.965l-50.25 40.812c-13.924 11.308-25.14 25.103-33.248 40.487v-80.408c11.354-1.956 20.022-11.868 20.022-23.773v-13.573c0-11.905-8.668-21.816-20.022-23.772zm-46.832-82.889h31.832v162.94h-31.832zm31.832 387.712h-31.832v-162.94h31.832zm-42.724-177.94c-5.034 0-9.129-4.095-9.129-9.129v-13.573c0-5.034 4.095-9.129 9.129-9.129h53.617c5.034 0 9.129 4.095 9.129 9.129v13.573c0 5.034-4.095 9.129-9.129 9.129zm331.314 177.94h-273.59v-22.035c0-34.963 15.565-67.656 42.704-89.698l50.251-40.812c10.168-8.259 16-20.509 16-33.608v-15.406c0-13.1-5.832-25.35-16-33.608l-50.251-40.812c-27.139-22.041-42.704-54.735-42.704-89.698v-22.035h273.591v22.035c0 34.963-15.565 67.656-42.704 89.698l-50.251 40.812c-10.168 8.259-16 20.509-16 33.608v15.406c0 13.1 5.832 25.35 16 33.608l50.251 40.812c27.139 22.042 42.704 54.735 42.704 89.698v22.035zm0-82.889c-8.109-15.384-19.324-29.179-33.248-40.487l-50.25-40.812c-6.646-5.397-10.457-13.403-10.457-21.965v-15.406c0-8.562 3.811-16.567 10.457-21.965l50.25-40.812c13.924-11.308 25.14-25.103 33.248-40.487v80.408c-11.354 1.956-20.022 11.868-20.022 23.772v13.573c0 11.905 8.668 21.816 20.022 23.773zm46.832 82.889h-31.832v-162.94h31.832zm20.022-200.643v13.573c0 5.034-4.095 9.129-9.129 9.129h-53.617c-5.034 0-9.129-4.095-9.129-9.129v-13.573c0-5.034 4.095-9.129 9.129-9.129h53.617c5.034 0 9.129 4.095 9.129 9.129zm-141.2-141.077c4.142 0 7.5-3.358 7.5-7.5v-12c0-4.142-3.358-7.5-7.5-7.5s-7.5 3.358-7.5 7.5v12c0 4.142 3.358 7.5 7.5 7.5zm-33.136 89.352 29.403-23.882c12.57-10.207 5.328-30.526-10.834-30.526h-95.762c-16.186 0-23.385 20.333-10.835 30.526 3.514 2.855-10.258-8.332 29.405 23.884 16.984 13.977 41.637 13.978 58.623-.002zm-49.103-11.59-29.468-23.936c-.99-.804-.917-1.764-.682-2.428.236-.664.784-1.455 2.06-1.455h95.762c1.276 0 1.824.791 2.06 1.455s.309 1.624-.682 2.428c-6.071 4.931 15.423-12.527-29.48 23.945-11.462 9.433-28.097 9.433-39.57-.009zm-35.159-85.262v-12c0-4.142-3.358-7.5-7.5-7.5s-7.5 3.358-7.5 7.5v12c0 4.142 3.358 7.5 7.5 7.5s7.5-3.358 7.5-7.5zm54.949 14.643c8.478 0 16.54-3.671 22.119-10.073 2.721-3.123 2.396-7.86-.727-10.582-3.123-2.721-7.861-2.396-10.582.727-2.729 3.132-6.669 4.928-10.81 4.928s-8.081-1.796-10.81-4.928c-2.722-3.123-7.459-3.447-10.582-.727-3.122 2.722-3.448 7.459-.727 10.582 5.579 6.401 13.642 10.073 22.119 10.073zm79.898 240.32-30.907-25.102c-28.435-23.095-69.36-23.247-97.982-.001l-30.907 25.103c-14.006 11.375-24.33 26.396-29.855 43.439-4.585 14.147 6.177 28.307 20.697 28.307h178.113c14.517 0 25.283-14.156 20.696-28.307-5.525-17.044-15.849-32.065-29.855-43.439zm9.159 56.745h-178.114c-4.544 0-7.813-4.408-6.428-8.681 4.63-14.282 13.29-26.876 25.043-36.421l30.908-25.103c22.943-18.634 55.969-18.761 79.069.001l30.907 25.102c11.753 9.545 20.413 22.139 25.042 36.42 1.385 4.272-1.882 8.682-6.427 8.682z"/></g></svg>