<svg id="Capa_1" enable-background="new 0 0 511.973 511.973" height="512" viewBox="0 0 511.973 511.973" width="512" xmlns="http://www.w3.org/2000/svg"><g><path d="m284.033 435.097-191.262-191.262c-23.455-23.455-23.455-61.483 0-84.937l109.796-109.797c13.161-13.161 34.499-13.161 47.661 0l228.539 228.539c13.161 13.161 13.161 34.499 0 47.66l-109.797 109.797c-23.455 23.455-61.483 23.455-84.937 0z" fill="#5ec682"/><path d="m399.247 315.835v-280.028c0-15.633-12.673-28.307-28.307-28.307h-185.206c-15.633 0-28.307 12.673-28.307 28.307v280.028c0 15.633 12.673 28.307 28.307 28.307h185.206c15.634 0 28.307-12.674 28.307-28.307z" fill="#fbf1cf"/><path d="m343.206 169.7c11.746-21.973 7.894-49.606-9.985-67.485l-42.182-42.182c-10.81-10.81-25.186-16.764-40.477-16.764-10.363 0-20.441 2.785-29.304 8.075-10.505-5.965-22.425-9.141-34.833-9.141-10.166 0-19.996 2.15-28.997 6.201v267.43c0 15.633 12.673 28.307 28.307 28.307h185.205c15.633 0 28.307-12.673 28.307-28.307v-90.093z" fill="#fae0bd"/><path d="m302.336 164.922 7.314-11.11c5.279-8.019 4.196-18.645-2.593-25.434l-42.182-42.182c-6.789-6.789-17.414-7.872-25.434-2.593l-11.11 7.314c-5.7 3.753-13.253 2.983-18.078-1.843-13.161-13.161-34.499-13.161-47.66 0l-124.496 124.498c-19.639 19.639-19.639 51.48 0 71.119l205.081 205.081c19.639 19.639 51.48 19.639 71.119 0l124.497-124.497c13.161-13.161 13.161-34.499 0-47.66l-134.615-134.615c-4.825-4.826-5.595-12.378-1.843-18.078z" fill="#88d37f"/><path d="m170.063 83.444c-2.676 1.488-5.197 3.358-7.469 5.631l-124.497 124.497c-19.639 19.639-19.639 51.48 0 71.119l157.989 157.989c-65.229-109.206-61.931-289.12-26.023-359.236z" fill="#5ec682"/><g><g><path d="m185.287 321.888c9.507 9.497 7.545 26.873-4.38 38.811-11.926 11.938-29.3 13.917-38.807 4.419s-7.546-26.874 4.38-38.812c11.926-11.936 29.3-13.915 38.807-4.418z" fill="#fff"/><path d="m259.144 247.957c9.507 9.497 26.881 7.518 38.807-4.419 11.926-11.938 13.887-29.314 4.381-38.811-9.507-9.497-26.881-7.519-38.807 4.419-11.926 11.937-13.888 29.314-4.381 38.811z" fill="#fff"/><path d="m235.6 255.961c-13.095-13.081-23.801-4.824-35.492 6.878-11.69 11.702-19.936 22.417-6.842 35.499 13.094 13.081 33.186 14.199 44.876 2.497 11.691-11.703 10.553-31.793-2.542-44.874z" fill="#4e5660"/></g></g><path d="m240.901 250.654c-19.628-19.608-37.507-1.716-46.099 6.883-8.591 8.6-26.467 26.494-6.836 46.105 15.777 15.76 40.692 17.298 55.483 2.491 14.439-14.452 13.689-39.258-2.548-55.479zm-8.064 44.88c-8.749 8.757-24.123 7.634-34.27-2.503-6.877-6.871-6.831-11.201 6.847-24.892 11.447-11.46 16.755-14.996 24.885-6.873h.001c9.809 9.8 11.559 25.236 2.537 34.268zm-88.723-4.014c-8.426 8.389-8.456 22.068-.067 30.494 2.921 2.935 7.671 2.947 10.606.023 2.936-2.922 2.946-7.671.023-10.606-2.553-2.565-2.544-6.728.02-9.281 2.567-2.556 6.721-2.55 9.281.021 2.922 2.936 7.671 2.945 10.606.023 2.936-2.922 2.946-7.671.024-10.606-8.399-8.437-22.047-8.477-30.493-.068zm339.956-19.184-77.323-77.323v-159.206c0-19.744-16.063-35.807-35.806-35.807h-160.889c-4.142 0-7.5 3.358-7.5 7.5s3.358 7.5 7.5 7.5h160.888c11.473 0 20.807 9.334 20.807 20.807v162.311.005 61.839l-64.707-64.706h32.155c4.142 0 7.5-3.358 7.5-7.5s-3.358-7.5-7.5-7.5h-47.155l-2.558-2.558c-2.298-2.298-2.669-5.936-.881-8.651 6.5-10.218 8.311-11.777 10.143-16.778h40.452c4.142 0 7.5-3.358 7.5-7.5s-3.358-7.5-7.5-7.5h-39.286c-1.039-5.244-3.573-10.218-7.549-14.193l-13.793-13.793h60.628c4.142 0 7.5-3.358 7.5-7.5s-3.358-7.5-7.5-7.5h-75.628l-13.389-13.389c-9.262-9.262-23.923-10.756-34.861-3.554l-11.11 7.314c-2.715 1.788-6.353 1.416-8.651-.882-14.023-14.023-35.122-15.546-50.63-6.024v-41.94c0-8.059 4.723-15.469 12.033-18.874 3.755-1.75 5.38-6.211 3.631-9.966s-6.212-5.379-9.966-3.631c-12.574 5.859-20.698 18.604-20.698 32.471v55.328l-117.133 117.132c-22.584 22.584-22.588 59.138 0 81.725 13.279 13.279 198.054 198.054 205.081 205.081 22.531 22.53 59.193 22.532 81.725 0l86.992-86.992c2.929-2.929 2.929-7.678 0-10.606-2.929-2.929-7.678-2.929-10.606 0l-86.992 86.992c-16.684 16.683-43.829 16.682-60.512 0l-32.815-32.815 173.28-173.28c5.839 5.838 36.663 36.663 44.545 44.545 10.24 10.24 10.241 26.813 0 37.054l-12.431 12.428c-2.929 2.929-2.929 7.678 0 10.606 2.929 2.929 7.678 2.929 10.607 0l52.403-52.403c16.063-16.064 16.063-42.202-.001-58.267zm-279.011 168.71-161.659-161.659c-16.722-16.722-16.724-43.787 0-60.512 10.104-10.105 107.004-107.004 124.497-124.497 10.24-10.24 26.813-10.241 37.054 0 7.308 7.307 18.876 8.486 27.505 2.804l11.111-7.314c5.022-3.305 11.753-2.621 16.006 1.632 8.942 8.942 33.384 33.384 42.182 42.182 4.252 4.252 4.938 10.984 1.631 16.006l-7.314 11.11c-5.683 8.631-4.503 20.198 2.804 27.505.1.1 79.463 79.463 79.463 79.463zm268.404-121.049-17.489 17.489c-.901-9.51-5.037-18.335-11.878-25.176l-37.349-37.349v-58.735l66.716 66.716c10.216 10.217 10.216 26.839 0 37.055zm-227.654-115.031c-2.924-2.935-7.673-2.944-10.606-.02-2.935 2.923-2.944 7.672-.021 10.606l8.469 8.501c2.923 2.935 7.672 2.944 10.607.021s2.944-7.672.02-10.606z"/></g></svg>