<svg id="Capa_1" enable-background="new 0 0 511.995 511.995" height="512" viewBox="0 0 511.995 511.995" width="512" xmlns="http://www.w3.org/2000/svg"><g><path d="m277.398 504.495h-203.596c-34.435 0-62.349-27.915-62.349-62.349v-203.597c0-34.435 27.915-62.349 62.349-62.349h203.597c34.435 0 62.35 27.915 62.35 62.349v203.597c-.001 34.434-27.916 62.349-62.351 62.349z" fill="#f6ee86"/><path d="m277.398 176.199h-177.217c-.641 8.331.331 16.792 2.971 25 15.557 48.379 53.173 92.885 81.99 121.702 28.818 28.818 73.327 66.437 121.706 81.991 6.491 2.087 13.231 3.146 20.033 3.146 4.392 0 8.695-.434 12.868-1.26v-168.23c-.001-34.434-27.916-62.349-62.351-62.349z" fill="#f2d98d"/><g><g><ellipse cx="95.955" cy="449.724" fill="#eda1ab" rx="29.387" ry="23.403"/><ellipse cx="255.245" cy="449.724" fill="#eda1ab" rx="29.387" ry="23.403"/><path d="m199.294 431.743c0-14.643-10.608-16.019-23.693-16.019s-23.693 1.376-23.693 16.019 10.608 26.513 23.693 26.513 23.693-11.871 23.693-26.513z" fill="#4e5660"/></g></g><path d="m267.696 287.517-47.17-47.17-80.225 80.225c-13.026 13.026-13.026 34.145 0 47.17 13.026 13.026 34.144 13.026 47.17 0z" fill="#a7a7a7"/><path d="m220.526 240.346-47.543 47.543c7.806 9 15.57 17.21 22.765 24.405s15.405 14.959 24.406 22.765l47.543-47.543z" fill="#8b97a5"/><path d="m354.003 294.46-103.626-36.794-36.794-103.626 117.846-88.49 111.064 111.064z" fill="#e16e7e"/><path d="m276.894 231.149c14.916 14.916 56.957 51.465 77.109 63.312.377 10.322-1.804 34.924-7.908 54.556-3.321 10.681-14.823 16.461-25.472 13.037-32.772-10.537-69.454-36.764-103.662-70.972-34.207-34.207-60.432-70.887-70.971-103.658-3.47-10.791 2.565-22.256 13.399-25.588 19.572-6.019 43.934-8.17 54.193-7.796 11.847 20.152 48.396 62.193 63.312 77.109z" fill="#e7889d"/><path d="m489.652 195.975c11.159-11.158 14.082-28.158 7.211-42.364-11.492-23.758-34.539-55.262-60.854-81.577s-57.818-49.362-81.577-60.854c-14.206-6.872-31.205-3.948-42.364 7.211-7.676 7.676-7.676 20.121 0 27.798l149.787 149.787c7.675 7.675 20.121 7.675 27.797-.001z" fill="#e7889d"/><path d="m503.615 150.346c-14.112-29.174-45.657-71.659-87.511-106.626-3.178-2.655-7.908-2.231-10.564.947-2.655 3.179-2.232 7.909.947 10.564 39.74 33.197 70.4 74.307 83.624 101.646 5.467 11.302 3.15 24.882-5.763 33.795-4.751 4.751-12.44 4.751-17.19 0l-149.787-149.787c-4.74-4.74-4.74-12.451 0-17.191 8.912-8.913 22.493-11.229 33.794-5.763 8.233 3.983 17.364 9.361 27.141 15.985 3.429 2.324 8.093 1.427 10.416-2.002s1.427-8.092-2.002-10.416c-10.374-7.029-20.139-12.773-29.022-17.07-17.044-8.245-37.511-4.763-50.934 8.659-10.588 10.588-10.588 27.816 0 38.404l13.25 13.25-108.881 81.759c-12.194-.008-35.03 2.35-53.948 8.167-7.078 2.177-13.12 7.018-16.676 14.032h-66.707c-38.515 0-69.85 31.335-69.85 69.85v203.596c0 30.629 19.608 57.4 48.792 66.617 3.966 1.252 8.168-.959 9.411-4.893 1.248-3.95-.943-8.163-4.893-9.411-22.914-7.237-38.309-28.26-38.309-52.313v-203.596c0-30.244 24.605-54.85 54.85-54.85h63.823c.186 2.021.588 4.038 1.225 6.02 7.642 23.764 23.067 49.772 45.21 76.486l-49.063 49.063c-15.929 15.929-15.929 41.847 0 57.776 15.967 15.967 41.809 15.968 57.777 0l49.063-49.063c26.715 22.145 52.725 37.57 76.49 45.211 4.51 1.45 9.214 1.756 13.921.825v72.127c0 30.244-24.605 54.85-54.85 54.85h-185.444c-4.142 0-7.5 3.358-7.5 7.5s3.358 7.5 7.5 7.5h185.443c38.516 0 69.85-31.335 69.85-69.85v-80.473c2.727-2.948 4.783-6.486 6.009-10.429 5.906-18.996 8.297-42.025 8.286-54.334l81.757-108.88 13.251 13.251c10.612 10.611 27.791 10.615 38.403 0 13.423-13.422 16.904-33.89 8.661-50.933zm-321.447 212.092c-10.104 10.104-26.459 10.105-36.564 0-10.081-10.081-10.081-26.483 0-36.563l48.275-48.275c11 12.306 23.61 24.985 36.564 36.564zm156.765-15.649c-2.029 6.527-9.162 10.328-16.014 8.124-62.163-19.987-149.788-107.586-169.789-169.786-2.155-6.702 1.513-13.986 8.464-16.122 16.415-5.048 36.522-7.293 47.788-7.494 14.072 21.891 47.836 60.568 62.208 74.941 14.373 14.373 53.051 48.137 74.942 62.21-.199 11.364-2.475 31.647-7.599 48.127zm13.234-62.374c-20.722-13.927-56.227-44.827-69.97-58.57-13.743-13.744-44.644-49.249-58.569-69.97l107.1-80.42 101.859 101.859zm-94.335 137.369v-12c0-4.142-3.358-7.5-7.5-7.5s-7.5 3.358-7.5 7.5v12c0 4.142 3.358 7.5 7.5 7.5s7.5-3.358 7.5-7.5zm-51.038 9.959c0-12.057-6.008-17.634-11.048-20.189-5.449-2.763-11.994-3.329-20.146-3.329s-14.697.566-20.146 3.329c-5.04 2.556-11.048 8.133-11.048 20.189 0 18.755 13.993 34.013 31.193 34.013s31.195-15.259 31.195-34.013zm-47.387 0c0-5.907.655-8.518 16.193-8.518 15.539 0 16.194 2.611 16.194 8.518 0 10.484-7.265 19.013-16.194 19.013s-16.193-8.53-16.193-19.013zm-51.039-9.959v-12c0-4.142-3.358-7.5-7.5-7.5s-7.5 3.358-7.5 7.5v12c0 4.142 3.358 7.5 7.5 7.5s7.5-3.358 7.5-7.5z"/></g></svg>