<svg id="Capa_1" enable-background="new 0 0 512.015 512.015" height="512" viewBox="0 0 512.015 512.015" width="512" xmlns="http://www.w3.org/2000/svg"><g><path d="m99.769 460.309-48.077-48.077c-13.12-13.12-13.12-34.392 0-47.512l80.281-80.281 95.589 95.589-80.281 80.281c-13.119 13.12-34.391 13.12-47.512 0z" fill="#59636f"/><path d="m109.472 293.759h82.357v135.184h-82.357z" fill="#455060" transform="matrix(.707 -.707 .707 .707 -211.389 212.363)"/><path d="m98.263 458.803-45.065-45.065-36.37 36.37c-12.444 12.444-12.444 32.621 0 45.065 12.444 12.444 32.621 12.444 45.065 0z" fill="#a7a7a7"/><path d="m191.76 418.269-98.027-98.028c-7.867-7.867-7.867-20.621 0-28.488l29.142-29.142 126.515 126.516-29.142 29.142c-7.867 7.867-20.621 7.867-28.488 0z" fill="#f6ee86"/><path d="m482.578 195.902c-40.672 58.264-121.193 140.334-212.492 192.915-12.635 7.277-28.588 5.147-38.898-5.163l-102.84-102.84c-10.31-10.31-12.44-26.263-5.163-38.898 52.58-91.299 134.65-171.82 192.915-212.492 26.251-18.325 61.87-15.129 84.508 7.508l74.463 74.463c22.636 22.637 25.831 58.256 7.507 84.507z" fill="#f6ee86"/><path d="m340.965 18.833c-8.716 1.731-17.192 5.234-24.865 10.591-51.593 36.015-121.848 103.278-173.769 181.6 3.694 5.654 8.018 11.014 12.979 15.975 12.591 12.591 29.328 19.526 47.129 19.527h.005c17.925 0 34.587-7.052 46.916-19.857 17.009-17.667 22.438-42.854 15.209-65.373l65.211-65.211c20.885-20.885 24.603-52.521 11.185-77.252z" fill="#f2d98d"/><path d="m254.662 79.703c-46.288 42.982-95.707 100.1-131.478 162.212-7.277 12.635-5.147 28.588 5.164 38.898l102.84 102.84c10.31 10.31 26.263 12.44 38.898 5.163 62.112-35.771 119.231-85.19 162.213-131.478z" fill="#b0ade2"/><path d="m475.07 111.394-74.463-74.463c-22.637-22.637-58.257-25.833-84.508-7.508-9.427 6.581-19.48 14.21-29.928 22.754l173.652 173.653c8.544-10.448 16.174-20.501 22.755-29.928 18.324-26.251 15.129-61.87-7.508-84.508z" fill="#b0ade2"/><path d="m340.965 18.833c-8.716 1.731-17.192 5.235-24.865 10.591-9.427 6.581-19.48 14.21-29.928 22.754l43.754 43.754c20.752-20.887 24.425-52.427 11.039-77.099z" fill="#a09cdc"/><path d="m254.662 79.703c-38.498 35.748-79.154 81.279-112.33 131.325 3.694 5.653 8.016 11.011 12.976 15.971 12.591 12.591 29.328 19.526 47.129 19.527h.005c17.925 0 34.587-7.052 46.916-19.857 17.009-17.667 22.438-42.854 15.209-65.373l35.844-35.844z" fill="#a09cdc"/><path d="m233.872 149.566 74.695-74.694c13.757-13.757 13.757-36.06 0-49.817-13.757-13.757-36.06-13.757-49.817 0l-82.227 82.227c-27.201 27.201-27.201 71.303 0 98.504 14.137 14.137 37.359 14.478 51.225.076 11.456-11.899 12.982-29.823 4.578-43.327-2.578-4.14-1.902-9.521 1.546-12.969z" fill="#59636f"/><path d="m498.487 50.522-37.007-37.007c-8.011-8.011-20.999-8.011-29.01 0l-27.64 27.64 66.018 66.018 27.64-27.64c8.01-8.012 8.01-21-.001-29.011z" fill="#f6ee86"/><g><g fill="#fff"><ellipse cx="188.432" cy="288.806" rx="29.355" ry="23.377"/><ellipse cx="347.545" cy="288.806" rx="29.355" ry="23.377"/></g></g><path d="m205.54 246.803c-4.142 0-7.5 3.358-7.5 7.5v12c0 4.142 3.358 7.5 7.5 7.5s7.5-3.358 7.5-7.5v-12c0-4.142-3.358-7.5-7.5-7.5zm124.897 27c4.142 0 7.5-3.358 7.5-7.5v-12c0-4.142-3.358-7.5-7.5-7.5s-7.5 3.358-7.5 7.5v12c0 4.142 3.358 7.5 7.5 7.5zm-62.448-7.857c-4.141 0-8.081-1.796-10.81-4.928-2.722-3.122-7.46-3.447-10.582-.727-3.123 2.722-3.448 7.459-.727 10.582 5.579 6.401 13.641 10.073 22.119 10.073s16.539-3.671 22.118-10.073c2.721-3.123 2.396-7.86-.727-10.582-3.123-2.721-7.86-2.396-10.582.727-2.729 3.132-6.669 4.928-10.809 4.928zm235.801-220.727-37.007-37.008c-10.948-10.948-28.668-10.949-39.617 0l-22.361 22.361c-24.342-23.367-61.219-27.152-89.663-9.483-8.499-9.249-20.147-14.134-32.515-13.839-4.141.1-7.418 3.537-7.318 7.678.099 4.141 3.508 7.416 7.678 7.318 7.653-.206 14.86 2.698 20.275 8.113 10.77 10.77 10.853 28.189.146 39.057-80.355 80.363-74.562 74.569-74.841 74.848-5.969 5.97-7.043 15.113-2.611 22.234 6.768 10.875 5.282 24.923-3.613 34.163-11.018 11.443-29.426 10.915-40.519-.177-24.233-24.233-24.233-63.664 0-87.897l76.893-76.893c2.929-2.929 2.929-7.678 0-10.606-2.928-2.929-7.677-2.929-10.606 0l-76.894 76.893c-21.721 21.721-27.749 53.275-18.103 80.463-13.559 18.57-25.816 37.3-36.431 55.73-4.461 7.745-6.046 16.53-4.943 24.965l-23.311 23.311c-9.378 9.378-10.592 23.87-3.652 34.578l-38.388 38.389c-7.762 7.762-12.037 18.082-12.037 29.059 0 9.166 2.99 17.867 8.492 25.01l-31.319 31.319c-15.348 15.349-15.348 40.323.001 55.671 15.383 15.384 40.285 15.387 55.671 0l31.326-31.326c10.081 7.718 23.3 10.423 35.708 7.086 4-1.076 6.37-5.191 5.295-9.191-1.076-4.001-5.193-6.369-9.191-5.295-8.999 2.42-18.68-.163-25.262-6.745-12.724-12.728-47.938-47.939-48.077-48.077-10.175-10.175-10.175-26.731 0-36.906l37.956-37.956 84.983 84.983-24.163 24.163c-2.929 2.929-2.929 7.678 0 10.607s7.678 2.929 10.606 0l24.595-24.595c10.692 6.93 25.18 5.746 34.578-3.652l23.32-23.32c1.715.224 3.444.347 5.176.347 6.785 0 13.613-1.73 19.782-5.283 42.356-24.394 86.141-57.367 126.621-95.356 34.845-32.702 66.196-68.132 88.278-99.765 20.133-28.842 16.992-67.696-7.298-92.999l22.36-22.361c10.948-10.947 10.949-28.668 0-39.616zm-450.592 379.125 34.459 34.459-31.067 31.067c-9.523 9.522-24.935 9.523-34.459 0-9.499-9.5-9.499-24.958 0-34.458zm161.747-11.378c-4.93 4.93-12.952 4.93-17.882 0-.102-.102-98.027-98.028-98.027-98.028-4.93-4.93-4.93-12.951 0-17.881l18.251-18.251c4.403 7.178.415 1.419 108.599 110.151 2.238 2.238 4.699 4.153 7.313 5.757zm51.398-30.648c-9.671 5.569-21.944 3.938-29.852-3.968l-102.84-102.84c-7.905-7.906-9.537-20.182-3.968-29.852 9.118-15.831 19.491-31.903 30.885-47.909 2.992 4.733 6.528 9.218 10.65 13.34 16.993 16.993 45.046 17.513 61.931-.026 13.664-14.193 15.944-35.779 5.542-52.492-.715-1.149-.512-2.706.483-3.702l40.024-40.024 142.622 142.622c-42.242 44.53-97.083 91.221-155.477 124.851zm165.694-135.848-142.232-142.231 18.91-18.91 140.965 140.964c-5.537 6.606-11.433 13.351-17.643 20.177zm44.391-54.861c-5.117 7.331-10.877 15.036-17.212 23.007l-140.39-140.39c8.551-12.339 9.611-27.731 4.379-40.487 22.962-14.163 52.779-10.823 72.099 8.495l74.463 74.463c20.117 20.118 22.918 51.623 6.661 74.912zm16.756-117.38-22.336 22.336-55.411-55.411 22.336-22.336c5.085-5.085 13.317-5.087 18.404 0l37.007 37.007c5.085 5.086 5.086 13.317 0 18.404z"/></g></svg>