<svg id="Capa_1" enable-background="new 0 0 512 512" height="512" viewBox="0 0 512 512" width="512" xmlns="http://www.w3.org/2000/svg"><g><path d="m77.339 246.156c-15.465 0-28.002 12.537-28.002 28.002 0 15.465 12.537 28.002 28.002 28.002h-41.837c-15.465 0-28.002 12.537-28.002 28.002 0 15.465 12.537 28.002 28.002 28.002h138.328v-112.008z" fill="#a2ddfd"/><path d="m91.258 256c0 22.142 1.406 64.792 10.82 101.65.044.173.096.342.142.515h71.611v-112.009h-82.482c-.065 3.598-.091 6.906-.091 9.844z" fill="#7acefa"/><path d="m312.879 132.884c50.467 0 126.016 3.455 160.639 9.408 10.245 1.762 18.522 9.408 21.095 19.48 7.661 29.995 9.887 66.633 9.887 94.228s-2.226 64.233-9.887 94.228c-2.573 10.072-10.849 17.718-21.095 19.48-34.623 5.953-110.172 9.408-160.639 9.408s-126.016-3.455-160.639-9.408c-10.246-1.762-18.522-9.408-21.095-19.48-7.661-29.995-9.887-66.633-9.887-94.228s2.226-64.233 9.887-94.228c2.572-10.072 10.849-17.719 21.095-19.48 34.623-5.953 110.172-9.408 160.639-9.408z" fill="#fbf1cf"/><path d="m153.024 142.163c36.119 39.346 94.18 79.331 132.781 97.838 4.249 2.037 8.671 3.566 13.179 4.592-19.62-33.788-23.859-87.938-15.511-111.376-46.593.988-101.848 4.141-130.449 8.946z" fill="#fae0bd"/><path d="m494.613 161.772c-2.573-10.072-10.849-17.719-21.095-19.48-.256-.044-.522-.087-.782-.131-36.119 39.346-94.181 79.333-132.782 97.839-17.12 8.208-37.03 8.208-54.15 0-38.601-18.507-96.663-58.493-132.782-97.839-.261.044-.526.087-.782.131-10.245 1.762-18.522 9.408-21.095 19.48-1.785 6.988-3.263 14.344-4.499 21.854 37.832 42.937 100.88 87.669 146.189 109.391 12.423 5.956 26.27 9.104 40.045 9.104 13.774 0 27.621-3.148 40.044-9.104 45.309-21.723 108.357-66.455 146.188-109.391-1.235-7.51-2.714-14.866-4.499-21.854z" fill="#fae0bd"/><path d="m473.518 142.292c-8.324-1.431-19.03-2.717-31.168-3.846-36.613 34.514-81.116 67.397-110.405 81.763-12.034 5.903-26.097 5.903-38.131 0-29.289-14.366-73.792-47.249-110.405-81.763-12.138 1.129-22.844 2.414-31.169 3.846-5.578.959-10.563 3.672-14.371 7.562 32.671 44.628 103.317 94.72 147.936 116.112 17.12 8.208 37.03 8.208 54.15 0 44.619-21.392 115.264-71.484 147.936-116.112-3.809-3.89-8.795-6.603-14.373-7.562z" fill="#b0ade2"/><g><g fill="#eda1ab"><ellipse cx="229.314" cy="340.346" rx="30.834" ry="24.555"/><ellipse cx="396.444" cy="340.346" rx="30.834" ry="24.555"/></g></g><path d="m326.094 270.698c-18.69-7.634-31.424-29.318-38.81-53.866-29.104-15.72-69.885-46.345-103.875-78.386-12.138 1.129-22.844 2.414-31.169 3.846-5.578.959-10.563 3.672-14.371 7.562 32.671 44.628 103.317 94.72 147.936 116.112 12.656 6.068 26.836 7.637 40.289 4.732z" fill="#a09cdc"/><path d="m335.101 310.679c-3.125-2.721-7.861-2.396-10.582.727-2.938 3.372-7.181 5.306-11.64 5.306s-8.701-1.934-11.64-5.306c-2.723-3.122-7.46-3.448-10.582-.727-3.122 2.722-3.448 7.459-.727 10.582 5.788 6.642 14.152 10.451 22.948 10.451s17.16-3.809 22.948-10.451c2.723-3.123 2.397-7.86-.725-10.582zm-133.134-39.964-33.101 33.101c-2.929 2.929-2.929 7.678 0 10.607s7.678 2.929 10.606 0l33.101-33.101c2.929-2.929 2.929-7.678 0-10.606-2.929-2.93-7.678-2.93-10.606-.001zm45.317 26.191c-4.142 0-7.5 3.358-7.5 7.5v12c0 4.142 3.358 7.5 7.5 7.5s7.5-3.358 7.5-7.5v-12c0-4.142-3.358-7.5-7.5-7.5zm254.596-136.991c-3.312-12.963-14.078-22.777-27.091-25.015-34.646-5.957-109.529-9.517-161.91-9.517s-127.264 3.56-161.91 9.517c-13.153 2.262-23.787 12.081-27.09 25.016-6.779 26.542-9.117 56.658-9.834 78.74h-36.705c-28.948 0-45.44 32.8-28.969 56.004h-12.869c-19.576 0-35.502 15.926-35.502 35.503 0 16.092 10.854 30.206 26.394 34.321 3.993 1.057 8.107-1.315 9.17-5.33 1.061-4.004-1.326-8.109-5.33-9.17-8.969-2.376-15.234-10.527-15.234-19.821 0-11.305 9.197-20.502 20.502-20.502h41.838c4.142 0 7.5-3.358 7.5-7.5s-3.358-7.5-7.5-7.5c-11.305 0-20.502-9.197-20.502-20.502s9.197-20.502 20.502-20.502h36.424c-.139 30.458 2.351 67.165 9.764 97.009h-58.79c-4.142 0-7.5 3.358-7.5 7.5s3.358 7.5 7.5 7.5h66.202c5.048 5.918 12.071 10.066 20.029 11.435 34.646 5.957 109.529 9.517 161.91 9.517s127.265-3.56 161.911-9.517c13.151-2.262 23.785-12.081 27.09-25.016 8.805-34.48 10.12-75 10.12-96.085s-1.315-61.605-10.12-96.085zm-189.001-19.531c32.911 0 76.252 1.503 111.736 4.132-33.2 29.574-70.364 56.399-95.974 68.961-10.018 4.913-21.508 4.913-31.525 0-25.61-12.562-62.773-39.386-95.973-68.961 35.484-2.629 78.825-4.132 111.736-4.132zm174.468 207.988c-1.842 7.211-7.769 12.685-15.099 13.945-33.408 5.744-108.736 9.3-159.369 9.3s-125.96-3.556-159.368-9.3c-7.607-1.308-13.353-7.107-15.099-13.944-14.239-55.751-11.408-145.829.187-185.378 34.747 42.262 98.602 87.987 143.964 109.734 19.266 9.238 41.368 9.238 60.634 0 25.823-12.38 58.25-33.145 86.742-55.544 3.256-2.56 3.82-7.275 1.261-10.531-2.56-3.257-7.273-3.821-10.532-1.261-27.679 21.761-59.064 41.877-83.955 53.811-15.146 7.26-32.518 7.261-47.665 0-43.696-20.949-108.01-67.163-140.588-107.887 1.576-.768 3.272-1.326 5.052-1.633 7.31-1.257 16.627-2.409 27.253-3.442 36.531 34.039 80.298 66.258 109.746 80.702 14.216 6.971 30.52 6.973 44.736 0 29.449-14.445 73.216-46.664 109.747-80.702 10.626 1.033 19.943 2.185 27.253 3.442 1.786.307 3.486.868 5.067 1.639-7.861 9.839-17.778 20.283-29.585 31.138-3.049 2.804-3.248 7.548-.445 10.598 2.804 3.048 7.548 3.249 10.598.445 11.453-10.53 21.259-20.753 29.279-30.508.062.211.132.419.187.633 8.398 32.889 9.652 71.99 9.652 92.371s-1.254 59.482-9.653 92.372zm-106.556-53.707c-11.804 0-21.406 9.603-21.406 21.406 0 4.142 3.357 7.5 7.5 7.5s7.5-3.358 7.5-7.5c0-3.532 2.874-6.406 6.406-6.406s6.406 2.874 6.406 6.406c0 4.142 3.357 7.5 7.5 7.5s7.5-3.358 7.5-7.5c0-11.802-9.602-21.406-21.406-21.406zm43.001-23.95c-2.93-2.929-7.678-2.929-10.607 0s-2.929 7.678 0 10.606l33.101 33.101c2.93 2.929 7.678 2.929 10.607 0s2.929-7.678 0-10.607z"/></g></svg>