<svg id="Capa_1" enable-background="new 0 0 511.983 511.983" height="512" viewBox="0 0 511.983 511.983" width="512" xmlns="http://www.w3.org/2000/svg"><g><path d="m338.794 330.948c-8.267-.642-16.116.898-23.037 4.103-5.695 2.637-12.195-1.588-12.195-7.863v-48.8c0-15.972-12.948-28.921-28.921-28.921h-48.8c-6.276 0-10.5-6.5-7.864-12.195 3.205-6.922 4.745-14.77 4.103-23.037-1.756-22.599-20.128-40.807-42.741-42.372-26.985-1.867-49.456 19.47-49.456 46.057 0 6.846 1.493 13.342 4.169 19.183 2.647 5.778-1.434 12.364-7.789 12.364h-48.797c-15.972 0-28.921 12.948-28.921 28.921v197.175c0 15.973 12.948 28.921 28.921 28.921h197.175c15.973 0 28.921-12.948 28.921-28.921v-48.797c0-6.356 6.586-10.436 12.364-7.789 5.841 2.676 12.337 4.168 19.183 4.168 26.586 0 47.923-22.47 46.057-49.455-1.565-22.613-19.772-40.986-42.372-42.742z" fill="#f6ee86"/><path d="m303.562 446.888v-20.122c0-6.355 6.586-10.436 12.363-7.789 5.841 2.676 12.337 4.168 19.183 4.168 26.586 0 47.923-22.47 46.057-49.455-1.565-22.613-19.772-40.986-42.371-42.742-8.267-.642-16.116.898-23.038 4.103-5.695 2.637-12.195-1.588-12.195-7.863v-48.8c0-15.972-12.948-28.921-28.921-28.921h-48.8c-6.276 0-10.5-6.5-7.863-12.195 3.204-6.922 4.745-14.77 4.103-23.037-1.756-22.599-20.128-40.807-42.741-42.372-26.985-1.867-49.456 19.47-49.456 46.057 0 6.846 1.493 13.342 4.169 19.183 2.647 5.778-1.434 12.364-7.789 12.364h-48.797c-15.972 0-28.921 12.948-28.921 28.921v163.112c50.551-8.49 176.851 16.782 255.017 5.388z" fill="#88d37f"/><path d="m175.838 263.321c16.128 0 30.698-10.155 36.254-25.269.954-2.595 2.545-4.859 4.73-6.728 1.221-1.046 2.609-1.875 4.095-2.497 1.124-4.631 1.557-9.532 1.164-14.592-1.756-22.599-20.128-40.807-42.741-42.372-26.985-1.867-49.456 19.47-49.456 46.057 0 6.846 1.493 13.342 4.169 19.183.103.224.177.451.26.677l14.218 14.218c7.3 7.302 16.998 11.323 27.307 11.323z" fill="#5ec682"/><path d="m336.774 356.916 20.444-20.445c-5.56-3.057-11.801-5.008-18.424-5.523-8.267-.642-16.116.898-23.038 4.103-5.695 2.637-12.195-1.588-12.195-7.863v-48.8c0-15.972-12.948-28.921-28.921-28.921h-32.275c-.703 1.854-1.843 3.817-3.675 5.65-1.662 1.661-3.597 2.91-5.751 3.71-12.463 4.631-21.591 15.132-24.418 28.09-2.812 12.889 1.084 26.157 10.42 35.494l34.504 34.504c11.129 11.128 25.925 17.257 41.664 17.257 15.74.001 30.536-6.128 41.665-17.256z" fill="#5ec682"/><g><g fill="#fff"><ellipse cx="97.677" cy="401.435" rx="28.919" ry="23.03"/><ellipse cx="254.43" cy="401.435" rx="28.92" ry="23.03"/></g></g><path d="m330.318 276.331c-18.799-18.799-17.998-49.776 2.403-67.537 17.096-14.884 42.962-15.001 60.184-.262 6.293 5.386 10.751 12.017 13.381 19.169 2.169 5.9 9.746 7.53 14.191 3.084l34.507-34.507c11.294-11.294 11.294-29.606 0-40.9l-139.424-139.424c-11.294-11.294-29.606-11.294-40.9 0l-139.424 139.424c-11.294 11.294-11.294 29.606 0 40.9l34.507 34.507c4.445 4.445 12.022 2.816 14.191-3.085 2.629-7.152 7.087-13.783 13.38-19.169 17.221-14.739 43.087-14.622 60.184.261 20.402 17.761 21.203 48.738 2.404 67.538-4.841 4.841-10.49 8.379-16.512 10.617-5.957 2.214-7.729 9.756-3.235 14.25l34.505 34.504c11.294 11.294 29.606 11.294 40.9 0l34.505-34.504c4.494-4.494 2.723-12.036-3.235-14.25-6.022-2.238-11.671-5.775-16.512-10.616z" fill="#cde9fa"/><path d="m346.83 286.948c-6.023-2.238-11.671-5.776-16.512-10.617-12.625-12.625-16.396-30.738-11.341-46.657-53.553-37.214-89.489-124.338-79.335-178.702l-104.406 104.406c-11.294 11.294-11.294 29.606 0 40.9l34.507 34.507c4.445 4.445 12.022 2.816 14.191-3.085 2.629-7.152 7.087-13.783 13.38-19.169 17.222-14.739 43.087-14.622 60.184.261 20.402 17.761 21.203 48.739 2.404 67.538-4.841 4.841-10.49 8.379-16.512 10.617-5.957 2.214-7.729 9.756-3.235 14.25l34.505 34.504c11.294 11.294 29.606 11.294 40.9 0l34.505-34.504c4.494-4.493 2.723-12.035-3.235-14.249z" fill="#a2ddfd"/><path d="m315.56 15.954c-11.294-11.294-29.606-11.294-40.9 0l-83.72 83.72c45.176 47.216 102.854 81.091 252.266 43.925z" fill="#f6ee86"/><path d="m190.944 99.67c17.789 18.592 37.532 35.103 64.03 46.038-11.238-26.254-17.492-53.769-17.018-77.481-.114-5.652.132-11.116.759-16.329z" fill="#f2d98d"/><path d="m114.531 355.109c-11.726 0-21.265 9.54-21.265 21.265 0 4.142 3.358 7.5 7.5 7.5s7.5-3.358 7.5-7.5c0-3.455 2.811-6.265 6.265-6.265 3.455 0 6.265 2.811 6.265 6.265 0 4.142 3.358 7.5 7.5 7.5s7.5-3.358 7.5-7.5c0-11.725-9.54-21.265-21.265-21.265zm81.051 31.7c-3.123-2.721-7.86-2.397-10.582.727-2.259 2.593-5.52 4.08-8.947 4.08-3.426 0-6.688-1.487-8.947-4.08-2.723-3.123-7.459-3.447-10.582-.727-3.122 2.722-3.448 7.46-.726 10.582 5.109 5.862 12.492 9.225 20.255 9.225s15.146-3.362 20.255-9.225c2.722-3.123 2.397-7.861-.726-10.582zm41.994-31.7c-11.726 0-21.265 9.54-21.265 21.265 0 4.142 3.358 7.5 7.5 7.5s7.5-3.358 7.5-7.5c0-3.455 2.811-6.265 6.265-6.265 3.455 0 6.265 2.811 6.265 6.265 0 4.142 3.358 7.5 7.5 7.5s7.5-3.358 7.5-7.5c0-11.725-9.54-21.265-21.265-21.265zm222.712-205.034-95.298-95.298c-2.929-2.929-7.678-2.929-10.606 0-2.929 2.929-2.929 7.678 0 10.606l74.038 74.038c-61.479 14.08-110.196 16.228-148.61 6.585-36.157-9.076-59.969-27.925-78.323-46.272l78.476-78.476c8.353-8.351 21.941-8.351 30.294 0l18.732 18.732c2.929 2.929 7.678 2.929 10.606 0 2.929-2.929 2.929-7.678 0-10.607l-18.732-18.732c-14.2-14.201-37.307-14.201-51.507 0l-139.425 139.424c-12.919 12.918-14.081 33.205-3.495 47.454-5.628 13.705-5.434 29.102.795 42.698.374.815-.082 1.741-.971 1.741h-48.796c-20.083 0-36.421 16.338-36.421 36.42v197.175c0 20.083 16.338 36.421 36.421 36.421h6.853c4.142 0 7.5-3.358 7.5-7.5s-3.358-7.5-7.5-7.5h-6.853c-11.812 0-21.421-9.609-21.421-21.421v-27.491c22.887-2.333 58.932.604 96.903 3.702 44.275 3.611 99.907 8.342 143.113 3.61v20.18c0 11.812-9.609 21.421-21.42 21.421h-154.453c-4.142 0-7.5 3.358-7.5 7.5s3.358 7.5 7.5 7.5h154.454c20.082 0 36.42-16.338 36.42-36.421v-48.796c0-.888.927-1.343 1.74-.97 7.025 3.218 14.53 4.85 22.307 4.85 30.442 0 55.739-25.667 53.539-57.473-1.827-26.404-23.261-48.123-50.205-49.745l16.926-16.926c8.367-8.369 5.138-22.472-5.925-26.583-27.514-10.23-33.945-46.188-11.797-65.468 20.135-17.531 52.243-9.616 61.601 15.839 4.059 11.04 18.221 14.113 26.534 5.799l34.507-34.507c14.199-14.203 14.199-37.309-.001-51.509zm-86.604 224.133c1.557 22.518-16.156 41.438-38.575 41.438-5.605 0-11.009-1.173-16.06-3.487-10.775-4.939-22.987 2.827-22.987 14.607v13.531c-40.879 4.758-94.391.401-141.894-3.474-39.397-3.214-74.023-6.035-98.123-3.823v-154.613c0-11.811 9.609-21.42 21.421-21.42h48.796c11.809 0 19.533-12.234 14.608-22.988-3.538-7.723-4.32-16.15-2.636-24.097l26.206 26.206c8.301 8.303 22.469 5.255 26.534-5.8 3.696-10.054 11.71-18.594 22.353-22.672 2.469 8.876 1.602 18.387-2.156 26.504-4.943 10.674 2.928 22.847 14.669 22.847h37.754c-3.799 10.413-12.121 18.975-22.817 22.951-11.091 4.122-14.272 18.238-5.926 26.583l34.504 34.504c13.776 13.777 36.627 14.616 51.456.05 24.525-9.82 51.099 7.516 52.873 33.153zm-145.524-169.146c8.756.204 17.454 3.329 24.414 9.388 8.126 7.074 12.837 16.835 13.306 27.517-42.022-.187-40.367.48-41.019-.54-.315-.493-.137-.878-.078-1.004 4.962-10.717 6.367-23.279 3.377-35.361zm221.521-14.087c-36.465 36.204-34.404 35.074-35.57 34.816-.583-.128-.736-.543-.786-.679-13.02-35.415-57.618-46.273-85.529-21.976-30.605 26.645-21.912 76.593 16.421 90.841.845.314 1.168 1.289.544 1.917l-34.504 34.504c-8.352 8.352-21.941 8.352-30.294 0l-34.504-34.504c-.629-.629-.295-1.604.545-1.917 37.851-14.071 47.332-63.93 16.419-90.841-27.707-24.12-72.387-13.769-85.528 21.976-.281.761-1.265.954-1.849.37-.1-.1-35.576-35.576-34.507-34.507-8.352-8.352-8.352-21.942 0-30.294l50.34-50.34c19.819 19.83 45.633 40.262 85.279 50.214 51.76 12.992 112.735 3.945 164.723-8.673l8.799 8.799c8.353 8.352 8.353 21.942.001 30.294z"/></g></svg>