<svg id="Capa_1" enable-background="new 0 0 512.025 512.025" height="512" viewBox="0 0 512.025 512.025" width="512" xmlns="http://www.w3.org/2000/svg"><g><g><path d="m375.385 287.247 30.202 30.202c3.197 3.197 8.381 3.197 11.578 0l30.202-30.202c5.157-5.157 1.505-13.976-5.789-13.976h-60.404c-7.294 0-10.946 8.819-5.789 13.976z" fill="#59636f"/></g><g><path d="m291.841 141.637 30.202-30.202c3.197-3.197 3.197-8.381 0-11.578l-30.202-30.202c-5.157-5.157-13.976-1.505-13.976 5.789v60.404c.001 7.294 8.819 10.946 13.976 5.789z" fill="#59636f"/></g><g><path d="m139.803 215.883-30.202-30.202c-3.197-3.197-8.381-3.197-11.578 0l-30.202 30.202c-5.157 5.158-1.505 13.976 5.789 13.976h60.404c7.294 0 10.947-8.818 5.789-13.976z" fill="#59636f"/></g><ellipse cx="103.813" cy="413.209" fill="#f6ee86" rx="86.919" ry="86.919" transform="matrix(.707 -.707 .707 .707 -261.777 194.433)"/><path d="m179.964 455.136c-122.779 57.754-157.267-59.038-132.174-108.377-18.893 15.944-30.896 39.794-30.896 66.45 0 48.004 38.915 86.919 86.919 86.919 32.799 0 61.352-18.17 76.151-44.992z" fill="#f2d98d"/><ellipse cx="103.813" cy="413.209" fill="#e7889d" rx="44.697" ry="44.697" transform="matrix(.707 -.707 .707 .707 -261.777 194.433)"/><path d="m473.539 18.711h-124.326c-13.681 0-24.772 11.091-24.772 24.772v124.326c0 13.681 11.091 24.772 24.772 24.772h124.326c13.681 0 24.772-11.091 24.772-24.772v-124.326c-.001-13.681-11.091-24.772-24.772-24.772z" fill="#88d37f"/><path d="m368.714 18.711h-19.501c-13.681 0-24.772 11.091-24.772 24.772v124.326c0 13.681 11.091 24.772 24.772 24.772h116.367c-100.889-21.314-103.939-130.416-96.866-173.87z" fill="#5ec682"/><path d="m441.696 63.244h-60.64c-6.673 0-12.082 5.41-12.082 12.083v60.64c0 6.673 5.409 12.083 12.082 12.083h60.64c6.673 0 12.082-5.41 12.082-12.083v-60.64c0-6.674-5.409-12.083-12.082-12.083z" fill="#f6ee86"/><path d="m381.056 148.049h13.278c-14.277-19.584-21.842-42.768-25.36-64.885v52.803c-.001 6.672 5.409 12.082 12.082 12.082z" fill="#f2d98d"/><path d="m88.845 20.542-78.991 136.817c-6.652 11.522 1.663 25.925 14.968 25.925h157.983c13.305 0 21.62-14.403 14.968-25.925l-78.993-136.817c-6.652-11.522-23.283-11.522-29.935 0z" fill="#a2ddfd"/><path d="m65.19 61.514-55.336 95.845c-6.652 11.522 1.663 25.925 14.968 25.925h94.206c-66.523-17.964-67.652-79.048-53.838-121.77z" fill="#7acefa"/><path d="m98.535 85.189-27.851 48.239c-2.345 4.063.586 9.141 5.277 9.141h55.701c4.691 0 7.623-5.078 5.277-9.141l-27.849-48.239c-2.346-4.062-8.209-4.062-10.555 0z" fill="#b0ade2"/><path d="m392.583 325.953-61.161 44.436c-11.206 8.142-15.895 22.573-11.615 35.747l23.362 71.899c4.28 13.174 16.556 22.093 30.408 22.093h75.599c13.852 0 26.128-8.919 30.408-22.093l23.361-71.899c4.28-13.174-.409-27.605-11.615-35.747l-61.161-44.436c-11.206-8.142-26.38-8.142-37.586 0z" fill="#e7889d"/><path d="m449.176 500.128c10.198 0 19.529-4.846 25.457-12.653-104.883-25.055-107.882-126.991-89.168-156.35l-54.043 39.265c-11.206 8.142-15.895 22.573-11.615 35.747l23.362 71.9c4.28 13.173 16.557 22.093 30.408 22.093h75.599z" fill="#e16e7e"/><path d="m402.321 372.679-29.47 21.411c-5.399 3.923-7.659 10.877-5.596 17.224l11.256 34.644c2.062 6.348 7.978 10.645 14.652 10.645h36.427c6.674 0 12.589-4.298 14.652-10.645l11.256-34.644c2.062-6.348-.197-13.301-5.596-17.224l-29.47-21.411c-5.4-3.923-12.712-3.923-18.111 0z" fill="#f6ee86"/><path d="m378.306 390.127-5.455 3.963c-5.399 3.923-7.659 10.877-5.596 17.224l11.256 34.644c2.062 6.348 7.978 10.645 14.652 10.645h20.679c-21.102-19.383-31.727-43.82-35.536-66.476z" fill="#f2d98d"/><path d="m92.04 81.439-27.851 48.239c-5.23 9.06 1.3 20.39 11.773 20.39h55.701c10.461 0 17.009-11.319 11.772-20.391l-27.85-48.238c-2.457-4.256-6.858-6.797-11.772-6.797-.104.029-7.661-.323-11.773 6.797zm37.188 53.629h-50.83l25.415-44.02zm-24.198-46.129c0 .001-.001.002-.001.003zm349.279 299.084-29.47-21.412c-8.054-5.851-18.875-5.85-26.927 0l-29.47 21.411c-8.054 5.851-11.397 16.143-8.321 25.61l11.257 34.643c3.074 9.467 11.829 15.828 21.784 15.828h36.427c9.954 0 18.708-6.36 21.784-15.827l11.257-34.645c3.076-9.467-.269-19.759-8.321-25.608zm-5.944 20.973-11.257 34.644c-1.061 3.268-4.083 5.463-7.519 5.463h-36.427c-3.436 0-6.457-2.195-7.519-5.463l-11.257-34.644c-1.061-3.267.093-6.819 2.872-8.839l29.47-21.411v.001c2.778-2.018 6.514-2.019 9.294-.001l29.47 21.412c2.78 2.019 3.933 5.571 2.873 8.838zm47.374-44.674c-64.518-46.63-61.507-45.237-66.925-47.915l23.856-23.856c9.862-9.864 2.866-26.779-11.093-26.779h-22.702v-65.69h54.663c17.795 0 32.272-14.477 32.272-32.272v-81.33c0-4.142-3.358-7.5-7.5-7.5-4.143 0-7.5 3.358-7.5 7.5v81.33c0 9.524-7.748 17.272-17.272 17.272h-124.325c-9.524 0-17.272-7.748-17.272-17.272v-124.326c0-9.524 7.748-17.272 17.272-17.272h124.325c9.523 0 17.272 7.748 17.272 17.272v7.203c0 4.142 3.357 7.5 7.5 7.5 4.142 0 7.5-3.358 7.5-7.5v-7.203c0-17.795-14.477-32.272-32.272-32.272h-124.325c-17.795 0-32.272 14.477-32.272 32.272v40.664l-19.796-19.796c-9.866-9.862-26.779-2.868-26.779 11.092v22.702h-98.12l-46.97-81.355c-9.537-16.517-33.378-16.537-42.926 0l-78.992 136.818c-9.536 16.516 2.366 37.175 21.463 37.175h57.493l-19.796 19.796c-9.863 9.865-2.866 26.779 11.093 26.779h22.702v81.728c-48.57 3.835-86.919 44.583-86.919 94.121 0 16.595 4.368 32.919 12.632 47.208 2.073 3.586 6.661 4.811 10.247 2.737s4.811-6.661 2.737-10.247c-6.945-12.01-10.617-25.737-10.617-39.699 0-43.792 35.627-79.419 79.419-79.419s79.419 35.627 79.419 79.419-35.627 79.419-79.419 79.419c-16.975 0-33.166-5.278-46.822-15.263-3.344-2.445-8.036-1.715-10.481 1.627-2.445 3.344-1.716 8.036 1.627 10.481 16.244 11.877 35.496 18.155 55.676 18.155 52.063 0 94.419-42.357 94.419-94.419 0-49.539-38.349-90.286-86.919-94.121v-81.726h22.702c13.95 0 20.962-16.909 11.092-26.779l-19.796-19.796h57.494c19.071 0 31.011-20.637 21.462-37.175l-23.361-40.463h89.46v22.702c0 14.009 16.949 20.924 26.779 11.092l19.796-19.796v40.664c0 17.795 14.478 32.272 32.272 32.272h54.662v65.69h-22.701c-13.947 0-20.964 16.908-11.093 26.779l23.856 23.856c-5.408 2.673-2.338 1.235-66.924 47.915-13.878 10.083-19.641 27.818-14.34 44.132l23.361 71.899c5.301 16.314 20.388 27.275 37.541 27.275h75.6c17.153 0 32.24-10.961 37.541-27.275l23.361-71.899c5.302-16.314-.46-34.049-14.337-44.131zm-361.239-143.135c.137.137.325.325.149.749-.175.424-.44.424-.634.424h-60.404c-.194 0-.459 0-.635-.424s.012-.612.149-.749c32.177-32.062 30.141-30.402 30.688-30.402.546-.001-1.481-1.651 30.687 30.402zm56.776-60.078c3.77 6.531-.943 14.675-8.472 14.675h-157.983c-7.541 0-12.237-8.154-8.473-14.675l78.992-136.817c3.77-6.531 13.181-6.521 16.945 0zm125.665-55.462c-.001.546 1.651-1.481-30.403 30.686-.136.138-.324.325-.748.149s-.424-.441-.424-.635v-60.402c0-.194 0-.459.424-.635.708-.292-1.409-1.896 30.95 30.351.134.134.201.309.201.485zm63.748 176.297c-.138-.137-.325-.325-.15-.749.176-.424.441-.424.635-.424h60.403c.193 0 .459 0 .635.424s-.012.612-.149.749c-32.308 32.22-30.124 30.31-30.582 30.382-.881-.003 1.583 1.757-30.792-30.382zm115.123 121.875-23.361 71.9c-3.286 10.114-12.641 16.91-23.275 16.91h-75.6c-10.635 0-19.989-6.796-23.275-16.91l-23.361-71.899c-3.286-10.115.287-21.111 8.891-27.362l61.161-44.436c8.58-6.234 20.181-6.24 28.771 0l61.161 44.436c8.602 6.25 12.174 17.246 8.888 27.361zm-114.756-348.076c-10.798 0-19.583 8.785-19.583 19.583v60.64c0 10.798 8.785 19.583 19.583 19.583h60.64c10.798 0 19.582-8.785 19.582-19.583v-60.64c0-10.798-8.784-19.583-19.582-19.583zm65.222 19.583v60.64c0 2.527-2.056 4.583-4.582 4.583h-60.64c-2.527 0-4.583-2.056-4.583-4.583v-60.64c0-2.527 2.056-4.583 4.583-4.583h60.64c2.526 0 4.582 2.057 4.582 4.583zm-342.465 390.081c28.782 0 52.198-23.416 52.198-52.198s-23.416-52.197-52.198-52.197-52.197 23.415-52.197 52.197c-.001 28.782 23.415 52.198 52.197 52.198zm0-89.395c20.511 0 37.198 16.686 37.198 37.197s-16.687 37.198-37.198 37.198-37.197-16.687-37.197-37.198c-.001-20.511 16.686-37.197 37.197-37.197z"/></g></svg>