<svg id="Capa_1" enable-background="new 0 0 512.006 512.006" height="512" viewBox="0 0 512.006 512.006" width="512" xmlns="http://www.w3.org/2000/svg"><g><path d="m254.512 202.68c1.388.73 7.112 13.387 11.19 22.76 2.58 5.93 1.275 12.832-3.298 17.405l-19.068 19.068c-4.573 4.573-11.475 5.878-17.405 3.298-9.373-4.078-22.029-9.802-22.76-11.19l-45.489 12.189c.062 1.568-8.037 12.853-14.115 21.071-3.846 5.2-10.475 7.52-16.722 5.846l-26.047-6.979c-6.247-1.674-10.828-6.998-11.559-13.424-1.155-10.157-2.526-23.979-1.689-25.306l-33.3-33.3c-1.327.837-15.149-.534-25.306-1.689-6.426-.731-11.75-5.312-13.424-11.559l-6.979-26.047c-1.674-6.247.647-12.877 5.846-16.722 8.218-6.078 19.503-14.177 21.071-14.115l12.189-45.489c-1.388-.73-7.112-13.387-11.19-22.76-2.58-5.93-1.275-12.832 3.298-17.405l19.068-19.068c4.573-4.573 11.475-5.878 17.405-3.298 9.373 4.078 22.029 9.802 22.76 11.19l45.489-12.189c-.062-1.568 8.037-12.853 14.115-21.071 3.846-5.2 10.475-7.52 16.722-5.846l26.047 6.979c6.247 1.674 10.828 6.998 11.559 13.424 1.155 10.156 2.526 23.979 1.689 25.306l33.3 33.3c1.327-.837 15.149.534 25.305 1.689 6.426.731 11.75 5.312 13.424 11.559l6.979 26.047c1.674 6.247-.647 12.877-5.846 16.722-8.218 6.078-19.503 14.177-21.071 14.115zm-73.421-82.104c-16.575-16.575-43.448-16.575-60.023 0s-16.575 43.448 0 60.023 43.448 16.575 60.023 0 16.575-43.448 0-60.023z" fill="#a2ddfd"/><path d="m254.512 202.68c1.388.73 7.112 13.387 11.19 22.76 2.58 5.93 1.275 12.832-3.298 17.405l-19.068 19.068c-4.573 4.573-11.475 5.878-17.405 3.298-9.373-4.078-22.029-9.802-22.76-11.19l-45.489 12.189c.062 1.568-8.037 12.853-14.115 21.071-3.846 5.2-10.475 7.52-16.722 5.846l-26.047-6.979c-6.247-1.674-10.828-6.998-11.559-13.424-1.155-10.157-2.526-23.979-1.689-25.306l-33.3-33.3c-1.327.837-15.149-.534-25.306-1.689-6.426-.731-11.75-5.312-13.424-11.559l-6.979-26.047c-1.674-6.247.647-12.877 5.846-16.722 8.218-6.078 19.503-14.177 21.071-14.115l12.189-45.489c-1.388-.73-7.112-13.387-11.19-22.76-2.58-5.93-1.275-12.832 3.298-17.405l19.068-19.068c4.573-4.573 11.475-5.878 17.405-3.298 9.373 4.078 22.029 9.802 22.76 11.19l45.489-12.189c-.062-1.568 8.037-12.853 14.115-21.071 3.846-5.2 10.475-7.52 16.722-5.846l26.047 6.979c6.247 1.674 10.828 6.998 11.559 13.424 1.155 10.156 2.526 23.979 1.689 25.306l33.3 33.3c1.327-.837 15.149.534 25.305 1.689 6.426.731 11.75 5.312 13.424 11.559l6.979 26.047c1.674 6.247-.647 12.877-5.846 16.722-8.218 6.078-19.503 14.177-21.071 14.115zm-73.421-82.104c-16.575-16.575-43.448-16.575-60.023 0s-16.575 43.448 0 60.023 43.448 16.575 60.023 0 16.575-43.448 0-60.023z" fill="#cde9fa"/><path d="m243.336 261.912 11.481-11.481c-185.746-22.937-168.009-158.167-144.036-206.436l-11.794 3.16c-.73-1.388-13.387-7.112-22.76-11.19-5.93-2.58-12.832-1.275-17.405 3.298l-19.068 19.068c-4.573 4.573-5.878 11.475-3.298 17.405 4.078 9.373 9.802 22.029 11.19 22.76l-12.189 45.489c-1.568-.062-12.853 8.037-21.071 14.115-5.2 3.846-7.52 10.475-5.846 16.722l6.979 26.047c1.674 6.247 6.998 10.828 13.424 11.559 10.156 1.155 23.979 2.526 25.306 1.689l33.3 33.3c-.837 1.327.534 15.149 1.689 25.306.731 6.426 5.312 11.75 11.559 13.424l26.047 6.979c6.247 1.674 12.877-.647 16.722-5.846 6.078-8.218 14.177-19.503 14.115-21.071l45.489-12.189c.73 1.388 13.386 7.112 22.76 11.19 5.931 2.581 12.833 1.275 17.406-3.298z" fill="#a2ddfd"/><path d="m471.996 409.284c1.624.733 7.732 16.029 11.744 26.519 2.217 5.796.817 12.349-3.571 16.737l-28.121 28.121c-4.388 4.388-10.94 5.788-16.737 3.571-10.491-4.013-25.786-10.12-26.519-11.744l-57.884 9.168c-.196 1.771-12.855 12.306-21.592 19.364-4.828 3.9-11.492 4.593-17.021 1.775l-35.435-18.055c-5.53-2.817-8.886-8.616-8.568-14.814.574-11.217 1.657-27.651 2.975-28.851l-26.606-52.218c-1.745.361-15.676-8.423-25.089-14.552-5.201-3.386-7.919-9.51-6.948-15.639l6.221-39.28c.971-6.13 5.449-11.113 11.441-12.727 10.846-2.92 26.81-6.969 28.358-6.086l41.44-41.44c-.883-1.548 3.166-17.512 6.086-28.358 1.613-5.993 6.597-10.47 12.727-11.441l39.28-6.221c6.129-.971 12.253 1.748 15.639 6.948 6.129 9.413 14.913 23.344 14.552 25.089l52.218 26.606c1.199-1.318 17.634-2.4 28.851-2.975 6.198-.317 11.997 3.039 14.814 8.568l18.055 35.435c2.817 5.529 2.124 12.194-1.775 17.021-7.058 8.737-17.593 21.397-19.364 21.592zm-83.374-74.121c-14.898-14.898-39.054-14.898-53.952 0s-14.898 39.054 0 53.952 39.054 14.898 53.952 0c14.898-14.899 14.898-39.054 0-53.952z" fill="#b0ade2"/><path d="m435.311 484.233c5.796 2.217 12.348.817 16.737-3.571l11.017-11.017c-171.049-20.652-182.211-155.952-166.013-207.48l-38.411 38.411c-1.548-.883-17.512 3.166-28.358 6.086-5.993 1.613-10.47 6.597-11.441 12.727l-6.221 39.28c-.971 6.129 1.748 12.253 6.948 15.639 9.412 6.129 23.344 14.913 25.089 14.552l26.606 52.218c-1.318 1.199-2.4 17.634-2.974 28.851-.317 6.198 3.039 11.997 8.568 14.814l35.435 18.055c5.53 2.817 12.194 2.124 17.021-1.775 8.737-7.058 21.397-17.593 21.592-19.365l57.884-9.168c.735 1.623 16.03 7.731 26.521 11.743z" fill="#a09cdc"/><path d="m435.685 362.139c0-40.891-33.149-74.04-74.04-74.04s-74.04 33.149-74.04 74.04 33.149 74.04 74.04 74.04c40.892-.001 74.04-33.149 74.04-74.04zm-98.241-24.202c13.366-13.366 35.037-13.366 48.403 0s13.366 35.037 0 48.403-35.037 13.366-48.403 0-13.366-35.037 0-48.403z" fill="#f6ee86"/><path d="m151.079 225.967c41.631 0 75.379-33.749 75.379-75.379s-33.749-75.379-75.379-75.379c-41.631 0-75.379 33.748-75.379 75.379s33.748 75.379 75.379 75.379zm-25.516-100.896c14.092-14.092 36.94-14.092 51.033 0 14.092 14.092 14.092 36.94 0 51.033-14.092 14.092-36.941 14.092-51.033 0-14.093-14.092-14.093-36.94 0-51.033z" fill="#e7889d"/><path d="m475.92 125.147c.947.328 3.771 8.107 5.983 14.632 1.808 5.333.439 11.228-3.543 15.209l-18.802 18.803c-3.982 3.982-9.876 5.351-15.209 3.543-6.525-2.212-14.303-5.035-14.632-5.983h-43.689c-.329.947-8.107 3.771-14.632 5.983-5.333 1.808-11.228.439-15.209-3.543l-18.802-18.803c-3.982-3.982-5.351-9.876-3.543-15.209 2.212-6.525 5.035-14.303 5.983-14.632v-43.689c-.947-.329-3.771-8.107-5.983-14.632-1.808-5.333-.439-11.228 3.543-15.209l18.802-18.803c3.982-3.982 9.876-5.351 15.209-3.543 6.525 2.212 14.303 5.036 14.632 5.983h43.689c.328-.947 8.107-3.771 14.632-5.983 5.333-1.808 11.228-.439 15.209 3.543l18.802 18.803c3.982 3.982 5.351 9.876 3.543 15.209-2.212 6.525-5.036 14.303-5.983 14.632zm-48.299-41.594c-10.907-10.907-28.591-10.907-39.498 0s-10.907 28.591 0 39.498 28.591 10.907 39.498 0 10.907-28.591 0-39.498z" fill="#a7a7a7"/><path d="m459.557 173.791 8.112-8.112c-114.179 2.407-119.251-93.918-90.089-134.243l-8.803-2.786c-4.57-.668-9.253.825-12.592 4.164l-18.802 18.803c-3.982 3.982-5.351 9.876-3.543 15.209 2.212 6.525 5.035 14.303 5.983 14.632v43.689c-.948.328-3.771 8.107-5.983 14.632-1.808 5.333-.439 11.228 3.543 15.209l18.802 18.802c3.982 3.982 9.876 5.351 15.209 3.543 6.525-2.212 14.303-5.035 14.632-5.983h43.689c.328.947 8.107 3.771 14.632 5.983 5.334 1.808 11.229.439 15.21-3.542z" fill="#8b97a5"/><path d="m96.584 98.539c-12.929 13.532-20.884 31.856-20.884 52.049 0 41.631 33.749 75.379 75.379 75.379 5.015 0 9.912-.501 14.653-1.435-58.921-31.677-72.341-83.401-69.148-125.993z" fill="#e16e7e"/><path d="m294.329 331.319c-4.305 9.386-6.723 19.818-6.723 30.82 0 40.891 33.149 74.04 74.04 74.04.541 0 1.075-.029 1.613-.041-42.959-28.1-62.423-68.301-68.93-104.819z" fill="#f2d98d"/><path d="m151.079 67.709c-14.788 0-29.307 3.945-41.985 11.408-3.569 2.101-4.76 6.698-2.659 10.268 2.103 3.57 6.698 4.759 10.269 2.659 10.375-6.106 22.262-9.334 34.376-9.334 37.429 0 67.879 30.451 67.879 67.879s-30.45 67.879-67.879 67.879-67.88-30.451-67.88-67.879c0-12.805 3.581-25.273 10.357-36.058 2.203-3.508 1.147-8.137-2.36-10.341-3.51-2.205-8.138-1.147-10.341 2.36-8.28 13.179-12.656 28.407-12.656 44.038 0 45.7 37.18 82.879 82.88 82.879 45.699 0 82.879-37.18 82.879-82.879s-37.18-82.879-82.88-82.879zm281.845 60.646c13.814-13.814 13.814-36.291 0-50.105-13.846-13.846-36.258-13.847-50.104 0-13.814 13.814-13.814 36.291 0 50.105 13.845 13.846 36.257 13.847 50.104 0zm-39.497-39.499c7.981-7.983 20.907-7.984 28.89 0 7.966 7.965 7.966 20.926 0 28.892-7.983 7.984-20.905 7.985-28.89 0-7.966-7.965-7.966-20.926 0-28.892zm-61.104-5.095v39.082c-1.47 2.775-3.103 7.203-5.585 14.527-2.746 8.098-.699 16.881 5.342 22.921l18.803 18.803c6.04 6.041 14.821 8.086 22.921 5.342 7.325-2.483 11.752-4.117 14.527-5.586h39.081c2.775 1.469 7.203 3.102 14.528 5.586 8.207 2.782 16.964.614 22.921-5.343l18.803-18.803c6.04-6.041 8.087-14.824 5.341-22.92-2.483-7.324-4.115-11.752-5.585-14.528v-39.081c1.47-2.775 3.103-7.203 5.585-14.526 2.746-8.098.7-16.88-5.341-22.921l-18.803-18.804c-6.042-6.041-14.826-8.086-22.921-5.342-7.325 2.483-11.752 4.117-14.527 5.586h-39.081c-2.775-1.469-7.202-3.102-14.528-5.586-8.098-2.744-16.879-.698-22.921 5.343l-18.801 18.802c-6.042 6.041-8.09 14.824-5.344 22.92 2.483 7.325 4.116 11.752 5.585 14.528zm13.147-7.239c-.47-.973-1.763-3.952-4.526-12.105-.898-2.65-.23-5.523 1.744-7.497l18.801-18.802c1.975-1.975 4.848-2.643 7.499-1.744 8.153 2.764 11.131 4.057 12.103 4.526 1.337 1.168 3.077 1.854 4.937 1.854h43.688c1.859 0 3.6-.686 4.937-1.853.973-.47 3.95-1.763 12.103-4.527 2.652-.898 5.524-.231 7.499 1.743l18.803 18.803c1.975 1.974 2.642 4.847 1.743 7.498-2.764 8.152-4.057 11.13-4.526 12.104-1.168 1.337-1.854 3.077-1.854 4.937v43.689c0 1.859.686 3.6 1.854 4.936.47.973 1.763 3.951 4.526 12.104.898 2.65.23 5.523-1.742 7.498l-18.803 18.802c-1.975 1.975-4.848 2.643-7.499 1.744-8.153-2.764-11.131-4.057-12.103-4.527-1.337-1.167-3.077-1.853-4.937-1.853h-43.688c-1.859 0-3.6.686-4.937 1.854-.973.469-3.95 1.763-12.102 4.526-2.652.898-5.525.231-7.499-1.743l-18.803-18.803c-1.974-1.974-2.642-4.847-1.743-7.498 2.764-8.152 4.057-11.13 4.526-12.103 1.168-1.337 1.854-3.077 1.854-4.936v-43.691c-.002-1.859-.687-3.6-1.855-4.936zm16.176 204.077c-44.961 0-81.539 36.579-81.539 81.54s36.578 81.54 81.539 81.54 81.54-36.579 81.54-81.54-36.579-81.54-81.54-81.54zm0 148.079c-36.69 0-66.539-29.85-66.539-66.54s29.85-66.54 66.539-66.54c36.69 0 66.54 29.85 66.54 66.54 0 36.691-29.85 66.54-66.54 66.54zm144.718-94.157c5.748-7.117 6.777-16.984 2.623-25.138l-18.055-35.435c-4.155-8.155-12.753-13.113-21.881-12.654-15.465.792-23.41 1.534-27.78 2.397l-46.781-23.837c-1.87-4.043-5.939-10.907-14.39-23.884-4.991-7.667-14.058-11.693-23.099-10.264l-39.278 6.222c-9.04 1.432-16.419 8.065-18.797 16.899-4.025 14.953-5.775 22.738-6.304 27.161l-37.127 37.126c-4.424.53-12.209 2.279-27.161 6.304-8.834 2.379-15.468 9.757-16.898 18.796l-6.222 39.28c-1.432 9.039 2.597 18.105 10.264 23.098 12.977 8.449 19.84 12.518 23.884 14.388l23.837 46.785c-.863 4.371-1.605 12.316-2.398 27.779-.467 9.137 4.501 17.725 12.654 21.879l35.435 18.055c8.083 4.117 17.959 3.176 25.14-2.624 12.046-9.731 18.037-15.001 21.065-18.269l51.858-8.213c3.89 2.171 11.217 5.333 25.68 10.864 8.545 3.269 18.248 1.199 24.721-5.272l12.201-12.202c2.929-2.929 2.929-7.678-.001-10.607-2.929-2.93-7.678-2.928-10.606 0l-12.2 12.202c-2.294 2.294-5.732 3.027-8.755 1.87-15.397-5.889-22.051-8.962-23.881-10.029-1.662-1.67-4.061-2.504-6.491-2.118l-57.884 9.168c-2.431.385-4.455 1.919-5.52 4.021-1.411 1.58-6.791 6.561-19.612 16.917-2.519 2.036-6.015 2.401-8.903.928l-35.435-18.055c-2.889-1.472-4.648-4.514-4.483-7.747.845-16.466 1.711-23.744 2.158-25.813 1.075-2.097 1.126-4.635.009-6.827l-26.605-52.218c-1.117-2.192-3.201-3.644-5.529-4.007-1.937-.853-8.334-4.43-22.15-13.425-2.715-1.767-4.141-4.979-3.634-8.181l6.222-39.28c.508-3.203 2.856-5.816 5.984-6.658 15.918-4.286 23.107-5.71 25.214-5.923 2.325.372 4.757-.362 6.497-2.102l41.44-41.44c1.739-1.74 2.476-4.17 2.102-6.497.213-2.107 1.638-9.298 5.923-25.215.842-3.127 3.455-5.476 6.659-5.983l39.278-6.222c3.207-.508 6.414.92 8.182 3.633 8.994 13.813 12.571 20.212 13.426 22.15.362 2.328 1.813 4.412 4.006 5.529l52.218 26.606c2.195 1.118 4.732 1.067 6.828-.009 2.07-.448 9.35-1.315 25.811-2.158 3.244-.16 6.276 1.594 7.748 4.483l18.055 35.435c1.472 2.889 1.108 6.384-.927 8.903-10.36 12.824-15.339 18.203-16.918 19.614-2.102 1.065-3.635 3.089-4.02 5.519l-9.168 57.884c-.386 2.43.447 4.829 2.117 6.491 1.066 1.829 4.14 8.484 10.028 23.88.298.779.475 1.594.527 2.421.259 4.134 3.826 7.275 7.954 7.017 4.134-.259 7.275-3.82 7.017-7.954-.146-2.342-.646-4.643-1.487-6.842-5.531-14.462-8.693-21.789-10.864-25.679l8.214-51.86c3.264-3.028 8.534-9.019 18.265-21.063zm-174.222-1.887c-.001 0-.001 0-.001 0-16.305 16.305-16.308 42.701 0 59.009 16.307 16.306 42.7 16.311 59.009 0 16.306-16.304 16.31-42.7.001-59.009-16.307-16.307-42.701-16.309-59.009 0zm48.401 48.403c-10.443 10.445-27.348 10.446-37.796 0-10.444-10.444-10.445-27.351.001-37.796h-.001c10.445-10.443 27.351-10.447 37.796 0 10.443 10.441 10.448 27.35 0 37.796zm-131.903-113.821 19.067-19.068c6.795-6.796 8.707-16.884 4.871-25.701-4.978-11.44-7.927-17.66-9.923-21.181l10.391-38.779c3.489-2.051 9.154-5.963 19.185-13.381 7.73-5.717 11.119-15.41 8.631-24.694l-6.979-26.047c-2.487-9.284-10.268-15.984-19.82-17.07-12.399-1.41-19.26-1.965-23.307-1.997l-28.387-28.387c-.031-4.047-.587-10.908-1.997-23.306-1.086-9.554-7.786-17.334-17.069-19.822l-26.047-6.979c-9.286-2.487-18.978.901-24.694 8.632-7.418 10.031-11.331 15.695-13.381 19.185l-38.777 10.39c-3.521-1.997-9.741-4.946-21.183-9.923-8.813-3.837-18.904-1.926-25.7 4.872l-19.071 19.068c-6.795 6.796-8.707 16.884-4.871 25.7 4.978 11.44 7.927 17.661 9.924 21.182l-10.391 38.778c-3.489 2.051-9.153 5.962-19.186 13.382-7.729 5.717-11.117 15.41-8.63 24.693l6.978 26.048c2.487 9.282 10.268 15.982 19.821 17.069 12.398 1.41 19.259 1.965 23.307 1.996l28.388 28.388c.03 4.047.586 10.908 1.995 23.307 1.088 9.554 7.788 17.333 17.07 19.821l26.047 6.979c9.372 2.51 19.031-.975 24.692-8.631 7.422-10.033 11.334-15.696 13.384-19.186l38.777-10.391c3.52 1.997 9.741 4.946 21.182 9.924 8.817 3.836 18.905 1.925 25.703-4.871zm-47.41-20.441-45.488 12.189c-2.64.707-4.622 2.767-5.303 5.299-.581 1.083-3.073 5.27-12.902 18.556-2.027 2.741-5.462 3.942-8.75 3.062l-26.047-6.979c-3.289-.881-5.663-3.64-6.049-7.027-1.867-16.425-1.933-21.294-1.895-22.521.678-2.534-.011-5.308-1.942-7.24l-33.3-33.3c-1.934-1.933-4.706-2.622-7.241-1.943-1.232.039-6.098-.027-22.521-1.895-3.388-.385-6.146-2.759-7.028-6.047l-6.979-26.047c-.881-3.289.32-6.724 3.062-8.751 13.29-9.829 17.475-12.321 18.557-12.901 2.532-.68 4.592-2.664 5.299-5.303l12.188-45.489c.708-2.64-.084-5.387-1.938-7.242-.646-1.044-3.025-5.294-9.62-20.45-1.359-3.126-.683-6.703 1.725-9.11l19.067-19.067c2.408-2.408 5.985-3.084 9.11-1.724 15.154 6.593 19.406 8.972 20.451 9.619 1.855 1.854 4.604 2.645 7.242 1.938l45.488-12.189c2.64-.707 4.622-2.767 5.303-5.299.581-1.083 3.073-5.268 12.901-18.556 2.027-2.742 5.462-3.944 8.751-3.062l26.047 6.98c3.289.881 5.663 3.639 6.048 7.027 1.868 16.422 1.934 21.293 1.896 22.521-.678 2.534.011 5.308 1.942 7.24l33.3 33.3c1.932 1.932 4.708 2.618 7.24 1.943 1.225-.04 6.095.026 22.522 1.894 3.387.385 6.145 2.759 7.026 6.048l6.979 26.047c.881 3.289-.321 6.724-3.063 8.751-13.287 9.828-17.474 12.32-18.556 12.901-2.533.681-4.592 2.664-5.299 5.303l-12.188 45.489c-.707 2.639.084 5.385 1.937 7.241.646 1.044 3.025 5.294 9.62 20.452 1.36 3.127.684 6.702-1.725 9.11l-19.066 19.067c-2.408 2.408-5.984 3.085-9.11 1.724-15.155-6.594-19.406-8.973-20.45-9.62-1.855-1.853-4.601-2.645-7.241-1.939zm-19.33-65.368c16.993-16.994 16.993-44.645-.001-61.639-17.033-17.033-44.604-17.036-61.64 0-16.993 16.994-16.993 44.645 0 61.639 17.033 17.033 44.603 17.036 61.641 0zm-51.034-51.032c11.171-11.171 29.255-11.172 40.426 0 11.146 11.146 11.146 29.281.001 40.426-11.172 11.171-29.255 11.173-40.427 0-11.145-11.146-11.145-29.281 0-40.426z"/></g></svg>