<svg id="Capa_1" enable-background="new 0 0 512.078 512.078" height="512" viewBox="0 0 512.078 512.078" width="512" xmlns="http://www.w3.org/2000/svg"><g><path d="m357.665 331.317-60.223 60.223 102.135 102.135c14.436 14.436 37.841 14.436 52.277 0l7.946-7.946c14.436-14.436 14.436-37.841 0-52.277z" fill="#a2ddfd"/><path d="m357.665 331.317-60.223 60.223 35.191 35.191c11.968-7.727 23.109-16.711 33.311-26.912 10.202-10.202 19.185-21.342 26.913-33.31z" fill="#7acefa"/><path d="m189.202 7.569c-27.978-1.276-52.138 15.779-61.515 40.172-3.584 9.324-12.377 15.564-22.353 16.077-34.861 1.795-63.844 30.703-63.863 67.353-.019 36.214 29.12 66.339 65.316 67.46 37.887 1.173 69.012-28.909 69.573-66.399 38.761 6.146 73.461-24.219 72.648-63.319-.682-32.807-27.025-59.85-59.806-61.344z" fill="#fbf1cf"/><ellipse cx="372.354" cy="103.309" fill="#fbf1cf" rx="51.326" ry="51.326" transform="matrix(.213 -.977 .977 .213 192.083 445.101)"/><path d="m300.252 232.824-52.176 52.176c-6.902-6.902-31.603-32.13-59.68-66.988-24.404-30.299-43.683-58.379-57.498-83.723-4.765-8.741-1.257-19.683 7.745-23.935l35.574-16.805c8.256-3.9 18.076-.67 22.508 7.313 27.803 50.092 78.555 106.99 103.527 131.962z" fill="#e0b799"/><path d="m373.088 318.312c-16.497 40.222-48.428 72.154-88.65 88.65-23.283 9.549-50.022 4.182-67.817-13.612l-10.667-10.667 142.854-142.854 10.667 10.667c17.794 17.793 23.162 44.533 13.613 67.816z" fill="#a2ddfd"/><path d="m216.621 393.349c17.794 17.794 44.534 23.161 67.816 13.612.275-.113.545-.234.819-.348-18.018-14.677-32.435-38.012-38.993-64.242l-40.31 40.31z" fill="#7acefa"/><path d="m230.35 302.726-52.176 52.176c-32.626-32.626-40.184-40.184-120.083-43.059-9.451-.34-16.859-8.242-16.613-17.695l1.02-39.259c.249-9.592 8.281-17.143 17.87-16.801 42.309 1.512 71.324 4.498 96.002 13.001 31.526 10.864 52.156 29.813 73.98 51.637z" fill="#f2d98d"/><path d="m321.028 212.048-52.177 52.176c-21.102-21.102-39.61-50.945-50.777-81.877-11.78-32.628-15.462-65.884-10.894-97.274 1.482-10.184 11.463-16.84 21.425-14.256l38.288 9.93c8.279 2.147 13.786 10.041 12.822 18.54-5.302 46.753 20.59 92.038 41.313 112.761z" fill="#f2d98d"/><path d="m276.271 256.805-52.176 52.176c-33.534-33.534-81.527-62.929-136.391-83.727-8.722-3.306-13.285-12.896-10.274-21.724l12.683-37.186c3.138-9.201 13.267-14.032 22.364-10.606 65.066 24.503 122.748 60.021 163.794 101.067z" fill="#f6ee86"/><path d="m162.478 277.722h202.026v39.286h-202.026z" fill="#88d37f" transform="matrix(.707 -.707 .707 .707 -133.094 273.412)"/><path d="m244.788 288.288-66.615 66.615 27.78 27.78 40.31-40.31c-4.329-17.32-5.229-35.899-1.475-54.085z" fill="#5ec682"/><ellipse cx="141.825" cy="346.88" fill="#fbf1cf" rx="43.304" ry="43.304" transform="matrix(.707 -.707 .707 .707 -203.742 201.884)"/><path d="m372.354 162.135c32.436 0 58.826-26.389 58.826-58.826s-26.39-58.826-58.826-58.826-58.826 26.389-58.826 58.826 26.39 58.826 58.826 58.826zm0-102.653c24.166 0 43.826 19.66 43.826 43.826s-19.66 43.826-43.826 43.826-43.826-19.66-43.826-43.826 19.66-43.826 43.826-43.826zm92.75 368.666-92.078-92.078c2.569-4.842 4.911-9.817 7.001-14.913 10.728-26.157 4.742-55.975-15.248-75.966l-38.447-38.447c-15.923-15.922-44.599-58.694-39.164-106.612 1.374-12.114-6.532-23.569-18.391-26.645l-12.282-3.185c.036-37.87-29.943-68.539-66.951-70.227-11.048-.502-21.717 1.49-31.719 5.925-3.786 1.679-5.495 6.11-3.816 9.896 1.679 3.787 6.108 5.494 9.896 3.816 7.856-3.484 16.255-5.047 24.956-4.652 28.022 1.278 50.603 23.589 52.528 51.324l-10.9-2.827c-14.288-3.705-28.608 5.856-30.73 20.436-.359 2.467-.652 4.951-.911 7.444-7.246-7.017-18.329-9.161-27.834-4.67l-35.575 16.805c-13.206 6.24-17.787 22.085-11.126 34.307 3.339 6.124 7.021 12.444 11.005 18.909-6.654-2.807-13.387-5.504-20.198-8.069-13.035-4.908-27.583 1.946-32.105 15.204l-6.1 17.887c-17.21-10.957-27.952-30.04-27.942-50.635.017-31.933 24.944-58.229 56.749-59.867 12.978-.668 24.35-8.863 28.967-20.876 1.406-3.657 3.213-7.177 5.369-10.463 2.273-3.463 1.309-8.113-2.154-10.386s-8.113-1.308-10.385 2.154c-2.743 4.179-5.041 8.657-6.831 13.311-2.493 6.487-8.671 10.915-15.737 11.278-39.779 2.048-70.956 34.921-70.977 74.839-.014 26.972 14.7 51.855 37.99 65.161l-1.631 4.781c-4.161 12.201 1.643 25.306 13.26 30.549-7.024-.416-14.633-.768-22.955-1.065-13.759-.498-25.277 10.325-25.635 24.101l-1.02 39.259c-.353 13.512 10.343 24.9 23.84 25.386 16.553.596 29.402 1.379 39.856 2.451-4.227 7.408-6.656 15.969-6.656 25.091 0 28.013 22.79 50.804 50.804 50.804 18.542 0 34.788-9.989 43.66-24.864l25.833 25.833c19.99 19.991 49.808 25.977 75.966 15.249 5.096-2.09 10.071-4.432 14.913-7.001l71.231 71.232c2.929 2.929 7.677 2.929 10.607 0 2.929-2.929 2.929-7.678 0-10.607l-68.51-68.511c19.742-12.917 36.699-29.874 49.616-49.616l89.356 89.356c11.488 11.489 11.488 30.182.001 41.67l-7.947 7.946c-10.315 10.316-26.348 11.59-38.124 3.032-3.349-2.435-8.04-1.692-10.477 1.658-2.435 3.351-1.692 8.041 1.658 10.476 17.714 12.875 41.927 11.065 57.549-4.559l7.947-7.946c17.334-17.336 17.334-45.545-.002-62.883zm-250.502-341.994c.842-5.784 6.481-9.538 12.121-8.076l38.288 9.93c4.672 1.212 7.789 5.698 7.252 10.435-4.913 43.317 15.615 87.628 38.336 113.427l-34.397 34.397c-10.061-9.615-21.059-18.942-32.866-27.893-23.911-40.629-35.246-87.476-28.734-132.22zm-72.757 30.981 35.574-16.805c4.635-2.188 10.234-.357 12.747 4.172 2.352 4.237 4.966 8.683 7.762 13.227.85 26.802 7.007 54.676 19.118 82.191-17.611-11.456-36.539-22.092-56.424-31.694-8.898-13.067-16.688-25.688-23.142-37.527-2.711-4.977-.723-11.159 4.365-13.564zm-57.317 88.816c7.622-22.347 4.789-14.041 12.683-37.186 1.777-5.211 7.5-7.941 12.622-6.008 61.107 23.011 116.09 56.28 155.76 94.118l-41.58 41.581c-36.798-34.778-85.753-62.058-133.651-80.215-4.979-1.887-7.541-7.285-5.834-12.29zm93.074 141.957c0 .007-.001.014-.001.021-.558 19.258-16.386 34.756-35.777 34.756-19.742 0-35.804-16.061-35.804-35.804s16.062-35.804 35.804-35.804c19.908-.001 36.36 16.439 35.778 36.831zm-68.496-39.851c-12.49-1.746-28.372-2.904-50.746-3.709-5.313-.191-9.523-4.68-9.385-10.005l1.019-39.259c.141-5.423 4.682-9.703 10.106-9.5 31.377 1.122 52.256 3 69.445 6.257 32.586 16.449 61.371 36.037 83.858 57.227l-22.987 22.987c-10.625-34.752-53.429-47.534-81.31-23.998zm96.848 64.018-14.474-14.474c.447-2.072.763-4.19.948-6.346 21.018-21.019 113.574-113.575 128.6-128.601l17.173 17.173zm160.194-56.609c-15.628 38.107-46.448 68.927-84.557 84.557-20.546 8.428-43.966 3.725-59.667-11.977l-5.364-5.364 132.247-132.248 5.364 5.364c15.703 15.702 20.404 39.123 11.977 59.668z"/></g></svg>