<svg id="Capa_1" enable-background="new 0 0 512 512" height="512" viewBox="0 0 512 512" width="512" xmlns="http://www.w3.org/2000/svg"><g><circle cx="214.743" cy="55.151" fill="#e0b799" r="38.37"/><ellipse cx="214.743" cy="287.977" fill="#88d37f" rx="207.243" ry="207.243" transform="matrix(.707 -.707 .707 .707 -140.734 236.193)"/><path d="m421.915 282.548c-2.215-86.124-56.977-159.165-133.41-188.286-8.674 26.459-13.387 53.449-13.429 75.541-.536 30.645 10.858 59.682 32.101 81.793 30.655 31.909 75.117 42.252 114.738 30.952z" fill="#5ec682"/><path d="m362.75 433.02c-276.873-5.714-286.014-254.083-233.614-333.829-71.743 32.584-121.636 104.857-121.636 188.786 0 114.457 92.786 207.243 207.243 207.243 57.983 0 110.393-23.822 148.007-62.2z" fill="#5ec682"/><circle cx="214.743" cy="287.977" fill="#fbf1cf" r="154.222"/><path d="m60.521 287.977c0 85.175 69.048 154.222 154.222 154.222 26.073 0 50.629-6.48 72.162-17.902-148.451-33.325-189.354-154.257-181.979-244.588-27.455 27.845-44.405 66.075-44.405 108.268z" fill="#fae0bd"/><path d="m276.608 146.677c-.991 8.105-1.518 15.884-1.532 23.127-.536 30.645 10.858 59.682 32.101 81.793 17.303 18.01 39.005 29.148 61.751 33.405-1.173-61.897-38.805-114.861-92.32-138.325z" fill="#fae0bd"/><path d="m426.27 60.673c-2.729 7.735-6.665 17.511-10.602 27.292-1.017 2.527-4.194 3.303-6.291 1.562-15.56-12.918-29.998-30.798-38.211-55.289-1.909-5.693-9.059-7.455-13.341-3.246-29.832 29.326-52.751 93.256-52.751 139.108-.942 47.029 36.419 85.918 83.448 86.86s85.918-36.419 86.86-83.448c0-32.038-11.999-69.649-38.472-113.914-2.563-4.29-8.977-3.638-10.64 1.075z" fill="#e7889d"/><path d="m354.429 180.853c0-22.473 9.759-41.807 20.752-54.263 4.459-5.052 12.604-4.121 15.636 1.896 11.582 22.978 35.202 25.387 35.202 53.801-.396 19.769-16.743 35.474-36.512 35.078-19.769-.395-35.474-16.743-35.078-36.512z" fill="#f6ee86"/><path d="m504.494 117.507c0-18.278-7.938-34.003-16.878-44.134-3.626-4.109-10.251-3.352-12.718 1.542-9.42 18.689-28.632 20.648-28.632 43.758.322 16.079 13.618 28.853 29.697 28.531 16.08-.322 28.853-13.617 28.531-29.697z" fill="#e16e7e"/><g><g><ellipse cx="130.896" cy="366.472" fill="#eda1ab" rx="30.938" ry="24.637"/><ellipse cx="298.59" cy="366.472" fill="#eda1ab" rx="30.938" ry="24.637"/><ellipse cx="214.743" cy="347.542" fill="#4e5660" rx="16.423" ry="18.377"/></g></g><path d="m214.743 397.555c-4.142 0-7.5 3.358-7.5 7.5v5.467c0 4.142 3.358 7.5 7.5 7.5s7.5-3.358 7.5-7.5v-5.467c0-4.142-3.358-7.5-7.5-7.5zm-78.675-80.314c-4.142 0-7.5 3.358-7.5 7.5v12c0 4.142 3.358 7.5 7.5 7.5s7.5-3.358 7.5-7.5v-12c0-4.142-3.358-7.5-7.5-7.5zm78.675-138.842c4.142 0 7.5-3.358 7.5-7.5v-5.467c0-4.142-3.358-7.5-7.5-7.5s-7.5 3.358-7.5 7.5v5.467c0 4.142 3.358 7.5 7.5 7.5zm-117.078 102.078h-5.467c-4.142 0-7.5 3.358-7.5 7.5s3.358 7.5 7.5 7.5h5.467c4.142 0 7.5-3.358 7.5-7.5s-3.358-7.5-7.5-7.5zm249.033 157.453c-36.457 32.107-83.32 49.789-131.955 49.789-110.139.001-199.743-89.603-199.743-199.742 0-54.56 21.587-105.517 60.786-143.486 2.975-2.882 3.051-7.63.169-10.605s-7.63-3.05-10.605-.169c-42.142 40.819-65.35 95.603-65.35 154.26 0 57.36 22.337 111.287 62.897 151.846 40.559 40.56 94.486 62.896 151.846 62.896 52.288 0 102.671-19.012 141.869-53.533 3.108-2.738 3.409-7.477.671-10.585-2.737-3.108-7.476-3.408-10.585-.671zm-9.41-157.453h-5.467c-4.142 0-7.5 3.358-7.5 7.5s3.358 7.5 7.5 7.5h5.467c4.142 0 7.5-3.358 7.5-7.5s-3.358-7.5-7.5-7.5zm75.906-136.916c-6.011-5.417-11.689-10.533-15.68-18.451-5.413-10.738-19.986-12.516-27.957-3.483-14.364 16.276-22.61 37.832-22.629 59.152-.435 23.837 18.582 43.607 42.428 44.085.298.006.594.009.891.009 23.529-.001 42.798-18.809 43.271-42.436.001-.05.001-.1.001-.15.001-20.409-10.798-30.14-20.325-38.726zm-23.537 66.306c-15.603-.313-28.042-13.261-27.73-28.864.001-.05.001-.1.001-.15 0-25.193 13.2-42.87 18.875-49.3.958-1.086 2.68-.953 3.316.309 5.256 10.427 12.575 17.023 19.032 22.842 8.905 8.024 15.343 13.828 15.368 27.506-.351 15.568-13.25 27.975-28.862 27.657zm-174.914 111.798c-13.191 0-23.923 11.608-23.923 25.876 0 14.269 10.732 25.877 23.923 25.877s23.922-11.608 23.922-25.877c0-14.268-10.731-25.876-23.922-25.876zm0 36.754c-4.92 0-8.923-4.879-8.923-10.877 0-5.997 4.003-10.876 8.923-10.876s8.922 4.879 8.922 10.876-4.002 10.877-8.922 10.877zm297.251-240.985c-.019-17.672-6.853-35.538-18.755-49.023-7.128-8.077-20.185-6.499-25.038 3.129-2.509 4.977-5.921 8.583-9.643 12.043-4.464-9.06-9.557-18.385-15.209-27.835-5.838-9.762-20.383-8.25-24.151 2.43-2.249 6.374-5.415 14.364-8.661 22.446-15.096-13.536-25.939-29.922-32.259-48.771-3.671-10.945-17.477-14.304-25.709-6.209-16.298 16.022-30.955 42.156-41.034 70.639-17.826-9.006-36.859-15.478-56.472-19.222 3.624-6.643 5.552-14.123 5.552-21.909 0-25.293-20.577-45.871-45.87-45.871s-45.871 20.578-45.871 45.871c0 7.771 1.918 15.236 5.528 21.868-28.678 5.447-55.955 16.705-80.378 33.336-3.424 2.331-4.31 6.997-1.978 10.42 2.324 3.413 6.987 4.316 10.421 1.978 62.298-42.42 141.178-44.93 204.409-12.028-3.801 13.05-6.572 26.308-8.057 39.081-25.282-15.446-54.092-23.553-84.074-23.553-89.174 0-161.723 72.548-161.723 161.723 0 89.174 72.548 161.722 161.723 161.722 98.327 0 175.008-87.801 159.811-186.541 12.257 2.076 25.325 1.775 38.213-1.434 7.286 55.502-9.053 110.244-42.629 151.762-2.605 3.221-2.105 7.943 1.115 10.548 3.213 2.598 7.936 2.114 10.548-1.115 30.751-38.023 47.686-85.946 47.686-134.941 0-10.418-.769-20.876-2.267-31.178 31.989-13.941 54.91-45.515 55.663-83.138.001-.05.001-.1.001-.15 0-6.236-.452-12.707-1.327-19.318 17.251-2.915 30.77-18.119 30.435-36.76zm-273.291-42.83c-15.929-1.788-31.701-1.848-47.954-.042-4.453-5.478-6.876-12.251-6.876-19.41 0-17.022 13.849-30.871 30.871-30.871s30.87 13.849 30.87 30.871c-.001 7.177-2.436 13.966-6.911 19.452zm-23.96 360.095c-80.903 0-146.723-65.819-146.723-146.722s65.819-146.723 146.723-146.723c29.856 0 58.418 8.879 82.88 25.676-.021 1.034-.048 2.072-.048 3.094-.475 24.72 8.695 48.152 25.827 65.983 9.995 10.404 22.011 18.153 35.19 22.926 18.299 91.245-51.737 175.766-143.849 175.766zm173.931-185.239c-40.092-.803-76.099-32.671-76.099-79.361 0-46.993 24.08-107.778 50.509-133.759.331-.326.824-.16.972.282 7.717 23.013 21.354 42.754 40.53 58.674 5.94 4.933 15.09 2.797 18.061-4.584 3.386-8.41 6.871-17.068 9.549-24.362 5.669 9.654 10.708 19.134 15.04 28.281-4.758 5.713-8.469 13.009-8.469 24.042 0 .05 0 .1.001.15.337 16.808 12.005 30.778 27.554 34.752 1.027 6.836 1.557 13.497 1.562 19.859-.907 43.209-36.686 76.891-79.21 76.026zm87.139-109.754c-11.871.246-21.768-9.224-22.046-21.108.023-10.492 4.806-14.803 12.036-21.318 5.343-4.815 11.4-10.273 15.823-19.04 0-.001.185-.108.367.097 4.51 5.11 15.001 19.158 15.001 39.171 0 .05 0 .1.001.15.24 11.946-9.234 21.808-21.182 22.048zm-182.395 177.535c-4.142 0-7.5 3.358-7.5 7.5v12c0 4.142 3.358 7.5 7.5 7.5s7.5-3.358 7.5-7.5v-12c0-4.142-3.358-7.5-7.5-7.5zm-31.629-36.764h-43.939l-48.764-48.764c-2.929-2.929-7.678-2.929-10.606 0-2.929 2.929-2.929 7.678 0 10.606l50.96 50.96c1.406 1.407 3.314 2.197 5.303 2.197h47.045c4.142 0 7.5-3.358 7.5-7.5.001-4.141-3.357-7.499-7.499-7.499z"/></g></svg>