<svg id="Capa_1" enable-background="new 0 0 512 512" height="512" viewBox="0 0 512 512" width="512" xmlns="http://www.w3.org/2000/svg"><g><path d="m197.546 504.5h-51.63c-13.122 0-23.76-10.638-23.76-23.76v-51.63c0-13.122 10.638-23.76 23.76-23.76h51.63c13.122 0 23.76 10.638 23.76 23.76v51.63c0 13.122-10.638 23.76-23.76 23.76z" fill="#f2d98d"/><path d="m366.084 504.5h-51.63c-13.122 0-23.76-10.638-23.76-23.76v-51.63c0-13.122 10.638-23.76 23.76-23.76h51.63c13.122 0 23.76 10.638 23.76 23.76v51.63c0 13.122-10.638 23.76-23.76 23.76z" fill="#f2d98d"/><path d="m389.844 462.986v-33.876c0-13.122-10.638-23.76-23.76-23.76h-51.63c-7.694 0-14.53 3.66-18.873 9.331 12.003 19.216 41.729 49.088 94.263 48.305z" fill="#b0ade2"/><path d="m281.815 336.503h-51.63c-13.122 0-23.76-10.638-23.76-23.76v-51.63c0-13.122 10.638-23.76 23.76-23.76h51.63c13.122 0 23.76 10.638 23.76 23.76v51.63c0 13.122-10.638 23.76-23.76 23.76z" fill="#f6ee86"/><path d="m256 287.928c16.005 0 27.119-7.836 49.575-10.322v-16.493c0-13.122-10.638-23.76-23.76-23.76h-51.63c-13.122 0-23.76 10.638-23.76 23.76v16.493c22.456 2.485 33.57 10.322 49.575 10.322z" fill="#a2ddfd"/><path d="m113.277 336.503h-51.63c-13.122 0-23.76-10.638-23.76-23.76v-51.63c0-13.122 10.638-23.76 23.76-23.76h51.63c13.122 0 23.76 10.638 23.76 23.76v51.63c0 13.122-10.638 23.76-23.76 23.76z" fill="#f6ee86"/><path d="m87.462 287.928c16.005 0 27.119-7.836 49.575-10.322v-16.493c0-13.122-10.638-23.76-23.76-23.76h-51.63c-13.122 0-23.76 10.638-23.76 23.76v16.493c22.456 2.485 33.57 10.322 49.575 10.322z" fill="#a2ddfd"/><path d="m398.723 336.503h51.63c13.122 0 23.76-10.638 23.76-23.76v-51.63c0-13.122-10.638-23.76-23.76-23.76h-51.63c-13.122 0-23.76 10.638-23.76 23.76v51.63c0 13.122 10.638 23.76 23.76 23.76z" fill="#f6ee86"/><path d="m424.538 287.928c-16.005 0-27.119-7.836-49.575-10.322v-16.493c0-13.122 10.638-23.76 23.76-23.76h51.63c13.122 0 23.76 10.638 23.76 23.76v16.493c-22.456 2.485-33.57 10.322-49.575 10.322z" fill="#a2ddfd"/><ellipse cx="256" cy="88.003" fill="#e7889d" rx="126.17" ry="80.503"/><path d="m224.898 9.967c-54.64 8.839-95.068 40.424-95.068 78.036 0 44.461 56.488 80.503 126.17 80.503 23.971 0 46.38-4.266 65.466-11.672-165.082-23.996-118.751-128.544-96.568-146.867z" fill="#e16e7e"/><g><g fill="#fff"><ellipse cx="177.623" cy="101.678" rx="28.919" ry="23.03"/><ellipse cx="334.377" cy="101.678" rx="28.919" ry="23.03"/></g></g><path d="m221.306 462.986v-33.876c0-13.122-10.638-23.76-23.76-23.76h-51.63c-7.694 0-14.53 3.66-18.873 9.331 12.003 19.216 41.729 49.088 94.263 48.305z" fill="#b0ade2"/><path d="m173.212 76.618c0 4.142 3.358 7.5 7.5 7.5s7.5-3.358 7.5-7.5c0-3.455 2.811-6.265 6.265-6.265 3.455 0 6.265 2.81 6.265 6.265 0 4.142 3.358 7.5 7.5 7.5s7.5-3.358 7.5-7.5c0-11.726-9.54-21.265-21.265-21.265-11.725-.001-21.265 9.539-21.265 21.265zm144.31-21.266c-11.726 0-21.265 9.54-21.265 21.265 0 4.142 3.358 7.5 7.5 7.5s7.5-3.358 7.5-7.5c0-3.455 2.811-6.265 6.265-6.265 3.455 0 6.265 2.81 6.265 6.265 0 4.142 3.358 7.5 7.5 7.5s7.5-3.358 7.5-7.5c.001-11.725-9.539-21.265-21.265-21.265zm132.831 174.501h-18.315v-9.213c0-13.901-11.31-25.211-25.211-25.211h-143.327v-19.571c32.306-1.16 62.52-9.787 85.75-24.609 26.065-16.631 40.42-39.092 40.42-63.247 0-15.534-6.124-30.761-17.709-44.037-2.724-3.122-7.461-3.443-10.582-.72-3.121 2.724-3.443 7.462-.72 10.582 9.297 10.653 14.011 22.151 14.011 34.174 0 18.852-11.893 36.823-33.488 50.602-22.641 14.447-52.892 22.403-85.182 22.403s-62.541-7.956-85.182-22.401c-21.595-13.779-33.488-31.75-33.488-50.602s11.893-36.823 33.488-50.602c22.641-14.446 52.892-22.401 85.182-22.401 28.878 0 56.755 6.553 78.497 18.451 3.635 1.989 8.192.655 10.18-2.978 1.989-3.634.655-8.191-2.979-10.18-23.911-13.086-54.346-20.293-85.698-20.293-35.113 0-68.23 8.792-93.25 24.756-26.065 16.631-40.42 39.092-40.42 63.247s14.355 46.616 40.42 63.247c23.23 14.822 53.443 23.449 85.75 24.609v19.571h-143.327c-13.901 0-25.211 11.31-25.211 25.211v9.213h-18.315c-17.237 0-31.26 14.023-31.26 31.26v51.63c0 17.237 14.023 31.26 31.26 31.26h51.63c17.237 0 31.26-14.023 31.26-31.26 0-25.14 0-29.676 0-51.63 0-17.237-14.023-31.26-31.26-31.26h-18.315v-9.213c0-5.63 4.581-10.211 10.211-10.211h143.327v19.423h-18.315c-17.237 0-31.26 14.023-31.26 31.26v51.63c0 17.237 14.023 31.26 31.26 31.26h18.315v19.423h-59.058c-13.901 0-25.211 11.31-25.211 25.211v9.212h-18.315c-17.07 0-31.26 13.877-31.26 31.26v51.63c0 10.5 5.228 20.24 13.983 26.055 3.451 2.292 8.105 1.352 10.397-2.098 2.292-3.451 1.352-8.105-2.098-10.397-4.56-3.028-7.282-8.098-7.282-13.56v-49.994c13.532 15.744 40.247 37.93 84.15 39.648v10.346c0 8.966-7.294 16.26-16.26 16.26h-28.866c-4.142 0-7.5 3.358-7.5 7.5s3.358 7.5 7.5 7.5h28.866c17.237 0 31.26-14.023 31.26-31.26v-51.63c0-17.237-14.023-31.26-31.26-31.26h-18.315v-9.212c0-5.63 4.58-10.211 10.211-10.211h133.116c5.63 0 10.211 4.581 10.211 10.211v9.212h-18.315c-17.07 0-31.26 13.877-31.26 31.26v51.63c0 17.237 14.023 31.26 31.26 31.26h51.63c17.237 0 31.26-14.023 31.26-31.26v-51.63c0-17.237-14.023-31.26-31.26-31.26h-18.315v-9.212c0-13.901-11.31-25.211-25.211-25.211h-59.058v-19.423h18.315c17.237 0 31.26-14.023 31.26-31.26 0-25.14 0-29.676 0-51.63 0-17.237-14.023-31.26-31.26-31.26h-18.315v-19.423h143.327c5.63 0 10.211 4.581 10.211 10.211v9.213h-18.315c-17.237 0-31.26 14.023-31.26 31.26v51.63c0 17.237 14.023 31.26 31.26 31.26h51.63c17.237 0 31.26-14.023 31.26-31.26 0-25.14 0-29.676 0-51.63 0-17.238-14.023-31.261-31.26-31.261zm-320.816 82.89c0 8.966-7.294 16.26-16.26 16.26h-51.63c-8.966 0-16.26-7.294-16.26-16.26v-26.428c16.263 3.102 26.951 9.113 42.075 9.113 15.133 0 25.758-6.001 42.075-9.113zm-16.26-67.89c8.966 0 16.26 7.294 16.26 16.26v9.966c-18.936 3.157-29.082 9.349-42.075 9.349-12.896 0-23.305-6.219-42.075-9.349v-9.966c0-8.966 7.294-16.26 16.26-16.26zm84.269 167.997c8.966 0 16.26 7.294 16.26 16.26v26.242c-43.503-1.96-67.368-26.598-77.02-39.688 2.605-1.774 5.748-2.814 9.13-2.814zm184.798 67.89c0 8.966-7.294 16.26-16.26 16.26h-51.63c-8.966 0-16.26-7.295-16.26-16.26v-49.994c13.532 15.744 40.247 37.93 84.15 39.648zm-16.26-67.89c8.966 0 16.26 7.294 16.26 16.26v26.242c-43.504-1.96-67.368-26.598-77.02-39.688 2.605-1.774 5.747-2.814 9.13-2.814zm-68.009-100.107c0 8.966-7.294 16.26-16.26 16.26h-51.63c-8.966 0-16.26-7.294-16.26-16.26v-26.428c16.265 3.102 26.952 9.113 42.075 9.113 15.15 0 25.731-5.995 42.075-9.113zm-16.26-67.89c8.966 0 16.26 7.294 16.26 16.26v9.966c-18.996 3.167-29.064 9.349-42.075 9.349-12.843 0-23.368-6.23-42.075-9.349v-9.966c0-8.966 7.294-16.26 16.26-16.26zm184.798 67.89c0 8.966-7.294 16.26-16.26 16.26h-51.63c-8.966 0-16.26-7.294-16.26-16.26v-26.428c16.263 3.102 26.952 9.113 42.075 9.113 15.133 0 25.757-6.001 42.075-9.113zm0-41.664c-18.995 3.167-29.064 9.349-42.075 9.349-12.896 0-23.305-6.219-42.075-9.349v-9.966c0-8.966 7.294-16.26 16.26-16.26h51.63c8.966 0 16.26 7.294 16.26 16.26zm-201.666-183.301c-2.259 2.593-5.521 4.08-8.947 4.08s-6.688-1.487-8.947-4.08c-2.722-3.123-7.459-3.447-10.582-.727-3.123 2.722-3.448 7.46-.727 10.582 5.109 5.862 12.492 9.224 20.255 9.224 7.764 0 15.146-3.362 20.255-9.224 2.721-3.122 2.396-7.86-.727-10.582-3.122-2.721-7.86-2.396-10.58.727z"/></g></svg>