<svg id="Capa_1" enable-background="new 0 0 512 512" height="512" viewBox="0 0 512 512" width="512" xmlns="http://www.w3.org/2000/svg"><g><path d="m214.429 337.655-73.481 73.481c-15.951 15.951-41.814 15.951-57.765 0-15.951-15.951-15.951-41.814 0-57.765l73.481-73.481z" fill="#b7856b"/><path d="m459.817 105.547h-420.875c-17.365 0-31.442 14.077-31.442 31.442 0 17.365 14.077 31.442 31.442 31.442-17.365 0-31.442 14.077-31.442 31.442s14.077 31.442 31.442 31.442c-17.365 0-31.442 14.077-31.442 31.442 0 17.365 14.077 31.442 31.442 31.442-17.365 0-31.442 14.077-31.442 31.442 0 17.365 14.077 31.443 31.443 31.443l420.875-.001c24.678 0 44.683-20.005 44.683-44.683v-162.17c-.001-24.678-20.006-44.683-44.684-44.683z" fill="#cb9d82"/><path d="m347.078 88.924h-70.432c-15.8 0-28.608 12.808-28.608 28.608v227.57c0 15.8 12.808 28.608 28.608 28.608h70.432c15.8 0 28.608-12.808 28.608-28.608v-227.57c0-15.8-12.809-28.608-28.608-28.608z" fill="#a2ddfd"/><path d="m248.038 124.095v214.443c1.53.12 3.071.2 4.631.2h118.386c1.56 0 3.101-.08 4.631-.2v-214.443c-1.53-.12-3.071-.2-4.631-.2h-118.386c-1.56 0-3.101.08-4.631.2z" fill="#7acefa"/><path d="m371.054 153.895h-118.385c-15.777 0-28.567 12.79-28.567 28.567v97.709c0 15.777 12.79 28.567 28.567 28.567h118.386c15.777 0 28.567-12.79 28.567-28.567v-97.709c-.001-15.777-12.791-28.567-28.568-28.567z" fill="#59636f"/><path d="m252.669 153.895c-15.777 0-28.567 12.79-28.567 28.567v97.709c0 15.777 12.79 28.567 28.567 28.567h83.369c-60.4-32.661-63.645-126.114-58.633-154.843z" fill="#455060"/><path d="m257.103 269.234v-75.834c0-3.592 2.912-6.504 6.504-6.504h96.51c3.592 0 6.504 2.912 6.504 6.504v75.834c0 3.592-2.912 6.504-6.504 6.504h-96.51c-3.592 0-6.504-2.912-6.504-6.504z" fill="#f6ee86"/><path d="m263.607 275.738h37.679c-17.609-27.313-24.029-62.08-25.273-88.843h-12.406c-3.592 0-6.504 2.912-6.504 6.504v75.834c0 3.593 2.912 6.505 6.504 6.505z" fill="#f2d98d"/><path d="m360.117 179.395h-96.511c-7.722 0-14.004 6.282-14.004 14.004v75.834c0 7.722 6.282 14.004 14.004 14.004h96.511c7.722 0 14.004-6.282 14.004-14.004v-75.833c0-7.723-6.282-14.005-14.004-14.005zm-.996 88.843h-94.519v-73.843h94.519zm100.696-170.191h-82.364c-6.43-9.989-17.638-16.623-30.375-16.623h-70.433c-12.737 0-23.946 6.635-30.375 16.623h-181.037c-4.143 0-7.5 3.358-7.5 7.5s3.357 7.5 7.5 7.5h175.593c-.51 4.095-.19 3.749-.288 35.453-13.936 4.993-23.936 18.33-23.936 33.962v97.709c0 15.632 9.999 28.968 23.936 33.961.098 31.597-.221 31.364.289 35.454h-201.884c-13.203.001-23.943-10.74-23.943-23.942s10.74-23.942 23.942-23.942h37.953c4.143 0 7.5-3.358 7.5-7.5s-3.357-7.5-7.5-7.5h-37.953c-13.202 0-23.942-10.741-23.942-23.943s10.74-23.942 23.942-23.942h37.953c4.143 0 7.5-3.358 7.5-7.5s-3.357-7.5-7.5-7.5h-37.953c-13.202 0-23.942-10.741-23.942-23.943s10.74-23.942 23.942-23.942h37.953c4.143 0 7.5-3.358 7.5-7.5s-3.357-7.5-7.5-7.5h-37.953c-13.202 0-23.942-10.741-23.942-23.942 0-10.504 7.02-19.938 17.07-22.944 3.969-1.187 6.224-5.365 5.037-9.334-1.185-3.968-5.362-6.224-9.334-5.037-16.352 4.889-27.773 20.233-27.773 37.315 0 12.898 6.304 24.352 15.99 31.442-9.686 7.091-15.99 18.545-15.99 31.442 0 12.898 6.304 24.352 15.99 31.442-9.686 7.092-15.99 18.546-15.99 31.443 0 12.898 6.304 24.352 15.99 31.443-9.686 7.091-15.99 18.545-15.99 31.442 0 21.473 17.47 38.942 38.942 38.942h28.126c-6.863 17.479-3.071 37.97 10.812 51.853 9.425 9.425 21.806 14.137 34.186 14.137 12.381 0 24.762-4.712 34.187-14.137l51.853-51.853h48.166c6.43 9.988 17.638 16.623 30.375 16.623h70.433c12.737 0 23.945-6.635 30.375-16.623h71.342c4.143 0 7.5-3.358 7.5-7.5s-3.357-7.5-7.5-7.5h-65.898c.509-4.087.19-3.707.288-35.454 13.936-4.993 23.936-18.329 23.936-33.961v-97.709c0-15.632-9.999-28.969-23.936-33.962-.098-31.749.221-31.359-.288-35.453h76.92c20.503 0 37.183 16.68 37.183 37.183v162.173c0 12.766-6.435 24.494-17.212 31.371-3.492 2.228-4.517 6.865-2.288 10.357 2.225 3.487 6.861 4.519 10.356 2.288 15.117-9.647 24.142-26.101 24.142-44.016v-162.173c0-28.774-23.409-52.183-52.183-52.183zm-324.172 307.786c-13 13.002-34.156 13.001-47.158 0-11.077-11.076-12.844-28.248-4.692-41.246h93.097zm119.893-288.302c0-11.639 9.469-21.108 21.107-21.108h70.433c11.639 0 21.107 9.469 21.107 21.108v28.864h-112.647zm112.647 227.57c0 11.639-9.469 21.108-21.107 21.108h-70.433c-11.639 0-21.107-9.469-21.107-21.108v-28.864h112.647zm23.936-162.639v97.709c0 11.616-9.45 21.066-21.066 21.066h-118.386c-11.616 0-21.066-9.45-21.066-21.066v-97.709c0-11.616 9.45-21.067 21.066-21.067h118.386c11.616 0 21.066 9.451 21.066 21.067zm-90.96 56.355h10.7c1.989 0 3.897-.79 5.303-2.196l13.783-13.782c2.93-2.929 2.93-7.678.001-10.607-2.929-2.928-7.678-2.929-10.606-.001l-11.587 11.586h-7.594c-4.143 0-7.5 3.358-7.5 7.5s3.358 7.5 7.5 7.5z"/></g></svg>