<svg id="Capa_1" enable-background="new 0 0 512 512" height="512" viewBox="0 0 512 512" width="512" xmlns="http://www.w3.org/2000/svg"><g><path d="m464.188 296.312h-416.376c-22.264 0-40.312-18.048-40.312-40.312 0-22.264 18.048-40.312 40.312-40.312h416.376c22.264 0 40.312 18.048 40.312 40.312 0 22.264-18.048 40.312-40.312 40.312z" fill="#f6ee86"/><path d="m123.966 215.688v80.624h81.246c-18.062-18.521-30.477-56.359-23.341-80.624z" fill="#f2d98d"/><path d="m47.812 215.688h76.154v80.624h-76.154c-22.264 0-40.312-18.048-40.312-40.312 0-22.264 18.048-40.312 40.312-40.312z" fill="#e7889d"/><path d="m256 215.688h132.033v80.624h-132.033z" fill="#88d37f"/><path d="m464.188 215.688h-76.155v80.624h76.155c22.264 0 40.312-18.048 40.312-40.312 0-22.264-18.048-40.312-40.312-40.312z" fill="#b0ade2"/><g><path d="m188.299 93.531c0-38.132-38.118-69.045-85.14-69.045-47.021 0-85.14 30.912-85.14 69.045 0 22.56 13.353 42.582 33.989 55.179 3.985 2.432 7.275 5.851 9.467 9.973l24.978 46.967c7.117 13.383 26.295 13.383 33.412 0l24.978-46.967c2.192-4.122 5.482-7.541 9.467-9.973 20.637-12.597 33.989-32.618 33.989-55.179z" fill="#cde9fa"/><path d="m119.866 205.651 11.966-22.501c-67.062-26.576-91.232-121.021-54.825-155.331-34.222 8.952-58.987 34.981-58.987 65.712 0 22.56 13.353 42.582 33.989 55.179 3.984 2.432 7.275 5.851 9.467 9.973l24.978 46.967c7.117 13.384 26.294 13.384 33.412.001z" fill="#a2ddfd"/></g><g><path d="m461.449 93.531c0-38.132-38.118-69.045-85.14-69.045s-85.14 30.912-85.14 69.045c0 22.56 13.353 42.582 33.989 55.179 3.984 2.432 7.275 5.851 9.467 9.973l24.978 46.967c7.117 13.383 26.295 13.383 33.412 0l24.978-46.967c2.192-4.122 5.482-7.541 9.467-9.973 20.636-12.597 33.989-32.618 33.989-55.179z" fill="#cde9fa"/><path d="m393.015 205.651 11.966-22.501c-67.061-26.576-91.231-121.021-54.824-155.331-34.223 8.951-58.988 34.981-58.988 65.712 0 22.56 13.353 42.582 33.989 55.179 3.984 2.432 7.275 5.851 9.467 9.973l24.978 46.967c7.117 13.384 26.294 13.384 33.412.001z" fill="#a2ddfd"/></g><g><path d="m152.034 418.469c0 38.133 38.118 69.045 85.14 69.045s85.14-30.912 85.14-69.045c0-22.56-13.353-42.582-33.989-55.179-3.984-2.432-7.275-5.851-9.467-9.973l-24.978-46.967c-7.117-13.383-26.295-13.383-33.412 0l-24.978 46.967c-2.192 4.122-5.482 7.541-9.467 9.973-20.636 12.597-33.989 32.618-33.989 55.179z" fill="#cde9fa"/><path d="m301.625 463.555c-89.685 8.54-113.918-73.819-97.742-126.02l-8.393 15.781c-2.192 4.122-5.482 7.541-9.467 9.973-20.637 12.598-33.989 32.619-33.989 55.179 0 38.133 38.118 69.045 85.14 69.045 25.765 0 48.839-9.294 64.451-23.958z" fill="#a2ddfd"/></g><path d="m237.174 429.424c1.989 0 3.896-.79 5.304-2.197l26.396-26.397c2.929-2.929 2.929-7.678-.001-10.607-2.928-2.93-7.677-2.929-10.606 0l-21.093 21.094-6.717-6.717c-2.93-2.929-7.678-2.929-10.607 0s-2.929 7.678 0 10.606l12.021 12.021c1.406 1.407 3.314 2.197 5.303 2.197zm-126.515-333.348v-37.331c0-4.142-3.357-7.5-7.5-7.5s-7.5 3.358-7.5 7.5v29.831h-9.499c-4.143 0-7.5 3.358-7.5 7.5s3.357 7.5 7.5 7.5h16.999c4.143 0 7.5-3.358 7.5-7.5zm353.529 112.112h-64.028l24.453-45.982c1.531-2.878 3.866-5.331 6.754-7.093 29.539-18.032 44.645-50.145 34.391-81.6-1.284-3.938-5.522-6.088-9.455-4.806-3.938 1.284-6.09 5.517-4.807 9.456 7.189 22.053-1.226 47.837-27.944 64.147-5.178 3.16-9.39 7.605-12.182 12.853l-24.977 46.967c-4.304 8.092-15.867 8.087-20.168 0l-24.979-46.968c-2.791-5.247-7.003-9.691-12.18-12.853-19.318-11.792-30.397-29.571-30.397-48.778 0-33.936 34.829-61.545 77.64-61.545 21.721 0 42.611 7.322 57.315 20.089 3.128 2.715 7.865 2.381 10.58-.747 2.716-3.128 2.382-7.865-.746-10.58-17.649-15.323-41.496-23.762-67.149-23.762-51.082 0-92.64 34.338-92.64 76.545 0 24.195 14.049 47.215 37.581 61.581 2.887 1.763 5.223 4.216 6.753 7.093l24.454 45.983h-225.446l24.453-45.982c1.531-2.878 3.867-5.331 6.755-7.093 23.532-14.366 37.581-37.387 37.581-61.581 0-42.207-41.559-76.545-92.641-76.545s-92.64 34.338-92.64 76.545c0 24.195 14.049 47.215 37.581 61.581 2.888 1.763 5.224 4.216 6.753 7.093l24.455 45.983h-31.495c-26.365-.001-47.813 21.447-47.813 47.811s21.448 47.812 47.813 47.812h165.51l-24.453 45.982c-1.531 2.878-3.866 5.331-6.754 7.093-38.593 23.559-49.333 68.236-23.441 102.3 2.507 3.297 7.213 3.939 10.509 1.432 3.298-2.506 3.939-7.211 1.433-10.509-19.42-25.549-13.497-60.389 19.315-80.42 5.178-3.16 9.39-7.604 12.182-12.853l24.977-46.967c4.304-8.092 15.867-8.087 20.168 0l24.979 46.968c2.791 5.247 7.003 9.691 12.181 12.852 19.317 11.792 30.397 29.571 30.397 48.778 0 33.936-34.829 61.545-77.64 61.545-14.486 0-28.621-3.197-40.878-9.246-3.716-1.835-8.212-.307-10.045 3.407s-.308 8.211 3.406 10.044c14.311 7.062 30.741 10.794 47.517 10.794 51.082 0 92.64-34.338 92.64-76.545 0-24.195-14.049-47.216-37.581-61.581-2.887-1.763-5.223-4.216-6.753-7.093l-24.454-45.983h203.162c26.362.002 47.81-21.446 47.81-47.81s-21.448-47.812-47.812-47.812zm-396.09-53.025c-2.79-5.247-7.002-9.691-12.181-12.854-19.318-11.792-30.397-29.571-30.397-48.778 0-33.936 34.829-61.545 77.64-61.545 42.812 0 77.641 27.609 77.641 61.545 0 19.206-11.079 36.985-30.396 48.778-5.178 3.16-9.391 7.604-12.183 12.853l-24.978 46.967c-4.303 8.091-15.868 8.087-20.167 0zm48.369 133.649h-68.654c-18.093 0-32.813-14.719-32.813-32.812s14.72-32.812 32.813-32.812h68.654zm132.033 0h-117.033v-65.624h117.033zm132.033 0h-117.033v-65.624h117.033zm83.655 0h-68.654v-65.624h68.654c18.092 0 32.812 14.719 32.812 32.812s-14.72 32.812-32.812 32.812zm-93.183-198.039-26.398 26.397c-2.929 2.929-2.929 7.678 0 10.606 2.93 2.929 7.678 2.929 10.607 0l21.094-21.094 6.717 6.717c2.93 2.929 7.678 2.929 10.607 0s2.929-7.678 0-10.606l-12.021-12.02c-2.928-2.929-7.676-2.929-10.606 0z"/></g></svg>