<svg id="Capa_1" enable-background="new 0 0 511.974 511.974" height="512" viewBox="0 0 511.974 511.974" width="512" xmlns="http://www.w3.org/2000/svg"><g><g><path d="m101.053 253.948 188.987-188.987c23.176-23.176 60.751-23.176 83.927 0l108.491 108.491c13.005 13.005 13.005 34.089 0 47.093l-225.821 225.821c-13.005 13.005-34.089 13.005-47.094 0l-108.49-108.491c-23.176-23.176-23.176-60.751 0-83.927z" fill="#f2d98d"/></g><path d="m379.104 283.124 10.978 7.227c7.924 5.217 18.423 4.146 25.131-2.562l41.68-41.68c6.708-6.708 7.779-17.207 2.562-25.131l-7.227-10.978c-3.708-5.632-2.947-13.095 1.821-17.863 13.005-13.005 13.005-34.089 0-47.094l-123.015-123.016c-19.405-19.405-50.868-19.405-70.273 0l-202.642 202.642c-19.405 19.405-19.405 50.868 0 70.273l123.016 123.016c13.005 13.005 34.089 13.005 47.094 0l133.012-133.012c4.768-4.769 12.231-5.53 17.863-1.822z" fill="#f6ee86"/><path d="m330.797 110.566-1.644-.339c-6.07-28.614-31.531-50.149-61.927-50.149h-44.516l-164.591 164.591c-19.405 19.405-19.405 50.868 0 70.273l123.016 123.016c13.005 13.005 34.089 13.005 47.094 0l102.298-102.298v-48.164l.269-.055c23.123-4.764 39.906-25.357 39.906-48.965v-58.944c0-23.609-16.782-44.202-39.905-48.966z" fill="#f2d98d"/><g><path d="m311.87 240.709 12.873-2.652c9.292-1.914 15.959-10.095 15.959-19.582v-58.944c0-9.487-6.667-17.668-15.959-19.582l-12.873-2.652c-6.605-1.361-11.344-7.176-11.344-13.919 0-18.391-14.909-33.3-33.3-33.3h-173.97c-27.443 0-49.69 22.247-49.69 49.69v286.578c0 27.443 22.247 49.69 49.69 49.69h173.971c18.391 0 33.3-14.909 33.3-33.3v-188.108c0-6.743 4.739-12.558 11.343-13.919z" fill="#88d37f"/></g><path d="m237.364 207.396c-23.524-16.08-51.018-24.579-79.512-24.579h-114.287v243.529c0 27.443 22.247 49.69 49.69 49.69h173.971c18.391 0 33.3-14.909 33.3-33.3v-188.108c0-1.281.173-2.527.495-3.717z" fill="#5ec682"/><path d="m325.985 504.473h-267.702c-21.264 0-38.501-17.237-38.501-38.501v-229.942c0-12.82 10.393-23.213 23.213-23.213h114.858c22.333 0 44.145 6.743 62.582 19.346l117.164 80.091c16.825 11.502 26.887 30.568 26.887 50.949v102.77c0 21.263-17.238 38.5-38.501 38.5z" fill="#cde9fa"/><path d="m325.985 504.473h-267.702c-21.264 0-38.501-17.237-38.501-38.501v-229.942c0-12.82 10.393-23.213 23.213-23.213h114.858c22.333 0 44.145 6.743 62.582 19.346l117.164 80.091c16.825 11.502 26.887 30.568 26.887 50.949v102.77c0 21.263-17.238 38.5-38.501 38.5z" fill="#cde9fa"/><path d="m94.461 212.817h-51.466c-12.82 0-23.213 10.393-23.213 23.213v229.943c0 21.263 17.237 38.501 38.501 38.501h140.576c-95.324-44.983-105.557-196.311-104.398-291.657z" fill="#a2ddfd"/><path d="m19.782 412.302h344.704v38.262h-344.704z" fill="#b0ade2"/><path d="m19.782 412.302v38.262h120.618c-7.375-11.77-13.617-24.64-18.874-38.262z" fill="#a09cdc"/><g><g><ellipse cx="112.577" cy="365.047" fill="#fff" rx="29.355" ry="23.377"/><ellipse cx="271.69" cy="365.047" fill="#fff" rx="29.355" ry="23.377"/><path d="m192.134 340.209c-11.646 0-22.017-7.826-28.539 1.825-6.617 9.79 8.202 24.97 28.539 24.97s35.156-15.18 28.539-24.97c-6.523-9.65-16.894-1.825-28.539-1.825z" fill="#4e5660"/></g></g><path d="m147.568 329.371c-3.122-2.721-7.86-2.397-10.582.727-1.844 2.116-4.506 3.33-7.302 3.33s-5.457-1.214-7.301-3.33c-2.722-3.124-7.459-3.449-10.582-.728s-3.449 7.459-.728 10.582c4.693 5.387 11.477 8.476 18.61 8.476s13.916-3.089 18.61-8.476c2.723-3.122 2.398-7.86-.725-10.581zm124.898 0c-3.122-2.721-7.86-2.397-10.581.727-1.844 2.116-4.506 3.33-7.302 3.33s-5.457-1.214-7.301-3.33c-2.722-3.124-7.459-3.449-10.582-.728s-3.449 7.459-.728 10.582c4.693 5.387 11.477 8.476 18.61 8.476s13.916-3.089 18.61-8.476c2.722-3.122 2.397-7.86-.726-10.581zm-80.332 3.339c-9.856 0-25.041-9.242-34.753 5.125-3.672 5.433-3.846 12.188-.477 18.531 5.672 10.68 20.159 18.139 35.23 18.139s29.558-7.459 35.23-18.139c3.369-6.343 3.195-13.098-.477-18.531-9.709-14.363-24.98-5.125-34.753-5.125zm21.982 16.62c-2.619 4.932-11.214 10.174-21.982 10.174-15.759 0-24.276-10.383-22.326-13.27.656-.971 1.144-1.525 2.765-1.525 4.031 0 11.646 3 19.561 3 4.673 0 8.909-.97 12.646-1.826 7.854-1.797 8.489-1.41 9.68.351.199.295.728 1.079-.344 3.096zm273.645-181.182-28.407-28.407s0 0 0-.001c0 0-.001-.001-.001-.001l-123.016-123.015c-22.299-22.299-58.581-22.299-80.879 0l-65.854 65.854h-79.284c-4.142 0-7.5 3.358-7.5 7.5s3.358 7.5 7.5 7.5h156.906c14.226 0 25.8 11.574 25.8 25.8 0 10.253 7.288 19.196 17.33 21.265l12.873 2.652c5.778 1.19 9.972 6.337 9.972 12.236v58.944c0 5.9-4.194 11.046-9.972 12.236l-12.874 2.652c-10.042 2.069-17.33 11.012-17.33 21.265v18.073l-68.36-46.729c-19.767-13.513-42.871-20.655-66.814-20.655h-106.786v-65.549c0-16.987 10.108-32.244 25.751-38.87 3.814-1.616 5.596-6.017 3.981-9.831-1.616-3.814-6.017-5.595-9.832-3.981-21.201 8.98-34.9 29.659-34.9 52.682v66.347c-13.607 3.151-23.784 15.363-23.784 29.915v229.943c0 25.365 20.636 46.001 46.001 46.001h236.623c4.142 0 7.5-3.358 7.5-7.5s-3.358-7.5-7.5-7.5h-236.622c-17.094 0-31.001-13.907-31.001-31.001v-7.909h329.704v7.909c0 15.971-11.961 29.229-27.822 30.84-4.121.418-7.123 4.098-6.704 8.219.418 4.121 4.091 7.128 8.219 6.704 23.549-2.391 41.307-22.065 41.307-45.763v-102.77c0-6.488-.909-12.853-2.64-18.94 14.445-14.445 77.824-77.823 92.852-92.851.002-.002.003-.004.005-.006l25.558-25.558c15.908-15.908 15.908-41.792 0-57.7zm-130.775 274.916h-329.704v-23.262h329.704zm0-38.262h-329.704v-168.772c0-8.664 7.049-15.713 15.713-15.713h114.858c20.91 0 41.087 6.237 58.35 18.038 8.21 5.612 118.208 80.805 117.164 80.091 14.79 10.111 23.62 26.843 23.62 44.758v41.598zm6.123-75.514c-4.124-7.337-9.59-13.932-16.201-19.402l19.637-19.637c2.241-2.241 5.788-2.603 8.436-.86 9.705 6.12 11.958 8.58 17.626 10.402zm82.855-115.164 7.227 10.978c3.244 4.928 2.571 11.532-1.6 15.704l-41.68 41.68c-4.172 4.171-10.777 4.845-15.704 1.601l-10.978-7.227c-8.564-5.638-20.04-4.467-27.29 2.782l-21.421 21.421-26.49-18.108v-28.326c0-3.169 2.253-5.934 5.357-6.573l12.873-2.652c12.716-2.62 21.945-13.944 21.945-26.928v-58.944c0-12.983-9.229-24.308-21.945-26.928l-12.873-2.652c-3.104-.64-5.357-3.404-5.357-6.574 0-22.497-18.303-40.8-40.8-40.8h-56.41l55.247-55.247c16.451-16.45 43.217-16.449 59.667 0l123.016 123.016c10.06 10.06 10.06 26.427 0 36.487-7.252 7.249-8.421 18.727-2.784 27.29zm31.191 1.118-8.26 8.26c-1.831-5.695-4.341-8.016-10.402-17.626-1.743-2.647-1.381-6.195.86-8.436 6.915-6.915 10.821-15.716 11.724-24.763l6.078 6.078c10.059 10.059 10.059 26.428 0 36.487z"/></g></svg>