<svg id="Capa_1" enable-background="new 0 0 511.991 511.991" height="512" viewBox="0 0 511.991 511.991" width="512" xmlns="http://www.w3.org/2000/svg"><g><path d="m155.333 309.366 146.412-146.412c9.115-9.115 9.115-23.893 0-33.008l-107.983-107.981c-9.115-9.115-23.893-9.115-33.008 0l-146.411 146.412c-9.115 9.115-9.115 23.893 0 33.008l107.982 107.982c9.115 9.114 23.893 9.114 33.008-.001z" fill="#fbf1cf"/><path d="m20.904 207.946 101.42 101.42c9.115 9.115 23.893 9.115 33.008 0l101.42-101.42z" fill="#fae0bd"/><path d="m358.01 107.684h-86.634c-9.087 0-15.169 9.451-11.294 17.669 6.034 12.799 9.542 23.578 9.542 32.949 0 22.704-18.643 25.86-18.643 63.921 0 11.658 3.262 22.568 8.94 31.905 4.565 7.507 12.699 12.111 21.485 12.111h66.575c8.786 0 16.92-4.603 21.485-12.111 5.678-9.336 8.94-20.247 8.94-31.905 0-38.06-18.643-41.217-18.643-63.921 0-9.371 3.508-20.15 9.542-32.949 3.873-8.219-2.209-17.669-11.295-17.669z" fill="#88d37f"/><path d="m369.465 254.128c5.677-9.337 8.94-20.247 8.94-31.905 0-5.421-.388-10.115-1.037-14.277h-125.352c-.649 4.162-1.036 8.856-1.036 14.277 0 11.658 3.262 22.568 8.94 31.905 4.565 7.507 12.699 12.111 21.485 12.111h66.575c8.786-.001 16.92-4.604 21.485-12.111z" fill="#5ec682"/><path d="m325.5 496.848h-229.084c-34.801 0-63.013-28.212-63.013-63.013v-173.274c0-12.49 10.125-22.615 22.615-22.615h309.881c12.49 0 22.615 10.125 22.615 22.615v173.274c-.001 34.801-28.213 63.013-63.014 63.013z" fill="#e0b799"/><path d="m352.155 237.946h-170.267l205.837 205.837c.514-3.241.789-6.562.789-9.948v-159.531z" fill="#d99a84"/><path d="m264.941 275.869h-107.967c-9.788 0-17.722 7.934-17.722 17.722v15.769c0 9.788 7.934 17.722 17.722 17.722h107.967c9.788 0 17.722-7.934 17.722-17.722v-15.769c0-9.787-7.934-17.722-17.722-17.722z" fill="#59636f"/><path d="m497.033 425.251-260.804-260.804c-9.965-9.965-26.121-9.965-36.086 0l-12.462 12.462c-6.739 6.739-6.739 17.665 0 24.404l272.487 272.486c6.739 6.739 17.665 6.739 24.404 0l12.462-12.462c9.964-9.965 9.964-26.121-.001-36.086z" fill="#e0b799"/><g><g fill="#fff"><ellipse cx="132.581" cy="411.546" rx="28.919" ry="23.03"/><ellipse cx="289.335" cy="411.546" rx="28.919" ry="23.03"/></g></g><path d="m128.171 386.485c0 4.142 3.358 7.5 7.5 7.5s7.5-3.358 7.5-7.5c0-3.455 2.811-6.265 6.265-6.265 3.455 0 6.265 2.81 6.265 6.265 0 4.142 3.358 7.5 7.5 7.5s7.5-3.358 7.5-7.5c0-11.726-9.54-21.265-21.265-21.265s-21.265 9.539-21.265 21.265zm-55.373-208.775c-2.929 2.929-2.929 7.678 0 10.606l17.478 17.478c2.929 2.929 7.678 2.929 10.606 0 2.929-2.929 2.929-7.678 0-10.606l-17.478-17.478c-2.928-2.929-7.677-2.929-10.606 0zm159.956-46.788c2.929-2.929 2.929-7.678 0-10.606l-29.36-29.36c-2.929-2.929-7.678-2.929-10.606 0-2.929 2.929-2.929 7.678 0 10.606l29.36 29.36c2.929 2.929 7.677 2.929 10.606 0zm269.583 289.026-106.324-106.323v-53.064c0-9.661-4.578-18.267-11.672-23.781 1.033-4.775 1.564-9.65 1.564-14.557 0-54.761-34.261-41.826-9.818-93.671 6.227-13.205-3.507-28.368-18.078-28.368h-75.422l-83.522-83.522c-12.024-12.024-31.59-12.024-43.614 0l-20.648 20.648c-2.929 2.929-2.929 7.678 0 10.606 2.929 2.929 7.678 2.929 10.606 0l20.648-20.648c6.177-6.175 16.227-6.175 22.401 0l74.685 74.685c-9.926 4.481-14.671 16.367-9.847 26.598 6.021 12.772 8.826 22.226 8.826 29.75 0 6.732-1.996 11.213-4.936 16.496l-15.654-15.654c-10.374-10.375-25.673-12.259-37.787-6.356l-47.71-47.709c-2.929-2.929-7.678-2.929-10.606 0-2.929 2.929-2.929 7.678 0 10.606l46.435 46.435c-8.466 8.7-10.413 9.826-12.929 13.832l-46.886-46.886c-2.929-2.929-7.678-2.929-10.606 0-2.929 2.929-2.929 7.678 0 10.606l54.144 54.144c.901 4.693 3.164 9.174 6.791 12.8l23.831 23.831h-150.192c-.651 0-1.295.028-1.937.069l-34.434-34.434c-6.191-6.191-6.191-16.211 0-22.401l100.255-100.254c2.929-2.929 2.929-7.678 0-10.606-2.929-2.929-7.678-2.929-10.606 0l-100.255 100.253c-12.053 12.052-12.054 31.561 0 43.614l29.425 29.425c-7.6 5.472-12.563 14.388-12.563 24.448v173.274c0 38.881 31.632 70.513 70.513 70.513h210.798c4.142 0 7.5-3.358 7.5-7.5s-3.358-7.5-7.5-7.5h-210.797c-30.61 0-55.513-24.903-55.513-55.513v-173.273c0-8.334 6.78-15.114 15.115-15.114h165.191l22.923 22.923h-87.157c-13.907 0-25.222 11.314-25.222 25.222v15.769c0 13.907 11.314 25.222 25.222 25.222h107.967c12.332 0 22.618-8.898 24.792-20.61l91.28 91.28v28.583c0 24.83-16.683 46.822-40.569 53.48-3.99 1.112-6.323 5.249-5.211 9.238 1.108 3.976 5.233 6.326 9.238 5.211 30.347-8.459 51.542-36.393 51.542-67.929v-13.583l58.851 58.851c9.652 9.652 25.358 9.653 35.01 0l12.462-12.462c12.873-12.875 12.873-33.821 0-46.694zm-121.324-159.387v38.064l-53.178-53.178h38.064c8.334-.001 15.114 6.78 15.114 15.114zm-109.638-145.377h86.634c3.595 0 6.036 3.735 4.51 6.971-7.094 15.047-10.258 26.195-10.258 36.147 0 25.988 18.643 27.652 18.643 63.921 0 2.868-.235 5.72-.687 8.538-3.893-.562-1.395-.203-57.383-.314l-44.644-44.644c5.213-9.121 8.932-16.047 8.932-27.5 0-9.951-3.164-21.099-10.258-36.147-1.525-3.239.918-6.972 4.511-6.972zm3.788 194.176c0 5.636-4.585 10.222-10.222 10.222h-107.967c-5.636 0-10.222-4.586-10.222-10.222v-15.769c0-5.637 4.586-10.222 10.222-10.222h102.157l16.032 16.032zm216.567 146.674-12.462 12.462c-3.804 3.805-9.994 3.804-13.797 0-11.333-11.333-272.386-272.386-272.486-272.487-3.804-3.804-3.804-9.993 0-13.797l12.462-12.462c7.043-7.042 18.437-7.042 25.479 0l260.804 260.804c7.025 7.025 7.025 18.455 0 25.48zm-219.25-90.814c-11.725 0-21.265 9.539-21.265 21.265 0 4.142 3.358 7.5 7.5 7.5s7.5-3.358 7.5-7.5c0-3.455 2.811-6.265 6.265-6.265 3.455 0 6.265 2.81 6.265 6.265 0 4.142 3.358 7.5 7.5 7.5s7.5-3.358 7.5-7.5c0-11.726-9.539-21.265-21.265-21.265zm-52.575 32.426c-2.259 2.593-5.52 4.08-8.947 4.08s-6.688-1.487-8.947-4.08c-2.723-3.123-7.459-3.447-10.582-.727-3.123 2.722-3.448 7.459-.727 10.582 5.109 5.862 12.492 9.224 20.256 9.224s15.146-3.362 20.255-9.224c2.721-3.123 2.396-7.86-.727-10.582-3.123-2.721-7.859-2.396-10.581.727z"/></g></svg>