<svg id="Capa_1" enable-background="new 0 0 512.042 512.042" height="512" viewBox="0 0 512.042 512.042" width="512" xmlns="http://www.w3.org/2000/svg"><g><path d="m388.608 187.516c-14.972 0-27.109-12.137-27.109-27.109v-51.674c0-18.018-14.658-32.676-32.676-32.676h-145.616c-18.018 0-32.676 14.658-32.676 32.676v51.674c0 14.972-12.137 27.109-27.109 27.109s-27.109-12.137-27.109-27.109v-51.674c0-47.914 38.981-86.895 86.895-86.895h145.617c47.914 0 86.894 38.981 86.894 86.895v51.674c-.001 14.971-12.138 27.109-27.111 27.109z" fill="#59636f"/><path d="m299.109 14.148h-86.188c-10.162 0-18.4 8.238-18.4 18.4v32.798c0 10.162 8.238 18.4 18.4 18.4h86.188c10.162 0 18.4-8.238 18.4-18.4v-32.798c0-10.162-8.238-18.4-18.4-18.4z" fill="#f6ee86"/><path d="m489.464 226.818h-466.898v194.993c0 42.02 34.063 76.083 76.083 76.083h314.733c42.02 0 76.083-34.064 76.083-76.083v-194.993z" fill="#e0b799"/><path d="m22.565 226.818v138.114c18.878 15.07 42.513 23.551 67.4 23.551h93.552c21.359 12.318 46.12 19.372 72.498 19.372s51.139-7.054 72.498-19.372h93.552c24.887 0 48.522-8.481 67.4-23.551v-138.114z" fill="#d99a84"/><path d="m422.065 348.484h-332.1c-22.849 0-44.177-11.456-56.792-30.508-16.734-25.271-25.658-54.91-25.658-85.219v-10.637c0-34.084 27.63-61.714 61.714-61.714h373.573c34.083 0 61.714 27.63 61.714 61.714v10.636c0 30.31-8.924 59.948-25.658 85.219-12.617 19.052-33.944 30.509-56.793 30.509z" fill="#e0b799"/><path d="m110.45 262.29c0 32.233 10.538 62.047 28.339 86.193h234.451c17.802-24.146 28.34-53.96 28.34-86.193 0-39.632-15.928-75.609-41.709-101.884h-207.712c-25.781 26.276-41.709 62.253-41.709 101.884z" fill="#d99a84"/><path d="m174.077 324.016h-44.771c-6.963 0-12.608 5.645-12.608 12.609v23.719c0 6.964 5.645 12.609 12.608 12.609h44.771c6.964 0 12.609-5.645 12.609-12.609v-23.719c-.001-6.965-5.646-12.609-12.609-12.609z" fill="#f6ee86"/><path d="m337.953 324.016h44.771c6.964 0 12.609 5.645 12.609 12.609v23.719c0 6.964-5.645 12.609-12.609 12.609h-44.771c-6.964 0-12.608-5.645-12.608-12.609v-23.719c0-6.965 5.645-12.609 12.608-12.609z" fill="#f6ee86"/><g><ellipse cx="256.015" cy="262.29" fill="#88d37f" rx="115.565" ry="115.565" transform="matrix(.707 -.707 .707 .707 -110.482 257.853)"/><path d="m338.548 343.171c-154.393-3.186-159.49-141.684-130.271-186.153-40.006 18.17-67.828 58.472-67.828 105.273 0 63.825 51.74 115.565 115.565 115.565 32.334-.001 61.56-13.284 82.534-34.685z" fill="#5ec682"/><ellipse cx="256.015" cy="262.29" fill="#fbf1cf" rx="80.943" ry="80.943" transform="matrix(.986 -.17 .17 .986 -40.782 47.229)"/><path d="m194.359 209.853c-12.025 14.126-19.287 32.432-19.287 52.438 0 44.703 36.239 80.943 80.943 80.943 11.586 0 22.601-2.44 32.567-6.825-72.445-19.807-95.363-78.921-94.223-126.556z" fill="#fae0bd"/></g><path d="m256.015 173.848c-48.768 0-88.443 39.675-88.443 88.443s39.675 88.443 88.443 88.443 88.442-39.675 88.442-88.443-39.675-88.443-88.442-88.443zm0 161.885c-40.497 0-73.443-32.946-73.443-73.443s32.946-73.443 73.443-73.443c40.496 0 73.442 32.946 73.442 73.443s-32.946 73.443-73.442 73.443zm26.234-80.943h-23.128l-26.22-26.22c-2.929-2.929-7.678-2.929-10.606 0-2.929 2.929-2.929 7.678 0 10.606l28.417 28.417c1.406 1.407 3.314 2.197 5.303 2.197h26.234c4.143 0 7.5-3.358 7.5-7.5s-3.357-7.5-7.5-7.5zm160.552-101.884h-19.583v-44.174c0-17.354-4.772-34.333-13.8-49.101-2.161-3.536-6.777-4.648-10.311-2.487-3.534 2.16-4.648 6.776-2.487 10.311 7.588 12.413 11.599 26.686 11.599 41.278v44.174h-39.219v-44.174c0-22.153-18.022-40.176-40.176-40.176h-4.021c.37-2.977.132-1.724.206-36.008 0-1.088-.075-2.157-.206-3.21h4.021c16.355 0 32.072 4.956 45.449 14.331 1.311.918 2.811 1.359 4.298 1.359 2.363 0 4.689-1.114 6.148-3.196 2.378-3.392 1.555-8.069-1.837-10.446-15.913-11.153-34.607-17.048-54.059-17.048h-11.318c-4.697-4.745-11.209-7.69-18.397-7.69h-86.188c-7.188 0-13.7 2.945-18.396 7.69h-11.318c-52.049 0-94.395 42.345-94.395 94.395v44.174h-19.582c-38.165 0-69.214 31.049-69.214 69.214.541 6.038-3.401 39.13 15.051 78.801v120.89c0 40.469 28.861 75.059 68.625 82.247 4.072.736 7.977-1.966 8.714-6.046.737-4.076-1.97-7.978-6.046-8.714-32.618-5.897-56.293-34.279-56.293-67.486v-95.302c7.301 9.492 16.63 16.984 27.166 22.04v73.002c0 22.981 18.697 41.678 41.678 41.678h306.759c27.09 0 49.129-22.039 49.129-49.129v-65.551c10.536-5.056 19.865-12.548 27.166-22.04v95.303c0 37.817-30.767 68.583-68.583 68.583h-292.946c-4.142 0-7.5 3.358-7.5 7.5s3.358 7.5 7.5 7.5h292.946c46.088 0 83.583-37.496 83.583-83.583v-120.89c18.538-39.856 14.508-72.752 15.051-78.801 0-38.168-31.049-69.218-69.214-69.218zm-240.78-120.359c0-6.01 4.89-10.9 10.9-10.9h86.188c6.011 0 10.9 4.89 10.9 10.9v32.798c0 6.01-4.89 10.9-10.9 10.9h-86.188c-6.01 0-10.9-4.89-10.9-10.9zm10.9 58.699h86.188c7.188 0 13.699-2.945 18.397-7.69h11.318c13.882 0 25.176 11.294 25.176 25.176v44.174h-41.633c-16.894-8.738-36.056-13.681-56.351-13.681-20.296 0-39.458 4.942-56.351 13.681h-41.635v-44.174c0-13.882 11.294-25.176 25.176-25.176h11.318c4.698 4.744 11.209 7.69 18.397 7.69zm43.094 279.109c-59.587 0-108.065-48.478-108.065-108.065s48.478-108.065 108.065-108.065c59.588 0 108.065 48.478 108.065 108.065s-48.477 108.065-108.065 108.065zm126.71-38.839c2.816 0 5.108 2.292 5.108 5.108v23.719c0 2.817-2.292 5.108-5.108 5.108h-44.772c-2.816 0-5.108-2.292-5.108-5.108v-1.992c9.554-7.657 17.947-16.704 24.866-26.836h25.014zm-203.54 26.835v1.992c0 2.817-2.292 5.108-5.109 5.108h-44.771c-2.817 0-5.108-2.292-5.108-5.108v-23.719c0-2.817 2.292-5.108 5.108-5.108h25.014c6.919 10.132 15.312 19.178 24.866 26.835zm-75.373-249.619c0-43.778 35.616-79.395 79.395-79.395h4.02c-.131 1.053-.206 2.122-.206 3.21.074 34.357-.163 33.038.206 36.008h-4.02c-22.153 0-40.176 18.023-40.176 40.176v44.174h-39.218v-44.173zm-64.386 205.103c-29.166-44.046-23.733-86.573-24.411-91.715 0-29.893 24.32-54.214 54.214-54.214h107.908c-26.989 22.593-44.187 56.516-44.187 94.384 0 19.45 4.542 37.856 12.611 54.225h-16.256c-11.088 0-20.108 9.021-20.108 20.108v4.359h-19.232c-20.17.001-39.182-9.996-50.539-27.147zm400.372 100.264c0 18.819-15.31 34.129-34.129 34.129h-306.759c-14.71 0-26.678-11.968-26.678-26.678v-67.67c5.737 1.378 11.681 2.103 17.732 2.103h19.232v4.36c0 11.088 9.021 20.108 20.108 20.108h44.771c8.452 0 15.689-5.248 18.659-12.65 18.502 11.138 40.155 17.554 63.28 17.554s44.778-6.416 63.28-17.554c2.97 7.403 10.207 12.651 18.658 12.651h44.772c11.088 0 20.108-9.021 20.108-20.108v-4.36c15.358-.357 23.725 1.077 36.965-2.103v60.218zm32.806-100.264c-11.162 16.855-30.007 27.148-50.539 27.148h-19.231v-4.359c0-11.088-9.021-20.108-20.108-20.108h-16.256c24.638-49.982 12.705-111.542-31.576-148.609h107.908c29.894 0 54.214 24.32 54.214 54.214-.695 5.257 4.945 47.379-24.412 91.714z"/></g></svg>