<svg id="Capa_1" enable-background="new 0 0 511.94 511.94" height="512" viewBox="0 0 511.94 511.94" width="512" xmlns="http://www.w3.org/2000/svg"><g><path d="m488.054 346.594-141.486 141.486c-21.888 21.888-57.375 21.888-79.263 0l-243.419-243.419c-21.888-21.888-21.888-57.375 0-79.263l141.486-141.486c21.888-21.888 57.375-21.888 79.263 0l243.419 243.419c21.888 21.887 21.888 57.375 0 79.263z" fill="#59636f"/><path d="m184.338 53.245-38.36 38.36c-4.451 4.451-5.694 11.039-3.624 16.983 2.974 8.541-.571 18.029-8.166 25.623-7.595 7.595-17.082 11.14-25.623 8.166-5.945-2.07-12.532-.827-16.983 3.624l-38.36 38.36c-11.414 11.414-11.414 29.919 0 41.332l233.048 233.053c11.413 11.414 29.919 11.414 41.332 0l131.118-131.118c11.414-11.414 11.414-29.919 0-41.332l-233.05-233.051c-11.414-11.413-29.919-11.413-41.332 0z" fill="#b0ade2"/><path d="m243.535 308.399c-8.199 0-16.292-2.202-23.401-6.369-10.646-6.238-27.092-6.238-32.496-6.238-44.738 0-81.135-36.397-81.135-81.135s36.396-81.135 81.135-81.135c5.404 0 21.852 0 32.498-6.239 7.107-4.165 15.2-6.368 23.4-6.368 19.126 0 35.953 11.503 42.87 29.306 1.606 4.132 3.077 8.383 4.398 12.699 23.474 5.5 41.007 26.609 41.007 51.737s-17.533 46.237-41.007 51.737c-1.322 4.316-2.792 8.567-4.398 12.7-6.918 17.802-23.746 29.305-42.871 29.305z" fill="#a09cdc"/><path d="m184.338 53.245-38.361 38.36c-4.451 4.451-5.694 11.039-3.624 16.983 2.974 8.541-.571 18.029-8.166 25.623-7.595 7.595-17.082 11.14-25.623 8.166-5.945-2.07-12.532-.827-16.983 3.624l-38.36 38.36c-11.414 11.414-11.414 29.919 0 41.332l40.303 40.303c40.859 3.875 87.326-13.079 123.348-49.102s52.977-82.489 49.102-123.348l-40.304-40.301c-11.414-11.413-29.919-11.413-41.332 0z" fill="#e7889d"/><path d="m264.823 126.073c-6.411-3.325-13.665-5.157-21.288-5.157-8.199 0-16.292 2.202-23.4 6.368-10.646 6.239-27.094 6.239-32.498 6.239-44.738 0-81.135 36.397-81.135 81.135 0 19.07 6.63 36.611 17.683 50.476 32.241-4.673 65.449-20.999 92.686-48.237 26.713-26.713 42.929-59.17 47.952-90.824z" fill="#e16e7e"/><g><g><ellipse cx="276.408" cy="395.01" fill="#fff" rx="30.938" ry="24.637" transform="matrix(.707 -.707 .707 .707 -198.357 311.148)"/><ellipse cx="394.985" cy="276.433" fill="#fff" rx="30.938" ry="24.637" transform="matrix(.707 -.707 .707 .707 -79.78 360.261)"/><path d="m333.923 310.724c-7.177-7.177-18.193-7.795-24.607-1.382-6.413 6.413-5.795 17.43 1.382 24.607s18.194 7.795 24.607 1.382c6.413-6.414 5.795-17.43-1.382-24.607z" fill="#4e5660"/></g></g><g><circle cx="278.678" cy="214.657" fill="#f6ee86" r="23.132"/><path d="m268.812 214.657c0-20.749-4.988-39.719-10.37-53.57-3.595-9.252-14.577-12.938-23.14-7.919-15.199 8.906-33.43 10.355-47.665 10.355-28.241 0-51.135 22.894-51.135 51.135s22.894 51.135 51.135 51.135c14.234 0 32.466 1.449 47.665 10.355 8.564 5.018 19.546 1.332 23.14-7.919 5.382-13.853 10.37-32.823 10.37-53.572z" fill="#f6ee86"/><path d="m180.176 164.07c-24.704 3.613-43.674 24.881-43.674 50.587 0 28.241 22.894 51.135 51.135 51.135 8.169 0 17.655.486 27.128 2.576-38.832-32.037-44.252-72.77-34.589-104.298z" fill="#f2d98d"/><path d="m221.582 159.134c5.669 13.993 11.148 33.778 11.148 55.524 0 21.745-5.479 41.53-11.148 55.524 4.712 1.471 9.343 3.401 13.72 5.966 8.564 5.018 19.546 1.332 23.141-7.919 5.382-13.851 10.37-32.822 10.37-53.57 0-20.749-4.988-39.719-10.37-53.57-3.595-9.252-14.577-12.938-23.141-7.92-4.377 2.563-9.008 4.493-13.72 5.965z" fill="#e0b799"/></g><path d="m369.94 57.735c49.726 0 90.181 40.455 90.181 90.181 0 4.142 3.357 7.5 7.5 7.5s7.5-3.358 7.5-7.5c0-57.997-47.184-105.181-105.181-105.181-4.143 0-7.5 3.358-7.5 7.5s3.357 7.5 7.5 7.5zm-114.079 298.807c-2.93-2.929-7.678-2.929-10.607 0s-2.929 7.678 0 10.606l8.485 8.485c2.93 2.929 7.678 2.929 10.607 0s2.929-7.678 0-10.607zm114.079-257.206c26.786 0 48.579 21.792 48.579 48.58 0 4.142 3.358 7.5 7.5 7.5 4.143 0 7.5-3.358 7.5-7.5 0-35.058-28.521-63.58-63.579-63.58-4.143 0-7.5 3.358-7.5 7.5s3.357 7.5 7.5 7.5zm-33.928 387.999c-19.171 14.378-46.429 12.417-63.403-4.558l-243.419-243.419c-18.929-18.929-18.929-49.728 0-68.657l118.706-118.706c2.929-2.929 2.929-7.678 0-10.606-2.93-2.929-7.678-2.929-10.607 0l-118.707 118.706c-24.776 24.777-24.776 65.092 0 89.87l243.419 243.418c12.261 12.26 28.617 18.534 45.037 18.534 13.339 0 26.722-4.143 37.974-12.582 3.314-2.485 3.985-7.187 1.5-10.5-2.484-3.314-7.186-3.985-10.5-1.5zm157.346-225.308-243.419-243.418c-23.683-23.683-61.879-24.883-86.96-2.735-3.105 2.742-3.398 7.481-.657 10.586s7.48 3.399 10.587.657c19.154-16.915 48.332-15.993 66.423 2.099l243.418 243.418c18.929 18.929 18.929 49.728 0 68.657l-121.914 121.914c-2.929 2.929-2.929 7.678 0 10.606 1.465 1.464 3.385 2.197 5.304 2.197s3.839-.732 5.304-2.197l121.914-121.914c24.776-24.777 24.776-65.093 0-89.87zm-382.328-126.731c-8.852-3.081-18.337-1.013-24.753 5.404l-38.359 38.36c-14.353 14.351-14.356 37.583-.001 51.938l40.306 40.306c.003.003.006.006.009.009l192.736 192.736c7.159 7.16 16.564 10.74 25.969 10.74 9.405-.001 18.811-3.58 25.971-10.74l131.116-131.118c6.938-6.936 10.758-16.159 10.758-25.969s-3.82-19.033-10.757-25.969c-58.87-58.87-205.583-205.583-233.051-233.051-14.318-14.319-37.62-14.32-51.938 0-.001 0-.001 0-.001 0l-38.36 38.36c-6.415 6.417-8.485 15.901-5.403 24.754 1.854 5.326-.532 12-6.387 17.854-5.855 5.853-12.529 8.241-17.855 6.386zm162.787-23.297 179.6 179.6c4.104 4.103 6.363 9.56 6.363 15.363s-2.26 11.259-6.364 15.363l-131.116 131.118c-8.471 8.471-22.256 8.472-30.727 0l-179.587-179.588c14.812-.758 29.989-3.915 44.811-9.359 8.966 5.569 19.532 8.796 30.841 8.796 14.901 0 30.966 1.763 43.872 9.326 12.581 7.369 28.673 1.839 33.923-11.674 2.653-6.825 5.569-15.767 7.718-26.169 18.96 3.485 36.16-11.178 36.16-30.118 0-18.973-17.233-33.598-36.16-30.119-2.599-12.583-6.881-24.661-8.556-28.055 5.366-14.713 8.472-29.776 9.222-44.484zm-129.815 102.658c0-24.061 19.574-43.635 43.635-43.635 8.135 0 18.564-.43 29.328-2.881 10.982 31.279 10.989 61.731 0 93.032-10.764-2.451-21.193-2.881-29.328-2.881-24.061 0-43.635-19.575-43.635-43.635zm131.471-15.294c9.716-2.037 18.837 5.4 18.837 15.295 0 9.884-9.109 17.334-18.837 15.294.525-4.904.839-10.01.839-15.294s-.314-10.391-.839-15.295zm-24.022 66.148c-1.946 5.013-7.837 6.815-12.357 4.165-2.558-1.499-5.183-2.783-7.836-3.917 11.934-34.037 11.953-68.112 0-102.204 8.275-3.539 8.509-5.136 12.294-5.136 3.366 0 6.567 1.956 7.899 5.384 12.764 32.848 13.402 67.222 0 101.708zm-111.961-125.995c10.02-10.02 13.737-22.503 9.945-33.394-1.174-3.371-.468-6.901 1.845-9.213l38.359-38.36c8.472-8.47 22.257-8.471 30.727 0l38.346 38.346c1.106 15.594-.998 32.085-6.13 48.323-6.891-2.856-14.664-2.277-21.073 1.479-12.893 7.555-29.071 9.326-43.872 9.326-32.331 0-58.635 26.304-58.635 58.635 0 14.723 5.467 28.185 14.461 38.493-15.683 4.746-31.552 6.653-46.595 5.588l-38.346-38.346c-8.489-8.49-8.493-22.234.001-30.726l38.36-38.36c2.255-2.256 5.764-3.045 9.213-1.845 10.891 3.792 23.375.074 33.394-9.946zm165.905 199.736c10.178 10.179 25.915 10.68 35.214 1.382 9.327-9.328 8.707-25.125-1.382-35.213-10.091-10.09-25.887-10.709-35.215-1.382-9.327 9.327-8.706 25.124 1.383 35.213zm9.223-24.606c3.733-3.732 10.081-2.539 14.001 1.381 4.241 4.241 4.861 10.521 1.382 14-3.148 3.15-9.412 3.206-13.999-1.382-4.241-4.24-4.862-10.521-1.384-13.999zm50.384-50.275c2.927 2.929 7.677 2.929 10.607 0 2.929-2.929 2.929-7.678-.001-10.606l-8.485-8.485c-2.928-2.93-7.677-2.929-10.606 0s-2.929 7.678.001 10.606z"/></g></svg>