<svg id="Capa_1" enable-background="new 0 0 512 512" height="512" viewBox="0 0 512 512" width="512" xmlns="http://www.w3.org/2000/svg"><g><path d="m438.126 382.077c-95.351 6.723-202.772-55.868-320.295-30.658v-224.007c116.112-24.908 222.362 35.89 316.855 30.87 17.315-.92 31.807 13.007 31.807 30.347v163.121c0 15.999-12.408 29.202-28.367 30.327z" fill="#fbf1cf"/><path d="m191.577 121.743c-24.111-1.082-48.698.296-73.745 5.669v224.008c59.685-12.803 116.762-2.96 170.978 8.949-66.959-49.66-100.733-171.153-97.233-238.626z" fill="#fae0bd"/><path d="m350.272 261.886v112.004c30.472 6.121 59.925 10.222 88.307 8.155 15.781-1.15 27.913-14.463 27.913-30.286v-85.969c-36.85 8.819-75.632 4.249-116.22-3.904z" fill="#59636f"/><path d="m234.052 237.971c-37.523-5.544-76.288-7.121-116.221 1.445v112.004c39.933-8.566 78.698-6.99 116.221-1.445z" fill="#59636f"/><path d="m234.052 349.975v-56.705c-9.925-18.379-18.165-38.26-24.671-58.29-29.778-2.758-60.306-2.265-91.549 4.437v112.003c39.932-8.566 78.697-6.99 116.22-1.445z" fill="#455060"/><path d="m234.052 125.967v112.004c40.198 5.94 78.971 16.433 116.22 23.915v-112.003c-37.249-7.483-76.022-17.976-116.22-23.916z" fill="#59636f"/><path d="m79.835 504.5h17.567c11.283 0 20.429-9.146 20.429-20.429v-378.543c0-7.464-6.05-13.514-13.514-13.514h-31.397c-7.464 0-13.514 6.05-13.514 13.514v378.543c0 11.283 9.146 20.429 20.429 20.429z" fill="#e0b799"/><path d="m59.406 194.927h58.425v38.754h-58.425z" fill="#d99a84"/><path d="m59.406 303.504h58.425v38.754h-58.425z" fill="#d99a84"/><path d="m121.393 203.21h-65.549c-5.709 0-10.337-4.628-10.337-10.337v-18.079c0-5.709 4.628-10.337 10.337-10.337h65.549c5.709 0 10.337 4.628 10.337 10.337v18.079c0 5.709-4.628 10.337-10.337 10.337z" fill="#59636f"/><path d="m121.393 311.788h-65.549c-5.709 0-10.337-4.628-10.337-10.337v-18.079c0-5.709 4.628-10.337 10.337-10.337h65.549c5.709 0 10.337 4.628 10.337 10.337v18.079c0 5.709-4.628 10.337-10.337 10.337z" fill="#59636f"/><ellipse cx="88.618" cy="50.611" fill="#f6ee86" rx="43.111" ry="43.111" transform="matrix(.707 -.707 .707 .707 -9.832 77.486)"/><path d="m88.618 93.723c16.775 0 31.302-9.588 38.428-23.577-43.125 9.109-66.706-43.196-56.113-58.85-14.987 6.753-25.426 21.81-25.426 39.315 0 23.81 19.302 43.112 43.111 43.112z" fill="#f2d98d"/><path d="m120.997 128.764h-64.758c-4.794 0-8.68-3.886-8.68-8.68v-19.78c0-11.226 9.101-20.327 20.327-20.327h41.464c11.226 0 20.327 9.101 20.327 20.327v19.78c.001 4.794-3.886 8.68-8.68 8.68z" fill="#f6ee86"/><path d="m450.348 153.471c-3.841-1.557-8.212.296-9.768 4.135s.296 8.212 4.135 9.768c8.674 3.514 14.278 11.858 14.278 21.257v71.142c-20.027 4.091-48.471 5.995-101.221-4.061v-96.727c18.353 3.451 36.323 6.022 54.109 6.83.116.005.232.008.347.008 3.985 0 7.304-3.138 7.486-7.16.188-4.138-3.014-7.645-7.151-7.832-82.48-3.747-174.393-47.918-275.386-34.363v-16.162c0-7.584-3.053-14.466-7.991-19.49 6.445-8.677 10.042-19.295 10.042-30.203.002-27.909-22.703-50.613-50.61-50.613s-50.611 22.704-50.611 50.611c0 10.908 3.597 21.526 10.043 30.203-4.937 5.024-7.99 11.906-7.99 19.49v19.78c0 7.419 5.025 13.671 11.846 15.573v21.753c-7.944 1.8-13.898 8.904-13.898 17.384v18.079c0 8.48 5.954 15.584 13.898 17.384v55.73c-7.944 1.8-13.898 8.904-13.898 17.384v18.08c0 8.48 5.954 15.584 13.898 17.384v140.866c0 4.142 3.357 7.5 7.5 7.5s7.5-3.358 7.5-7.5v-140.413h43.426v32.167.048 132.568c0 7.129-5.8 12.929-12.929 12.929h-17.568c-4.636 0-8.943-2.505-11.243-6.539-2.052-3.598-6.632-4.853-10.23-2.801-3.599 2.052-4.853 6.632-2.801 10.23 4.961 8.704 14.263 14.11 24.274 14.11h17.567c15.4 0 27.929-12.529 27.929-27.929v-126.513c113.141-21.464 218.073 38.717 313.322 32.001 19.816-1.398 35.34-18.005 35.34-37.809v-163.12c0-15.538-9.281-29.339-23.645-35.159zm-326.119 147.98c0 1.564-1.272 2.837-2.837 2.837h-65.547c-1.564 0-2.838-1.272-2.838-2.837v-18.08c0-1.564 1.273-2.837 2.838-2.837h65.548c1.564 0 2.837 1.272 2.837 2.837v18.08zm-57.324-35.917v-54.824h43.426v54.824zm57.324-72.661c0 1.564-1.272 2.837-2.837 2.837h-65.547c-1.564 0-2.838-1.273-2.838-2.837v-18.079c0-1.564 1.273-2.837 2.838-2.837h65.548c1.564 0 2.837 1.273 2.837 2.837v18.079zm-67.99-71.609c-.65 0-1.18-.529-1.18-1.18v-19.78c0-4.988 2.868-9.309 7.036-11.43.048-.021.093-.046.141-.068 1.708-.843 3.621-1.329 5.65-1.329h41.464c7.073 0 12.827 5.754 12.827 12.827v19.78c0 .65-.529 1.18-1.181 1.18zm54.092 15v20.693h-43.426v-20.693zm5.719-62.966c-2.147-.533-4.39-.82-6.699-.82h-41.464c-2.309 0-4.552.288-6.699.82-5.298-6.364-8.181-14.269-8.181-22.686 0-19.637 15.975-35.612 35.611-35.612s35.611 15.975 35.611 35.611c0 8.418-2.882 16.323-8.179 22.687zm110.502 268.019c-32.746-4.289-66.363-5.244-101.221 1.003v-23.486c7.944-1.8 13.898-8.904 13.898-17.384v-18.08c0-8.481-5.955-15.584-13.898-17.384v-20.43c30.701-5.83 63.191-6.164 101.221-1.059zm0-111.958c-37.688-4.902-70.278-4.585-101.221.959v-20.06c7.944-1.8 13.898-8.904 13.898-17.385v-18.079c0-8.481-5.955-15.584-13.898-17.384v-21.753c2.235-.623 4.281-1.702 6.016-3.15 32.493-5.359 64.18-4.214 95.204-.036v96.888zm116.22 135.326c-32.756-6.92-66.366-15.584-101.221-21.18v-96.763c34.847 5.718 67.153 14.165 101.221 21.253zm0-112.005c-32.218-6.803-65.971-15.492-101.221-21.124v-96.834c34.649 5.693 68.237 14.417 101.221 21.285zm116.221 99.07c0 11.965-9.397 22-21.395 22.846-25.553 1.801-52.168-1.556-79.826-6.875v-96.734c33.28 6.264 67.776 10.041 101.221 4.01z"/></g></svg>