<svg id="Capa_1" enable-background="new 0 0 512 512" height="512" viewBox="0 0 512 512" width="512" xmlns="http://www.w3.org/2000/svg"><g><path d="m283.9 50.914h66.203v47.267h-66.203z" fill="#b0ade2"/><path d="m369.479 98.181h-104.956c-14.04 0-25.422 11.382-25.422 25.422v35.653h155.8v-35.653c0-14.04-11.381-25.422-25.422-25.422z" fill="#f6ee86"/><path d="m302.138 98.181h-37.615c-14.04 0-25.422 11.382-25.422 25.422v35.653h80.101c-15.242-8.796-18.569-37.038-17.064-61.075z" fill="#f2d98d"/><path d="m430.322 249.609v-44.569c0-32.073-26-58.074-58.074-58.074h-110.493c-32.073 0-58.074 26-58.074 58.074v44.569c0 10.747 5.257 20.815 14.077 26.957l6.07 4.227c8.82 6.142 14.077 16.21 14.077 26.957v18.928c0 10.748-5.258 20.815-14.077 26.957l-6.07 4.227c-8.82 6.142-14.077 16.21-14.077 26.957v77.622c0 23.228 18.83 42.058 42.058 42.058h142.524c23.228 0 42.058-18.83 42.058-42.058v-77.622c0-10.747-5.258-20.815-14.077-26.957l-6.07-4.227c-8.82-6.142-14.077-16.21-14.077-26.957v-18.928c0-10.748 5.257-20.815 14.077-26.957l6.07-4.227c8.82-6.141 14.078-16.209 14.078-26.957z" fill="#f6ee86"/><path d="m310.54 426.126v-99.604c0-54.863-44.634-99.497-99.497-99.497h-7.362v22.584c0 10.747 5.257 20.815 14.077 26.957l6.07 4.227c8.82 6.142 14.077 16.21 14.077 26.957v18.928c0 10.748-5.258 20.815-14.077 26.957l-6.07 4.227c-8.82 6.142-14.077 16.21-14.077 26.957v77.622c0 19.777 13.654 36.357 32.048 40.85 3.9-6.241 6.613-13.296 7.819-20.848h10.674c31.054 0 56.318-25.263 56.318-56.317z" fill="#f2d98d"/><path d="m217.759 276.567 4.195 2.921h190.096l4.195-2.921c8.82-6.142 14.077-16.21 14.077-26.957v-44.57c0-32.073-26-58.074-58.074-58.074h-110.493c-32.073 0-58.074 26-58.074 58.074v44.569c0 10.748 5.258 20.816 14.078 26.958z" fill="#b0ade2"/><path d="m217.759 276.567 4.195 2.921h76.746c-16.811-31.205-49.797-52.463-87.657-52.463h-7.362v22.584c0 10.748 5.258 20.816 14.078 26.958z" fill="#a09cdc"/><path d="m203.681 389.171v73.271c0 23.228 18.83 42.058 42.058 42.058h142.524c23.228 0 42.058-18.83 42.058-42.058v-73.271z" fill="#b0ade2"/><path d="m203.681 389.171v73.271c0 19.777 13.654 36.357 32.048 40.85 3.9-6.241 6.613-13.296 7.819-20.848h10.674c31.054 0 56.317-25.264 56.317-56.317v-36.955h-106.858z" fill="#a09cdc"/><path d="m211.043 257.025h-59.867c-38.382 0-69.498 31.115-69.498 69.497v147.008c0 14.535 11.783 26.318 26.318 26.318h79.939c14.535 0 26.318-11.783 26.318-26.318v-21.087h39.97c14.535 0 26.318-11.783 26.318-26.318v-99.603c-.001-38.382-31.116-69.497-69.498-69.497z" fill="#cde9fa"/><path d="m280.54 401.608c-35.841-8.892-59.825-57.786-66.287-86.396v137.232h39.97c14.535 0 26.318-11.783 26.318-26.318v-24.518z" fill="#a2ddfd"/><path d="m342.884 7.5h-51.766c-9.877 0-18.602 6.432-21.525 15.866l-2.694 8.697c-2.9 9.36 4.096 18.852 13.895 18.852h72.413c9.799 0 16.795-9.492 13.895-18.852l-2.694-8.697c-2.922-9.434-11.647-15.866-21.524-15.866z" fill="#f2d98d"/><g><g fill="#fff"><ellipse cx="237.445" cy="232.589" rx="29.355" ry="23.377"/><ellipse cx="396.558" cy="232.589" rx="29.355" ry="23.377"/></g></g><path d="m414.461 286.947c.31-.216 1.493-1.039 6.069-4.227 10.828-7.539 17.292-19.917 17.292-33.111v-44.569c0-25.288-14.399-47.264-35.42-58.199v-23.238c0-18.153-14.769-32.922-32.922-32.922h-11.876v-32.707c12.367-2.467 20.645-15.28 16.664-28.131l-2.694-8.696c-3.919-12.649-15.449-21.147-28.69-21.147h-51.766c-13.241 0-24.771 8.498-28.689 21.146l-2.694 8.697c-3.979 12.844 4.291 25.661 16.664 28.13v32.707h-11.876c-18.153 0-32.922 14.769-32.922 32.922v23.135c-12.243 6.313-22.383 16.474-28.753 29.464-1.824 3.72-.288 8.213 3.432 10.036 3.719 1.824 8.212.289 10.036-3.431 8.428-17.187 25.693-28.34 45.439-28.34h110.493c27.886 0 50.574 22.688 50.574 50.573v44.569c0 8.289-4.061 16.065-10.863 20.803l-2.263 1.576h-144.353c-13.902-13.843-33.048-22.422-54.162-22.459v-36.05c0-4.143-3.358-7.5-7.5-7.5s-7.5 3.357-7.5 7.5v36.047h-45.005c-42.457 0-76.998 34.541-76.998 76.997v147.008c0 18.646 15.17 33.817 33.817 33.817h79.939c9.031 0 17.239-3.565 23.311-9.353 9.161 8.888 21.484 14.006 34.493 14.006h123.495c4.142 0 7.5-3.357 7.5-7.5s-3.358-7.5-7.5-7.5h-123.494c-10.045 0-19.512-4.371-26.042-11.855 3.125-8.518 1.687-14.25 2.055-25.202h32.47c18.647 0 33.818-15.171 33.818-33.817v-29.455h134.781v65.771c0 14.278-8.577 26.897-21.851 32.149-3.852 1.523-5.739 5.881-4.215 9.732 1.527 3.858 5.887 5.738 9.733 4.215 19.034-7.53 31.332-25.624 31.332-46.097v-77.622c0-13.194-6.464-25.572-17.291-33.111l-6.07-4.228c-6.802-4.736-10.863-12.513-10.863-20.802v-18.928c.001-8.288 4.063-16.065 10.865-20.803zm-140.397-252.665 2.694-8.696c1.961-6.332 7.733-10.586 14.361-10.586h51.766c6.628 0 12.399 4.254 14.361 10.585l2.694 8.697c1.406 4.538-1.979 9.132-6.731 9.132h-72.413c-4.751 0-8.139-4.593-6.732-9.132zm68.539 24.132v32.267h-51.203v-32.267zm44.798 82.84c-4.868-1.156-9.937-1.787-15.154-1.787h-110.492c-5.19 0-10.265.605-15.153 1.749v-17.614c0-9.882 8.04-17.922 17.922-17.922h104.956c9.882 0 17.922 8.04 17.922 17.922v17.652zm-114.361 284.872c0 10.376-8.442 18.817-18.818 18.817h-32.47v-129.731c0-4.143-3.358-7.5-7.5-7.5s-7.5 3.357-7.5 7.5v158.318c0 10.376-8.442 18.817-18.818 18.817h-79.939c-10.376 0-18.817-8.441-18.817-18.817v-147.008c0-34.186 27.812-61.997 61.998-61.997h59.867c34.186 0 61.997 27.812 61.997 61.997zm4.045-139.138h117.267c-6.749 11.248-5.628 21.694-5.755 22.724h-102.427c-1.819-8.13-4.914-15.783-9.085-22.724zm128.804 72.802 6.07 4.228c5.932 4.131 9.778 10.574 10.664 17.653h-134.583v-55.148c0-.607-.032-1.207-.046-1.811h100.603v1.967c0 13.194 6.464 25.572 17.292 33.111zm-18.939-149.705v-12c0-4.143-3.358-7.5-7.5-7.5s-7.5 3.357-7.5 7.5v12c0 4.142 3.358 7.5 7.5 7.5s7.5-3.358 7.5-7.5zm-245.669 136.379 16.587-16.587c2.929-2.93 2.929-7.678 0-10.608-2.929-2.928-7.678-2.928-10.607 0l-16.587 16.587c-2.929 2.93-2.929 7.678 0 10.607 2.93 2.93 7.678 2.929 10.607.001zm175.72-121.735c8.478 0 16.54-3.671 22.119-10.072 2.721-3.123 2.396-7.86-.727-10.582-3.123-2.721-7.86-2.396-10.582.727-2.729 3.132-6.669 4.928-10.81 4.928s-8.081-1.796-10.81-4.927c-2.721-3.123-7.459-3.448-10.582-.728-3.123 2.721-3.448 7.459-.727 10.581 5.579 6.402 13.64 10.073 22.119 10.073zm-54.948-14.644v-12c0-4.143-3.358-7.5-7.5-7.5s-7.5 3.357-7.5 7.5v12c0 4.142 3.358 7.5 7.5 7.5s7.5-3.358 7.5-7.5zm-94.375 178.085c-2.929-2.928-7.678-2.928-10.606 0-2.929 2.93-2.929 7.678 0 10.607l11.367 11.367c2.93 2.929 7.678 2.928 10.606 0 2.929-2.93 2.929-7.678 0-10.607zm-38.963 43.795-9.175 9.175c-2.929 2.93-2.929 7.678 0 10.608 2.93 2.929 7.678 2.928 10.607 0l9.175-9.175c2.929-2.93 2.929-7.678 0-10.607s-7.678-2.929-10.607-.001z"/></g></svg>