<svg id="Capa_1" enable-background="new 0 0 512.011 512.011" height="512" viewBox="0 0 512.011 512.011" width="512" xmlns="http://www.w3.org/2000/svg"><g><path d="m193.025 370.525c4.626 0 8.615-3.206 9.667-7.71 10.48-44.872 28.589-62.255 28.589-119.413 0-60.845-38.392-110.169-93.004-110.169s-104.763 52.891-104.763 120.345c0 41.825.77 77.5 3.535 107.912.465 5.116 4.742 9.035 9.879 9.035z" fill="#a2ddfd"/><path d="m88.965 148.077c-32.14 20.305-55.451 59.516-55.451 105.501 0 41.825.77 77.5 3.535 107.912.465 5.116 4.742 9.035 9.879 9.035h120.702c-113.411-28.287-108.857-170.319-78.665-222.448z" fill="#7acefa"/><path d="m56.956 409.696c-6.564 0-11.351 6.276-9.553 12.588 8.507 29.868 21.997 51.929 43.194 68.143 11.125 8.75 25.758 14.073 41.8 14.073 34.807 0 63.024-22.25 63.024-68.657 0-5.576.093-10.868.269-15.908.195-5.602-4.303-10.238-9.908-10.238h-128.826z" fill="#7acefa"/><g><path d="m318.986 244.792c-4.626 0-8.615-3.205-9.667-7.71-10.48-44.872-28.589-62.255-28.589-119.413 0-60.845 38.392-110.169 93.004-110.169s104.763 52.891 104.763 120.345c0 41.825-.77 77.5-3.535 107.912-.465 5.116-4.742 9.035-9.879 9.035z" fill="#88d37f"/><g fill="#5ec682"><path d="m348.936 11.115c-41.08 12.415-68.206 55.412-68.206 106.554 0 57.158 18.109 74.541 28.589 119.413 1.052 4.505 5.041 7.71 9.667 7.71h107.815c-91.855-20.296-112.477-196.485-77.865-233.677z"/><path d="m455.055 283.963c6.564 0 11.351 6.276 9.553 12.588-8.507 29.868-21.997 51.929-43.194 68.143-11.125 8.75-25.758 14.073-41.8 14.073-34.807 0-63.024-22.25-63.024-68.657 0-5.576-.093-10.868-.269-15.908-.195-5.602 4.303-10.238 9.908-10.238h128.826z"/></g></g><circle cx="289.704" cy="442.673" fill="#a2ddfd" r="43.361"/><ellipse cx="190.193" cy="54.105" fill="#88d37f" rx="43.361" ry="43.361" transform="matrix(.163 -.987 .987 .163 105.787 232.924)"/><path d="m138.988 189.936h-27.257c-4.142 0-7.5 3.357-7.5 7.5s3.358 7.5 7.5 7.5h19.757v120.025c0 4.143 3.358 7.5 7.5 7.5s7.5-3.357 7.5-7.5v-127.525c0-4.142-3.358-7.5-7.5-7.5zm51.205-84.97c28.044 0 50.86-22.816 50.86-50.861s-22.816-50.86-50.86-50.86c-28.045 0-50.861 22.816-50.861 50.86s22.816 50.861 50.861 50.861zm0-86.722c19.773 0 35.86 16.087 35.86 35.86 0 19.774-16.087 35.861-35.86 35.861-19.774 0-35.861-16.087-35.861-35.861 0-19.773 16.087-35.86 35.861-35.86zm-4.41 383.952h-128.827c-11.538 0-19.933 11.021-16.767 22.143 9.18 32.23 23.738 55.116 45.811 72.016 25.211 19.799 60.964 19.756 84.274 5.838 3.556-2.124 4.718-6.729 2.594-10.284-2.124-3.556-6.729-4.721-10.285-2.595-17.537 10.472-45.957 11.556-67.431-4.843-19.401-14.841-32.282-35.254-40.538-64.241-.431-1.511.739-3.033 2.34-3.033h128.826c1.334 0 2.461 1.086 2.413 2.478-.593 17.052.898 30.233-5.538 45.864-1.577 3.83.249 8.214 4.08 9.791 3.831 1.576 8.214-.251 9.79-4.08 7.654-18.589 6.071-34.162 6.659-51.053.344-9.822-7.509-18.001-17.401-18.001zm205.395-279.928c-45.072 64.4-49.274 62.785-46.95 70.341.779 2.532 2.723 4.484 5.332 5.354 4.648 1.551 62.414.647 67.451.584 4.142-.052 7.457-3.451 7.405-7.593-.054-4.272-3.656-7.526-7.594-7.405-18.815.235-39.361.357-51.92.262 6.727-8.811 18.812-24.717 38.565-52.941 7.637-10.912 12.59-21.103 14.72-30.292.148-.637.824-5.947.824-6.626 0-22.129-18.003-40.132-40.131-40.132-19.134 0-35.695 13.609-39.378 32.361-.798 4.064 1.85 8.007 5.914 8.805 4.061.798 8.006-1.85 8.805-5.914 2.305-11.734 12.676-20.252 24.66-20.252 13.708 0 24.889 11.032 25.128 24.686-.287.872.534 9.668-12.831 28.762zm-252.901 3.464c-60.853 0-112.263 58.546-112.263 127.846 0 48.62 1.066 81.096 3.566 108.592.822 9.039 8.28 15.855 17.349 15.855h146.097c8.134 0 15.113-5.553 16.97-13.504 10.311-44.146 28.786-62.37 28.786-121.119 0-67.083-43.208-117.67-100.505-117.67zm57.112 235.377c-.264 1.128-1.236 1.916-2.364 1.916h-146.096c-1.259 0-2.296-.952-2.41-2.214-2.457-27.021-3.504-59.091-3.504-107.233 0-65.06 48.402-112.846 97.263-112.846 48.746 0 85.504 44.139 85.504 102.67 0 55.77-17.662 71.757-28.393 117.707zm259.9-320.127c-2.643-3.188-7.372-3.633-10.561-.988-3.189 2.643-3.632 7.371-.989 10.561 17.578 21.209 27.258 48.658 27.258 77.291 0 48.143-1.048 80.213-3.504 107.232-.115 1.263-1.151 2.215-2.41 2.215h-146.097c-1.128 0-2.1-.788-2.364-1.917-10.758-46.062-28.393-61.865-28.393-117.707.001-58.531 36.76-102.669 85.505-102.669 15.082 0 30.39 4.505 44.268 13.028 3.531 2.168 8.148 1.064 10.316-2.466 2.168-3.529 1.064-8.148-2.466-10.315-16.241-9.974-34.263-15.247-52.118-15.247-57.297 0-100.504 50.587-100.504 117.669 0 58.732 18.489 77.035 28.786 121.119 1.857 7.951 8.835 13.505 16.97 13.505h146.097c9.068 0 16.526-6.816 17.349-15.857 2.5-27.495 3.566-59.971 3.566-108.591-.001-32.119-10.906-62.968-30.709-86.863zm-.234 235.482h-128.826c-9.847 0-17.747 8.133-17.404 17.999.175 5.037.264 10.302.264 15.648 0 79.227 77.307 91.622 116.921 60.512 22.074-16.899 36.632-39.785 45.811-72.016 3.161-11.1-5.202-22.143-16.766-22.143zm2.34 18.033c-9.083 31.892-22.866 50.496-40.618 64.303-22.574 17.756-57.843 16.253-76.435-2.272-10.633-10.594-16.253-26.645-16.253-46.418 0-17.055-.774-16.698.395-17.908.267-.275.847-.738 1.745-.738h128.826c1.602 0 2.77 1.524 2.34 3.033zm-167.691 97.316c-28.045 0-50.861 22.815-50.861 50.86s22.816 50.86 50.861 50.86 50.86-22.815 50.86-50.86-22.816-50.86-50.86-50.86zm0 86.72c-19.774 0-35.861-16.087-35.861-35.86s16.087-35.86 35.861-35.86c19.773 0 35.86 16.087 35.86 35.86s-16.087 35.86-35.86 35.86z"/></g></svg>