<svg id="Capa_1" enable-background="new 0 0 512 512" height="512" viewBox="0 0 512 512" width="512" xmlns="http://www.w3.org/2000/svg"><g><ellipse cx="373.543" cy="204.361" fill="#b0ade2" rx="130.958" ry="130.958" transform="matrix(.707 -.707 .707 .707 -35.097 323.991)"/><path d="m387.67 280.877c-37.4-37.4-67.743-42.985-82.502-42.985-15.871 0-29.964 5.704-40.756 16.495-2.724 2.724-5.448 5.485-8.153 8.281 21.45 43.062 65.907 72.651 117.283 72.651 16.844 0 32.944-3.183 47.735-8.976-7.308-15.094-18.762-30.621-33.607-45.466z" fill="#a09cdc"/><ellipse cx="373.543" cy="204.361" fill="#fbf1cf" rx="91.724" ry="91.724" transform="matrix(.707 -.707 .707 .707 -35.097 323.991)"/><path d="m387.67 280.877c-37.4-37.4-67.743-42.985-82.502-42.985-5.633 0-11.037.733-16.154 2.142 13.917 32.937 46.523 56.051 84.528 56.051 8.679 0 17.076-1.206 25.034-3.459-3.4-3.949-7.03-7.873-10.906-11.749z" fill="#fae0bd"/><path d="m285.626 275.6c-10.78 10.78-22.316 22.687-31.231 35.623-5.067 7.353-14.051 10.937-22.744 8.892-16.469-3.874-36.076-15.03-56.386-35.34s-31.467-39.917-35.34-56.386c-2.045-8.693 1.539-17.676 8.892-22.744 12.935-8.915 24.842-20.451 35.623-31.231 17.752-17.752 3.146-51.195-26.49-80.831s-63.08-44.243-80.832-26.491c-83.408 83.408-108.295 170.896 18.319 297.51s214.102 101.727 297.51 18.319c17.752-17.752 3.146-51.195-26.49-80.831s-63.079-44.242-80.831-26.49z" fill="#f6ee86"/><path d="m143.671 239.917c-1.622-3.98-2.878-7.837-3.746-11.529-2.044-8.693 1.54-17.676 8.892-22.744 12.935-8.915 24.842-20.451 35.623-31.231 17.752-17.752 3.146-51.195-26.49-80.831s-63.08-44.242-80.832-26.49c-83.408 83.408-108.295 170.896 18.319 297.51 23.459 23.459 45.572 41.705 66.568 55.354-43.496-56.281-33.177-140.338-18.334-180.039z" fill="#f2d98d"/><g><g fill="#eda1ab"><ellipse cx="68.688" cy="278.841" rx="23.377" ry="29.355" transform="matrix(.707 -.707 .707 .707 -177.054 130.243)"/><ellipse cx="181.198" cy="391.351" rx="23.377" ry="29.355" transform="matrix(.707 -.707 .707 .707 -223.655 242.749)"/></g></g><path d="m123.619 127.913c23.629 23.629 38.347 49.505 36.576 69.075 8.61-7.126 16.705-15.034 24.246-22.575 17.752-17.751 3.146-51.195-26.49-80.831s-63.081-44.242-80.832-26.49c-8.029 8.028-15.509 16.095-22.37 24.231 19.546-1.651 45.323 13.043 68.87 36.59z" fill="#e7889d"/><path d="m332.127 336.421c-23.629-23.629-49.505-38.347-69.075-36.576 7.126-8.61 15.034-16.705 22.575-24.246 17.752-17.751 51.195-3.146 80.831 26.49s44.242 63.08 26.49 80.831c-8.029 8.028-16.095 15.508-24.231 22.369 1.651-19.545-13.044-45.322-36.59-68.868z" fill="#e7889d"/><path d="m152.236 323.09c-4.14.283-8.2-1.231-11.128-4.159s-4.444-6.983-4.159-11.128c.284-4.132-2.836-7.712-6.968-7.996-4.135-.279-7.712 2.836-7.997 6.969-.582 8.472 2.523 16.768 8.517 22.762 5.517 5.518 12.984 8.587 20.743 8.587.671 0 1.346-.023 2.021-.069 4.132-.284 7.252-3.864 6.968-7.997s-3.862-7.244-7.997-6.969zm216.004-113.425c1.407 1.406 3.314 2.196 5.304 2.196h29.728c4.143 0 7.5-3.357 7.5-7.5s-3.357-7.5-7.5-7.5h-26.622l-30.005-30.006c-2.93-2.928-7.678-2.928-10.607 0-2.929 2.93-2.929 7.678 0 10.607zm-268.36 51.572-8.485 8.485c-2.929 2.93-2.929 7.678 0 10.608 1.464 1.464 3.384 2.196 5.303 2.196s3.839-.733 5.303-2.196l8.485-8.485c2.929-2.93 2.929-7.678 0-10.607s-7.678-2.929-10.606-.001zm90.437 107.408 8.485-8.485c2.929-2.93 2.929-7.678 0-10.607-2.929-2.928-7.678-2.928-10.606 0l-8.485 8.485c-2.929 2.93-2.929 7.678 0 10.607 1.464 1.464 3.384 2.196 5.303 2.196s3.838-.732 5.303-2.196zm274.178-268.681c-3.12-2.721-7.858-2.399-10.582.725-2.722 3.122-2.397 7.859.725 10.582 26.922 23.474 42.362 57.403 42.362 93.09 0 30.02-10.904 58.955-30.704 81.474-18.524 21.067-43.565 35.162-70.945 40.049-4.557-7.326-10.295-14.846-17.196-22.41 52.58-2.418 94.612-45.947 94.612-99.113 0-54.712-44.512-99.224-99.225-99.224-54.712 0-99.224 44.512-99.224 99.224 0 21.047 6.562 41.19 18.697 57.986-8.473 2.888-12.495 7.648-19.306 14.636-15.287-21.011-23.625-46.489-23.625-72.622 0-68.075 55.383-123.458 123.457-123.458 18.625 0 36.521 4.041 53.189 12.012 3.736 1.785 8.215.206 10.002-3.531 1.786-3.737.206-8.215-3.531-10.002-18.704-8.943-38.776-13.479-59.659-13.479-76.346 0-138.457 62.112-138.457 138.458 0 30.264 9.974 59.745 28.201 83.737-6.624 7.401-11.443 13.611-15.066 18.868-3.365 4.883-9.196 7.178-14.852 5.847-11.605-2.73-30.186-10.73-52.8-33.343-22.612-22.611-30.613-41.193-33.343-52.799-1.331-5.657.965-11.487 5.848-14.852 13.56-9.347 26.038-21.472 36.669-32.104 19.727-19.727 9.329-55.618-26.491-91.438-35.818-35.818-71.71-46.216-91.438-26.49-38.449 38.453-70.87 83.627-71.793 137.73-.906 53.11 28.571 108.845 90.114 170.389 16.451 16.45 32.709 30.795 48.323 42.635 3.303 2.504 8.005 1.855 10.508-1.445s1.856-8.005-1.444-10.508c-15.071-11.428-30.811-25.319-46.78-41.289-58.515-58.515-86.555-110.696-85.722-159.525.57-33.406 14.49-66.072 43.36-101.07 16.251.266 38.351 12.927 59.937 34.514 21.665 21.665 34.329 43.816 34.521 60.078-2.72 2.17-5.48 4.248-8.275 6.174-10.007 6.896-14.692 18.922-11.937 30.638 4.555 19.361 17.466 40.1 37.338 59.972 19.873 19.873 40.612 32.784 59.972 37.337 11.711 2.755 23.74-1.93 30.636-11.937 1.926-2.794 4.004-5.555 6.174-8.275 16.269.187 38.412 12.854 60.078 34.521 21.576 21.576 34.239 43.667 34.515 59.917-24.991 20.581-48.85 33.597-72.331 39.524-36.143 9.122-73.074 2.16-112.905-21.286-3.568-2.104-8.167-.913-10.268 2.658-2.101 3.569-.911 8.167 2.659 10.268 30.967 18.23 60.516 27.267 89.496 27.267 11.637 0 23.184-1.458 34.69-4.362 26.345-6.65 52.839-21.235 80.374-44.307.324-.23.628-.484.911-.762 8-6.752 16.089-14.216 24.289-22.416 11.644-11.645 12.784-28.924 4.403-48.494 28.889-6.195 55.193-21.572 74.907-43.992 22.207-25.259 34.437-57.711 34.437-91.38 0-40.022-17.314-78.072-47.505-104.397zm-335.573 22.645c-20.143-20.143-40.782-33.132-58.81-37.378 3.889-4.239 7.989-8.515 12.31-12.836 6.287-6.289 15.747-7.219 28.118-2.771 12.936 4.652 27.89 15.044 42.107 29.262s24.609 29.172 29.261 42.107c4.449 12.37 3.517 21.83-2.771 28.117-4.018 4.019-8.31 8.256-12.801 12.444-4.211-18.06-17.208-38.738-37.414-58.945zm160.397 81.752c0-46.441 37.782-84.224 84.224-84.224s84.225 37.782 84.225 84.224c0 50.514-44.582 90.334-95.602 83.441-18.082-15.819-35.807-25.014-51.072-26.966-14.051-15.517-21.775-35.459-21.775-56.475zm98.325 173.257c-4.317 4.317-8.594 8.417-12.837 12.305-4.247-18.03-17.235-38.663-37.377-58.806-20.205-20.205-40.888-33.199-58.946-37.411 4.189-4.491 8.426-8.784 12.445-12.803 23.308-23.311 86.314 31.972 99.486 68.598 4.449 12.37 3.517 21.83-2.771 28.117z"/></g></svg>