<svg id="Capa_1" enable-background="new 0 0 511.978 511.978" height="512" viewBox="0 0 511.978 511.978" width="512" xmlns="http://www.w3.org/2000/svg"><g><path d="m129.275 487.392 55.334-152.029h-56.219l-56.058 154.017c-2.336 6.418 2.417 13.207 9.247 13.207h25.994c9.709 0 18.381-6.072 21.702-15.195z" fill="#e0b799"/><path d="m270.44 487.392-55.334-152.029h56.219l56.058 154.018c2.336 6.418-2.417 13.207-9.247 13.207h-25.994c-9.709-.001-18.382-6.073-21.702-15.196z" fill="#e0b799"/><path d="m271.325 335.362h-56.219l32.218 88.519h56.219z" fill="#d99a84"/><path d="m96.172 423.881h56.219l32.218-88.519h-56.219z" fill="#d99a84"/><path d="m312.819 392.263h-225.924c-22.558 0-40.844-18.287-40.844-40.844v-303.075c0-22.557 18.287-40.844 40.844-40.844h225.924c22.558 0 40.844 18.287 40.844 40.844v303.075c0 22.558-18.286 40.844-40.844 40.844z" fill="#fbf1cf"/><path d="m351.766 273.957c-2.672-1.841-5.471-3.44-8.371-4.792-4.226-14.465-12.032-27.719-22.944-38.63-34.565-34.567-80.176-34.865-112.615-47.283-37.308-14.28-75.819 16.5-70.648 55.654 6.483 49.081 24.425 88.986 53.326 118.609 11.153 11.434 24.855 19.599 39.903 23.982 1.393 3.068 3.059 6.021 4.987 8.82.451.654.909 1.295 1.361 1.946h76.054c22.557 0 40.844-18.286 40.844-40.844v-76.135c-.634-.441-1.259-.887-1.897-1.327z" fill="#fae0bd"/><path d="m46.051 168.872v64.874c75.495-5.716 86.009 71.318 158.232 71.318 33.194 0 60.103-23.281 60.103-51.999 0-57.535-106.73-109.59-218.335-84.193z" fill="#b0ade2"/><path d="m198.976 180.692c-34.271-6.792-66.55 22.16-61.788 58.214 2.166 16.398 5.618 31.765 10.323 46.073 15.156 11.358 32.469 20.086 56.772 20.086 33.194 0 60.103-23.281 60.103-51.999 0-28.313-25.856-55.292-65.41-72.374z" fill="#a09cdc"/><g><g><path d="m147.606 107.467c.007 13.438-13.667 24.338-30.541 24.346s-30.559-10.878-30.566-24.315c-.007-13.438 13.667-24.338 30.541-24.347 16.875-.008 30.559 10.878 30.566 24.316z" fill="#eda1ab"/><path d="m252.109 107.415c.007 13.438 13.691 24.324 30.565 24.315 16.874-.008 30.548-10.909 30.541-24.346-.007-13.438-13.691-24.325-30.565-24.316-16.874.008-30.548 10.909-30.541 24.347z" fill="#eda1ab"/><path d="m229.801 96.426c-.009-18.509-13.419-20.242-29.96-20.233-16.541.008-29.949 1.754-29.939 20.263.009 18.509 13.426 33.506 29.966 33.498 16.541-.008 29.943-15.019 29.933-33.528z" fill="#4e5660"/></g></g><path d="m211.987 336.567c-28.237-28.942-40.441-66.637-45.058-101.589-2.226-16.85 14.308-29.784 30.181-23.709 34.872 13.348 74.664 13.016 102.127 40.479 23.906 23.906 23.759 62.755-.44 86.478-23.94 23.468-63.398 22.337-86.81-1.659z" fill="#b0ade2"/><path d="m299.238 251.748c-12.325-12.325-27.136-19.045-42.868-23.923-22.532 54.044-53.473 41.424-73.419 65.631 6.973 15.436 16.394 30.152 29.037 43.111 23.411 23.996 62.87 25.128 86.81 1.659 24.199-23.723 24.345-62.572.44-86.478z" fill="#e0b799"/><path d="m334.743 298.66c62.056 42.759 109.116 94.476 128.38 146.408 13.054 35.19-21.417 69.661-56.607 56.607-51.932-19.264-103.649-66.323-146.408-128.38-7.565-10.978-6.162-25.811 3.265-35.238l36.132-36.132c9.427-9.427 24.26-10.829 35.238-3.265z" fill="#e7889d"/><path d="m369.115 324.537c-10.806-8.9-22.266-17.527-34.29-25.818-11.007-7.589-25.869-6.243-35.323 3.21l-36.125 36.125c-9.454 9.454-10.8 24.317-3.21 35.324 8.291 12.024 16.919 23.484 25.818 34.29z" fill="#59636f"/><path d="m199.955 68.693h-.117c-10.02.005-18.031.688-24.567 4.006-8.544 4.339-12.873 12.333-12.867 23.761.005 10.798 3.803 20.986 10.694 28.689 7.098 7.936 16.6 12.305 26.756 12.305h.02c10.164-.005 19.669-4.384 26.764-12.332 6.883-7.709 10.67-17.902 10.665-28.7-.006-11.428-4.344-19.418-12.893-23.747-6.514-3.299-14.49-3.982-24.455-3.982zm15.491 46.44c-4.212 4.719-9.745 7.318-15.581 7.321h-.011c-12.919 0-22.445-12.333-22.451-26.002-.004-7.04 2.236-9.148 4.658-10.378 4.11-2.087 10.977-2.378 17.784-2.381h.126c6.766 0 13.574.293 17.661 2.363 2.423 1.227 4.665 3.333 4.669 10.373.003 7.106-2.43 13.749-6.855 18.704zm254.71 327.327c-16.913-45.593-55.221-92.452-108.992-133.829v-239.53c0-4.143-3.358-7.5-7.5-7.5-4.143 0-7.5 3.357-7.5 7.5v228.416c-2.365-1.687-4.747-3.367-7.164-5.032h-.001c-4.591-3.163-9.712-5.089-14.944-5.832-1.792-15.194-8.573-29.268-19.513-40.208-12.251-12.25-26.649-19.347-41.684-24.403-14.128-23.866-43.926-44.226-82.375-56.15-39.506-12.251-84.226-14.405-126.932-6.245v-111.303c0-18.386 14.958-33.344 33.344-33.344h225.924c13.789 0 26.328 8.662 31.202 21.555 1.466 3.875 5.796 5.827 9.668 4.363 3.874-1.465 5.828-5.794 4.363-9.668-7.067-18.691-25.245-31.25-45.233-31.25h-225.924c-26.657 0-48.344 21.687-48.344 48.344v120.676.012 182.387c0 26.657 21.687 48.344 48.344 48.344h10.074l-16.577 45.543c-1.417 3.893.59 8.196 4.482 9.613.847.308 1.713.454 2.564.454 3.063 0 5.94-1.892 7.049-4.936l18.444-50.674h40.256l-30.96 85.064c-2.233 6.138-8.122 10.261-14.653 10.261h-25.994c-1.061 0-1.656-.626-1.918-.998-.261-.373-.645-1.147-.281-2.145l2.575-7.077c1.416-3.893-.591-8.196-4.483-9.612-3.894-1.42-8.196.591-9.612 4.483l-2.575 7.076c-1.934 5.311-1.152 11.247 2.09 15.877 3.242 4.631 8.553 7.396 14.205 7.396h25.994c12.813 0 24.367-8.09 28.749-20.13l32.828-90.194h61.413l32.828 90.194c4.382 12.04 15.936 20.13 28.749 20.13h25.994c5.652 0 10.962-2.764 14.204-7.394 3.242-4.631 4.023-10.566 2.091-15.879l-10.36-28.464c26.149 23.29 53.209 40.479 79.837 50.357 18.975 7.039 39.804 2.561 54.307-11.941 14.436-14.437 19.011-35.245 11.941-54.307zm-139.667-137.624h-.001c9.581 6.602 18.731 13.376 27.434 20.287l-71.351 71.351c-6.911-8.703-13.686-17.852-20.287-27.433-5.505-7.989-4.498-18.79 2.393-25.681l36.133-36.132c6.872-6.872 17.672-7.908 25.679-2.392zm-70.026-67.766c12.426 4.404 23.839 10.35 33.471 19.982 8.376 8.376 13.621 19.11 15.137 30.713-5.468 1.625-10.6 4.589-14.868 8.857l-36.133 36.131c-4.165 4.165-7.092 9.153-8.742 14.473-12.2-1.579-23.384-7.094-31.972-15.897-10.176-10.431-18.672-22.617-25.459-36.473 17.124-16.182 46.542-11.339 68.566-57.786zm-74.759 43.365c-5.301-14.055-9.107-29.541-11.34-46.439-1.5-11.365 9.617-19.721 20.064-15.721 16.965 6.493 34.82 9.815 51.536 14.342-18.105 36.714-40.119 32.345-60.26 47.818zm-132.153-105.497c41.165-8.354 84.43-6.523 122.488 5.28 26.048 8.078 48.056 20.566 62.473 35.007-12.925-3.18-26.384-6.238-38.721-10.96-21.223-8.124-43.263 9.245-40.298 31.694 2.708 20.501 7.58 39.157 14.564 55.874-41.133-16.714-60.942-66.161-120.506-65.89zm33.344 209.825c-18.386 0-33.344-14.958-33.344-33.344v-110.466c58.358-.171 73.607 56.994 129.533 69.349 6.615 11.682 14.462 22.202 23.535 31.502 11.124 11.403 25.629 18.494 41.421 20.387.698 5.377 2.644 10.648 5.891 15.361 1.676 2.433 3.367 4.831 5.066 7.211zm233.157 109.326c-.261.373-.857.998-1.917.998h-25.994c-6.531 0-12.42-4.123-14.653-10.261l-30.96-85.064h23.587c9.471 12.306 19.229 23.8 29.194 34.413l21.026 57.768c.363.998-.022 1.773-.283 2.146zm127.556-7.929c-10.241 10.239-24.986 13.493-38.483 8.483-43.592-16.171-83.017-51.21-112.991-86.518l73.439-73.439c42.31 35.917 72.443 75.046 86.518 112.99 5.007 13.498 1.757 28.244-8.483 38.484zm-307.692-429.28c-5.741 0-11.142 2.229-15.211 6.281-4.082 4.065-6.336 9.475-6.349 15.234-.009 4.142 3.342 7.507 7.484 7.516h.016c4.135 0 7.491-3.348 7.5-7.484.004-1.752.689-3.399 1.932-4.636 1.238-1.232 2.882-1.911 4.63-1.911h.016c1.753.004 3.399.689 4.636 1.932 1.236 1.242 1.916 2.892 1.912 4.646-.009 4.142 3.342 7.507 7.484 7.516h.016c4.135 0 7.491-3.348 7.5-7.484.013-5.759-2.219-11.179-6.282-15.26-4.064-4.082-9.475-6.336-15.233-6.349h-.051zm125.663 3.192c-4.136 0-7.492 3.349-7.5 7.485l-.023 12c-.008 4.143 3.343 7.507 7.485 7.515h.015c4.136 0 7.492-3.349 7.5-7.485l.023-12c.008-4.143-3.343-7.507-7.485-7.515z"/></g></svg>