<svg id="Capa_1" enable-background="new 0 0 512.009 512.009" height="512" viewBox="0 0 512.009 512.009" width="512" xmlns="http://www.w3.org/2000/svg"><g><path d="m365.127 381.593c-10.512 0-19.034-8.522-19.034-19.034s8.522-19.034 19.034-19.034c61.546 0 101.315-26.381 101.315-67.207 0-18.491-15.043-33.534-33.535-33.534-10.718 0-20.539 4.944-26.944 13.564-6.269 8.44-18.191 10.198-26.63 3.927-8.438-6.269-10.196-18.191-3.927-26.628 13.458-18.115 34.954-28.93 57.501-28.93 39.481 0 71.602 32.12 71.602 71.601 0 54.322-45.223 105.275-139.382 105.275z" fill="#e0b799"/><path d="m435.333 327.444c-17.416 10.314-41.43 16.082-70.206 16.082-10.512 0-19.033 8.522-19.033 19.034 0 10.511 8.521 19.033 19.033 19.033 20.027 0 37.832-2.312 53.467-6.464 6.009-15.332 11.834-31.138 16.739-47.685z" fill="#d99a84"/><path d="m375.406 233.649c-6.269 8.438-4.511 20.359 3.927 26.628 8.438 6.271 20.361 4.513 26.63-3.927 6.405-8.62 16.226-13.564 26.944-13.564 5.719 0 11.107 1.442 15.823 3.977.182-7.482.065-15.13-.401-22.964-.377-6.337-1.669-12.416-3.743-18.113-3.803-.627-7.701-.968-11.679-.968-22.547.001-44.042 10.815-57.501 28.931z" fill="#d99a84"/><path d="m413.391 225.877c3.078 51.757-10.547 94.199-29.874 142.792-11.492 28.893-39.436 47.872-70.531 47.872h-109.845c-31.095 0-59.039-18.979-70.531-47.872-19.327-48.593-32.951-91.034-29.874-142.792.916-15.41 13.675-27.45 29.113-27.45h252.429c15.438 0 28.196 12.039 29.113 27.45z" fill="#cde9fa"/><path d="m286.94 416.541c-4.325-14.66-12.315-28.116-23.123-38.923l-159.533-159.533c-.849 2.462-1.386 5.073-1.548 7.792-3.078 51.757 10.547 94.199 29.874 142.792 11.492 28.893 39.436 47.872 70.531 47.872z" fill="#a2ddfd"/><path d="m127.422 355.381c1.676 4.385 3.407 8.81 5.188 13.288 11.492 28.893 39.436 47.872 70.531 47.872h109.845c31.095 0 59.039-18.979 70.531-47.872 1.781-4.478 3.513-8.903 5.188-13.288z" fill="#e0b799"/><path d="m132.61 368.669c11.492 28.893 39.436 47.872 70.531 47.872h83.799c-4.325-14.66-12.315-28.116-23.123-38.923l-22.237-22.237h-114.158c1.676 4.385 3.407 8.81 5.188 13.288z" fill="#d99a84"/><path d="m16.468 284.34 170.313 170.313c7.334 7.334 16.397 12.703 26.352 15.611l25.304 7.391c16.608 4.851 32.02-10.561 27.169-27.169l-7.391-25.304c-2.908-9.956-8.277-19.018-15.611-26.352l-170.313-170.313c-11.946-11.946-31.314-11.946-43.26 0l-12.563 12.563c-11.946 11.946-11.946 31.314 0 43.26z" fill="#f6ee86"/><path d="m201.178 465.332 52.105-52.105c2.043 3.792 3.715 7.789 4.932 11.956l7.391 25.304c4.851 16.608-10.561 32.02-27.169 27.169l-25.304-7.391c-4.166-1.218-8.163-2.89-11.955-4.933z" fill="#59636f"/><path d="m44.472 312.344-28.004-28.004c-11.946-11.946-11.946-31.314 0-43.26l12.563-12.563c11.946-11.946 31.314-11.946 43.26 0l28.004 28.004z" fill="#e7889d"/><path d="m65.344 261.955h48.071v78.945h-48.071z" fill="#59636f" transform="matrix(.707 .707 -.707 .707 239.32 25.086)"/><path d="m213.037 198.427c-25.965-45.813 50.898-91.088 24.341-152.022-3.025-6.941 3.126-14.347 10.525-12.741 64.124 13.919 89.575 70.101 43.197 164.763z" fill="#fae0bd"/><g><g fill="#fff"><ellipse cx="174.498" cy="286.273" rx="30.834" ry="24.555"/><ellipse cx="341.629" cy="286.273" rx="30.834" ry="24.555"/></g></g><path d="m177.153 378.595-27.869-27.869c-2.928-2.928-7.677-2.928-10.607 0-2.929 2.93-2.929 7.678 0 10.608l27.869 27.869c2.93 2.929 7.678 2.928 10.606 0 2.93-2.93 2.93-7.678.001-10.608zm103.131-121.99c-3.124-2.72-7.86-2.395-10.582.729-2.938 3.372-7.18 5.306-11.639 5.306-4.458 0-8.701-1.934-11.639-5.306-2.721-3.123-7.46-3.449-10.581-.728-3.123 2.721-3.449 7.458-.728 10.581 5.788 6.642 14.152 10.452 22.948 10.452 8.797 0 17.162-3.81 22.949-10.452 2.721-3.123 2.395-7.861-.728-10.582zm129.062-55.74c-6.578-6.172-15.413-9.938-25.068-9.938h-81.387c19.128-42.739 24.209-78.976 15.072-107.828-1.251-3.948-5.463-6.136-9.415-4.886-3.949 1.251-6.136 5.466-4.885 9.415 8.292 26.183 2.314 61.83-17.278 103.299h-68.682c-16.425-39.354 53.719-85.181 26.55-147.519-.587-1.349.631-2.727 2.059-2.415 16.152 3.507 29.386 9.773 39.335 18.626 3.094 2.755 7.835 2.479 10.589-.617 2.753-3.094 2.477-7.835-.617-10.588-11.901-10.591-27.419-18.019-46.124-22.079-13.365-2.902-24.456 10.528-18.992 23.065 23.02 52.82-41.711 94.689-28.671 141.526h-69.983c-19.372 0-35.449 15.156-36.599 34.505-.3 5.053-.441 10.035-.44 14.998l-17.215-17.215c-14.883-14.886-38.979-14.89-53.867-.001l-12.562 12.563c-14.885 14.885-14.888 38.98 0 53.867l140.657 140.657c2.929 2.928 7.678 2.928 10.606 0 2.929-2.93 2.929-7.678 0-10.607l-73.359-73.358 45.216-45.216c113.715 113.715 105.739 105.307 109.556 110.942l-43.829 43.83c-6.017-4.076-8.98-7.746-11.936-10.55-2.929-2.928-7.678-2.928-10.606 0-2.929 2.93-2.929 7.678 0 10.607 2.363 1.924 12.559 15.38 33.562 21.515 24.165 6.727 26.704 8.61 33.721 8.61 18.639 0 33.763-18.144 28.053-37.689l-7.11-24.343h47.291c27.747 0 52.914-13.462 68.272-35.461 88.076-5.656 130.75-57.57 130.75-112.261-.001-53.142-51.774-91.465-102.664-75.454zm-387.575 78.172c-9.023-9.024-9.025-23.629 0-32.653l12.563-12.563c9.026-9.024 23.629-9.024 32.654.001l22.7 22.7-45.216 45.216zm56.692 56.691-23.384-23.384 45.216-45.216 23.384 23.384zm162.077 134.728c-13.2-3.869-23.221-6.758-26.197-7.683l36.38-36.38c.966 3.105 3.585 12.213 7.683 26.197 3.195 10.932-6.932 21.058-17.866 17.866zm129.989-92.813c-12.409 19.41-33.829 31.398-57.542 31.398h-53.42c-3.134-5.677-7.058-10.913-11.659-15.515l-30.646-30.646h160.478c-4.121 10.447-5.007 10.838-7.211 14.763zm-168.268-29.762-62.659-62.658c-.005-.005-.009-.01-.013-.015-.005-.005-.01-.009-.015-.013l-29.239-29.239c-.667-9.886-.709-19.611-.112-29.634.68-11.436 10.179-20.395 21.626-20.395h252.429c11.447 0 20.946 8.959 21.626 20.395 2.594 43.622-6.903 80.078-22.396 121.559zm218.771-94.739c17.051-8.762 37.91 3.558 37.91 23.177 0 30.055-24.19 47.648-53.717 55.118 8.915-27.007 14.482-51.86 15.807-78.295zm-31.104 119.629c1.554-3.722 5.997-15.096 9.508-24.715 46.754-8.623 74.506-35.213 74.506-71.737 0-27.347-26.354-47.077-52.642-39.372-.058-3.792-.191-7.623-.422-11.515-.241-4.053-1.145-7.917-2.588-11.501 40.108-9.512 78.719 21.188 78.719 62.389 0 45.514-34.388 88.447-107.081 96.451zm-197.46-129.938c-4.142 0-7.5 3.357-7.5 7.5v12c0 4.142 3.358 7.5 7.5 7.5s7.5-3.358 7.5-7.5v-12c0-4.142-3.358-7.5-7.5-7.5zm133.507-2.24c-11.803 0-21.406 9.603-21.406 21.406 0 4.142 3.358 7.5 7.5 7.5s7.5-3.358 7.5-7.5c0-3.532 2.874-6.406 6.406-6.406s6.406 2.874 6.406 6.406c0 4.142 3.358 7.5 7.5 7.5s7.5-3.358 7.5-7.5c.001-11.804-9.602-21.406-21.406-21.406z"/></g></svg>