<svg id="Capa_1" enable-background="new 0 0 511.991 511.991" height="512" viewBox="0 0 511.991 511.991" width="512" xmlns="http://www.w3.org/2000/svg"><g><path d="m196.012 132.925c0-15.351 12.445-27.795 27.796-27.795 15.351 0 27.796 12.444 27.796 27.795v-48.395c0-15.351 12.445-27.796 27.795-27.796 15.351 0 27.796 12.444 27.796 27.796v-20.231c0-15.351 12.444-27.795 27.796-27.795 15.351 0 27.796 12.444 27.796 27.795v32.794c0-15.351 12.444-27.796 27.796-27.796 15.351 0 27.796 12.444 27.796 27.796v124.924c0 7.539 9.116 11.315 14.447 5.984l18.258-18.258c12.216-12.216 32.023-12.216 44.239 0 12.216 12.216 12.216 32.023 0 44.239l-42.323 42.323c-22.167 22.167-52.232 34.62-83.581 34.62h-78.775c-52.263 0-94.63-42.367-94.63-94.63z" fill="#cb9d82"/><path d="m342.582 279.648c-.001-31.13-24.871-56.561-55.786-57.466-4.582-27.148-28.259-47.892-56.69-47.892-3.62 0-7.162.336-10.599.98-6.197-7.523-14.275-13.43-23.495-17.04v78.066c0 52.262 42.367 94.629 94.63 94.629h51.941v-51.277z" fill="#b7856b"/><path d="m312.582 279.649c0-15.183-12.309-27.492-27.492-27.492-15.183 0-27.492 12.309-27.492 27.492v-47.866c0-15.183-12.309-27.492-27.492-27.492-15.183 0-27.492 12.308-27.492 27.492v-20.01c0-15.183-12.309-27.492-27.492-27.492-15.183 0-27.492 12.309-27.492 27.492v32.436c0-15.183-12.308-27.492-27.492-27.492-15.183 0-27.492 12.308-27.492 27.492v123.336c0 7.539-9.116 11.315-14.447 5.984l-17.901-17.901c-12.083-12.083-31.673-12.083-43.755 0-12.083 12.083-12.083 31.673 0 43.755l41.861 41.861c21.925 21.925 51.661 34.242 82.668 34.242h77.914c51.691 0 93.596-41.904 93.596-93.596z" fill="#ffd3bd"/><path d="m141.072 475.487h40.468c-57.902-19.561-82.851-72.884-88.938-107.36-.463 7.14-9.213 10.591-14.403 5.402l-17.901-17.901c-12.083-12.083-31.673-12.083-43.755 0-12.083 12.083-12.083 31.673 0 43.755l41.861 41.861c21.925 21.925 51.662 34.243 82.668 34.243z" fill="#ffbe9d"/><path d="m134.795 151.828c2.93 2.929 7.678 2.928 10.606 0 2.929-2.93 2.929-7.678 0-10.607l-39.007-39.007c-2.929-2.928-7.678-2.928-10.606 0-2.929 2.93-2.929 7.678 0 10.607zm-81.129 28.819h38.902c4.142 0 7.5-3.357 7.5-7.5s-3.358-7.5-7.5-7.5h-38.902c-4.142 0-7.5 3.357-7.5 7.5 0 4.142 3.358 7.5 7.5 7.5zm113.054-74.152c4.142 0 7.5-3.357 7.5-7.5v-38.902c0-4.143-3.358-7.5-7.5-7.5s-7.5 3.357-7.5 7.5v38.902c0 4.143 3.358 7.5 7.5 7.5zm-36.701 245.977c-4.142 0-7.5 3.357-7.5 7.5v12c0 4.143 3.358 7.5 7.5 7.5s7.5-3.357 7.5-7.5v-12c0-4.143-3.358-7.5-7.5-7.5zm127.101 19.166c0-3.532 2.874-6.406 6.406-6.406s6.406 2.874 6.406 6.406c0 4.143 3.358 7.5 7.5 7.5s7.5-3.357 7.5-7.5c0-11.804-9.603-21.406-21.406-21.406s-21.406 9.603-21.406 21.406c0 4.143 3.358 7.5 7.5 7.5s7.5-3.358 7.5-7.5zm243.503-167.198c-15.121-15.12-39.724-15.118-54.845 0l-18.258 18.259c-.147.148-.454.452-1.049.209-.594-.246-.594-.681-.594-.89v-76.935c0-4.143-3.358-7.5-7.5-7.5s-7.5 3.357-7.5 7.5v76.935c0 14.196 17.206 21.33 27.25 11.287l18.258-18.258c9.272-9.271 24.36-9.271 33.632-.001 9.293 9.294 9.296 24.338 0 33.633l-42.323 42.323c-20.909 20.909-48.708 32.424-78.277 32.424h-49.334v-43.777c0-19.295-15.698-34.992-34.992-34.992-7.427 0-14.321 2.325-19.992 6.287v-19.161c0-19.294-15.697-34.991-34.992-34.991-7.837 0-15.081 2.59-20.92 6.958-1.068-4.537-3.028-8.732-5.674-12.4v-58.424c0-11.191 9.105-20.296 20.296-20.296s20.295 9.104 20.295 20.296v38.584c0 4.143 3.358 7.5 7.5 7.5s7.5-3.357 7.5-7.5v-86.98c0-11.191 9.104-20.296 20.295-20.296s20.296 9.104 20.296 20.296v62.018c0 4.143 3.358 7.5 7.5 7.5s7.5-3.357 7.5-7.5v-82.249c0-11.19 9.104-20.295 20.296-20.295 11.191 0 20.295 9.104 20.295 20.295v92.716c0 4.143 3.358 7.5 7.5 7.5s7.5-3.357 7.5-7.5v-59.921c0-11.191 9.104-20.296 20.295-20.296s20.296 9.104 20.296 20.296v11.871c0 4.143 3.358 7.5 7.5 7.5s7.5-3.357 7.5-7.5v-11.871c0-19.462-15.833-35.296-35.296-35.296-7.549 0-14.551 2.381-20.295 6.434v-3.933c0-19.462-15.833-35.295-35.295-35.295-16.723 0-30.766 11.688-34.388 27.325-5.907-4.452-13.253-7.095-21.203-7.095-19.462 0-35.295 15.834-35.295 35.296v19.532c-5.745-4.053-12.747-6.434-20.295-6.434-19.461 0-35.295 15.834-35.296 35.296v46.524c-22.949-9.542-48.381 7.425-48.381 32.324v3.732c-5.671-3.962-12.564-6.287-19.992-6.287-19.295 0-34.992 15.697-34.992 34.992v123.336c0 .209 0 .644-.595.89-.592.247-.901-.061-1.049-.209l-17.901-17.901c-14.987-14.985-39.375-14.988-54.362.001-14.987 14.987-14.987 39.374 0 54.362l41.861 41.86c16.794 16.794 37.929 28.381 61.12 33.507 4.041.892 8.048-1.66 8.942-5.704.894-4.045-1.66-8.048-5.705-8.942-20.394-4.508-38.981-14.698-53.75-29.468l-41.861-41.859c-9.139-9.14-9.139-24.011 0-33.149 9.139-9.14 24.01-9.14 33.149 0l17.901 17.901c10.035 10.037 27.25 2.916 27.25-11.288v-123.337c0-11.023 8.968-19.992 19.992-19.992 11.023 0 19.992 8.969 19.992 19.992v59.267c0 4.142 3.358 7.5 7.5 7.5s7.5-3.358 7.5-7.5v-91.703c0-11.023 8.968-19.991 19.992-19.991 11.023 0 19.992 8.968 19.992 19.991v81.351c0 4.143 3.358 7.5 7.5 7.5s7.5-3.357 7.5-7.5v-61.341c0-11.023 8.968-19.991 19.992-19.991 11.023 0 19.992 8.968 19.992 19.991v86.029c0 4.143 3.358 7.5 7.5 7.5s7.5-3.357 7.5-7.5v-38.163c0-11.023 8.968-19.992 19.992-19.992 11.023 0 19.992 8.969 19.992 19.992v102.242c0 47.474-38.622 86.096-86.096 86.096h-66.899c-4.142 0-7.5 3.357-7.5 7.5s3.358 7.5 7.5 7.5h66.896c55.744 0 101.096-45.352 101.096-101.096v-43.465h49.334c33.576 0 65.142-13.075 88.884-36.816l42.323-42.323c15.155-15.156 15.158-39.689 0-54.847zm-305.009 182.837c8.795 0 17.16-3.81 22.948-10.451 2.721-3.123 2.396-7.86-.727-10.582-3.123-2.721-7.86-2.396-10.582.727-2.939 3.372-7.181 5.307-11.64 5.307s-8.701-1.935-11.64-5.307c-2.721-3.122-7.458-3.447-10.582-.727-3.123 2.722-3.448 7.459-.727 10.582 5.79 6.642 14.155 10.451 22.95 10.451zm217.412-26.02h-39.439c-4.142 0-7.5 3.357-7.5 7.5s3.358 7.5 7.5 7.5h39.439c4.142 0 7.5-3.357 7.5-7.5s-3.358-7.5-7.5-7.5zm-58.24 42.753c-2.929-2.928-7.678-2.928-10.606 0-2.929 2.93-2.929 7.678 0 10.608l35.531 35.531c2.93 2.929 7.678 2.928 10.607 0 2.929-2.93 2.929-7.678 0-10.607z"/></g></svg>