<svg id="Capa_1" enable-background="new 0 0 512 512" height="512" viewBox="0 0 512 512" width="512" xmlns="http://www.w3.org/2000/svg"><g><path d="m71.677 369.739h315.427v100.451h-315.427z" fill="#fbf1cf"/><path d="m201.402 369.739h-129.725v100.451h150.165v-8.24c-20.29-12.559-32.041-66.285-20.439-82.49v-9.721z" fill="#fae0bd"/><path d="m411.744 32.14c0-13.609-11.032-24.64-24.64-24.64h-270.628c-46.613 0-84.536 37.923-84.536 84.537v327.927l49.128-59.896h330.676z" fill="#f6ee86"/><path d="m238.438 360.068c-129.042-91.438-148.251-277.067-149.008-348.105-33.385 11.308-57.49 42.919-57.49 80.074v327.927l49.128-59.896z" fill="#f2d98d"/><path d="m116.476 7.5c-46.613 0-84.536 37.923-84.536 84.537v327.927l49.128-59.896h35.409v-352.568z" fill="#b0ade2"/><path d="m89.43 11.963c-33.385 11.308-57.49 42.919-57.49 80.074v327.927l49.128-59.896h35.409v-179.662c-21.573-67.449-26.665-132.561-27.047-168.443z" fill="#a09cdc"/><path d="m387.103 7.5h-222.736v352.568h247.377v-327.928c0-13.608-11.032-24.64-24.641-24.64z" fill="#b0ade2"/><path d="m164.367 282.543v77.525h74.072c-30.383-21.528-54.675-48.278-74.072-77.525z" fill="#a09cdc"/><path d="m387.103 504.5h-270.627c-46.614 0-84.537-37.922-84.537-84.536s37.923-84.537 84.537-84.537h270.627c13.609 0 24.64 11.032 24.64 24.641s-11.032 24.641-24.64 24.641h-270.627c-19.44 0-35.256 15.815-35.256 35.256 0 19.439 15.816 35.255 35.256 35.255h270.627c13.609 0 24.64 11.032 24.64 24.641s-11.031 24.639-24.64 24.639z" fill="#a2ddfd"/><g fill="#a2ddfd"><circle cx="295.792" cy="227.662" r="45.134"/><circle cx="434.926" cy="227.662" r="45.134"/></g><path d="m472.279 100.212-14.068-14.068c-2.93-2.928-7.678-2.928-10.607 0-2.929 2.93-2.929 7.678 0 10.607l14.068 14.068c7.022 7.021 10.889 16.356 10.889 26.286v53.811c-9.564-9.793-22.897-15.888-37.634-15.888-5.46 0-10.727.837-15.683 2.387v-145.274c0-17.723-14.418-32.141-32.14-32.141h-270.627c-16.451 0-32.607 4.413-46.724 12.763-3.565 2.108-4.746 6.708-2.637 10.273 2.109 3.566 6.709 4.748 10.274 2.637 9.652-5.708 20.447-9.213 31.587-10.304v312.866c-29.078 2.356-54.375 18.286-69.537 41.429v-277.627c0-16.023 4.894-31.395 14.153-44.45 2.396-3.379 1.6-8.06-1.779-10.457-3.379-2.396-8.061-1.6-10.456 1.779-11.068 15.607-16.919 33.978-16.919 53.128v327.928c.001 50.749 41.288 92.035 92.038 92.035h218.756c4.143 0 7.5-3.357 7.5-7.5s-3.357-7.5-7.5-7.5h-218.756c-42.479 0-77.037-34.559-77.037-77.036 0-42.478 34.559-77.036 77.037-77.036h270.627c9.451 0 17.141 7.689 17.141 17.141 0 9.451-7.689 17.14-17.141 17.14h-270.627c-23.576 0-42.756 19.181-42.756 42.756s19.18 42.755 42.756 42.755h270.627c9.451 0 17.141 7.689 17.141 17.141 0 9.451-7.689 17.141-17.141 17.141h-15.886c-4.143 0-7.5 3.357-7.5 7.5s3.357 7.5 7.5 7.5h15.886c17.723 0 32.141-14.418 32.141-32.141 0-15.14-10.525-27.86-24.641-31.248v-57.296c14.115-3.388 24.641-16.108 24.641-31.247v-82.159c4.956 1.55 10.223 2.387 15.683 2.387 29.022 0 52.634-23.611 52.634-52.634v-90.557c-.001-13.938-5.428-27.041-15.283-36.895zm-92.675 347.507h-263.127c-15.305 0-27.756-12.451-27.756-27.755 0-15.305 12.451-27.756 27.756-27.756h263.127zm-222.737-119.791h-32.89v-312.928h32.89zm247.377 4.972c-4.965-3.144-10.841-4.972-17.141-4.972h-215.236v-312.928h215.237c9.451 0 17.141 7.69 17.141 17.141v152.796c-9.109 6.56-16.049 15.947-19.508 26.874-5.693-3.679-12.402-5.749-19.376-5.749s-13.684 2.071-19.377 5.75c-6.742-21.3-26.69-36.783-50.19-36.783-14.737 0-28.07 6.095-37.634 15.888v-53.811c0-9.93 3.866-19.265 10.887-26.286l14.069-14.068c2.93-2.929 2.93-7.678.001-10.606-2.929-2.93-7.678-2.929-10.606-.001l-14.07 14.069c-9.854 9.854-15.281 22.956-15.281 36.893v90.557c0 29.023 23.612 52.634 52.634 52.634 28.258 0 51.376-22.385 52.576-50.353 3.853-5.515 10.209-8.882 16.991-8.882s13.137 3.366 16.991 8.881c.714 16.642 9.191 31.297 21.894 40.445v62.511zm-70.818-105.238c0 20.751-16.883 37.634-37.634 37.634-20.752 0-37.634-16.883-37.634-37.634s16.882-37.634 37.634-37.634c20.751 0 37.634 16.883 37.634 37.634zm101.501 37.634c-20.752 0-37.635-16.883-37.635-37.634s16.883-37.634 37.635-37.634c20.751 0 37.634 16.883 37.634 37.634s-16.883 37.634-37.634 37.634z"/></g></svg>