<svg id="Capa_1" enable-background="new 0 0 512 512" height="512" viewBox="0 0 512 512" width="512" xmlns="http://www.w3.org/2000/svg"><g><path d="m191.167 62.556c17.556-43.455 94.216-65.211 150.908-36.344 61.4 31.263 177.936 183.434 81.951 312.506z" fill="#59636f"/><path d="m208.724 71.599c0-35.401-30.048-64.099-53.791-64.099s-32.189 28.698-32.189 64.099v13.568c0 23.743 19.247 42.99 42.99 42.99 23.743 0 42.99-19.247 42.99-42.99z" fill="#d99a84"/><path d="m337.958 100.196c79.651 79.651 88.434 199.468 88.434 330.078h-268.252v-213.999z" fill="#e0b799"/><path d="m158.14 419.122c20.955-7.552 39.222-22.998 49.776-45.11l7.337-15.373c6.066-12.71 18.085-21.649 32.049-23.481 38.289-5.021 73.355-28.636 91.374-65.966 24.987-51.767 8.202-112.694-35.975-146.238l-144.561 93.32z" fill="#d99a84"/><path d="m32.441 211.301 86.857-102.075c56.224-66.368 157.153-70.537 218.659-9.031 46.586 46.586 47.508 122.617.717 168.998-29.439 29.181-70.374 39.746-108.145 31.707-13.774-2.931-28.087 1.487-38.046 11.445l-12.045 12.045c-39.555 39.555-105.428 32.947-136.337-13.677l-16.077-24.253c-15.411-23.246-13.611-53.878 4.417-75.159z" fill="#e0b799"/><path d="m103.927 504.5h369.577c13.727 0 23.693-13.057 20.072-26.298l-4.511-16.497c-5.075-18.56-21.939-31.432-41.18-31.432h-318.339c-19.241 0-36.105 12.872-41.18 31.432l-4.511 16.497c-3.621 13.241 6.345 26.298 20.072 26.298z" fill="#f6ee86"/><path d="m283.472 430.273h-153.926c-19.241 0-36.105 12.872-41.18 31.432l-4.511 16.497c-3.62 13.241 6.346 26.298 20.073 26.298h199.617c-14.978-15.706-26.846-50.274-20.073-74.227z" fill="#f2d98d"/><path d="m371.364 71.599c0-35.401-30.048-64.099-53.791-64.099s-32.189 28.698-32.189 64.099v13.568c0 23.743 19.247 42.99 42.99 42.99 23.743 0 42.99-19.247 42.99-42.99z" fill="#d99a84"/><g><g><ellipse cx="121.691" cy="191.274" fill="#fff" rx="29.387" ry="23.403"/><ellipse cx="280.981" cy="191.274" fill="#fff" rx="29.387" ry="23.403"/><path d="m140.661 281.253c0-14.643-10.608-16.019-23.693-16.019s-23.693 1.376-23.693 16.019 10.608 26.513 23.693 26.513 23.693-11.87 23.693-26.513z" fill="#4e5660"/></g></g><path d="m500.81 476.224-4.511-16.497c-5.949-21.758-25.858-36.953-48.414-36.953h-14.004c-.065-27.285-.525-54.763-2.14-81.904 46.05-63.675 46.47-138.487 11.74-210.054-1.807-3.726-6.293-5.281-10.021-3.473-3.727 1.808-5.281 6.295-3.473 10.022 28.934 59.629 32.597 122.667-.064 178.84-6.452-72.6-23.045-141.538-64.824-196.312 8.687-9.158 13.764-21.441 13.764-34.725-.095-12.067.247-15.032-.417-21.169 12.397 12.641 24.26 27.463 34.584 43.372 2.248 3.463 6.886 4.47 10.374 2.208 3.475-2.255 4.463-6.899 2.208-10.374-16.329-25.162-36.399-47.846-56.643-64.072-12.017-21.057-32.972-35.133-51.396-35.133-5.717 0-12.659 1.356-19.127 6.209-35.437-3.289-70.757 6.723-93.695 26.153-12.483-20.031-32.853-32.362-49.819-32.362-9.891 0-23.448 4.036-31.868 23.266-9.956 22.734-7.421 54.289-7.821 61.901 0 5.07.742 10.032 2.21 14.809-3.465 3.792 1.279-1.607-90.734 106.478-20.061 23.68-22.094 58.283-4.945 84.15l16.079 24.254c15.98 24.105 41.651 39.586 70.429 42.473 3.242.325 6.475.486 9.693.486 11.247-.001 22.281-1.969 32.665-5.74v70.696h-21.094c-22.557 0-42.466 15.195-48.415 36.953l-4.511 16.498c-2.348 8.586-.597 17.567 4.804 24.643 5.4 7.075 13.603 11.133 22.503 11.133h27.586c4.143 0 7.5-3.357 7.5-7.5s-3.357-7.5-7.5-7.5h-27.586c-4.185 0-8.04-1.907-10.579-5.233-2.539-3.327-3.362-7.55-2.259-11.586l4.511-16.497c4.172-15.256 18.131-25.91 33.946-25.91h318.34c15.815 0 29.773 10.654 33.945 25.91l4.511 16.497c1.103 4.036.281 8.259-2.258 11.585s-6.396 5.234-10.58 5.234h-304.965c-4.143 0-7.5 3.357-7.5 7.5s3.357 7.5 7.5 7.5h304.965c8.901 0 17.104-4.058 22.504-11.134 5.4-7.075 7.15-16.056 4.802-24.642zm-213.86-455.603c-5.265 10.543-7.534 23.517-8.471 35.304-21.541-6.571-43.858-8.273-65.485-5.487-.424-1.387-.891-2.749-1.387-4.091 17.47-16.416 46.085-26.074 75.343-25.726zm-156.707 50.978c0-49.245 15.469-56.599 24.689-56.599 18.205 0 36.202 18.892 43.08 38.112-24.745 5.662-48.083 17.301-67.69 34.321-.143-2.286-.05-2.175-.079-15.834zm35.397 351.174v-77.672c7.261-4.176 14.027-9.331 20.104-15.408l12.046-12.044c8.286-8.286 19.946-11.806 31.18-9.413 8.808 1.874 17.663 2.792 26.45 2.791 32.856-.002 64.661-12.842 88.537-36.509 2.941-2.916 2.962-7.664.046-10.606-2.914-2.941-7.663-2.963-10.607-.046-26.655 26.422-64.525 37.527-101.304 29.698-16.23-3.453-33.017 1.585-44.909 13.478l-12.046 12.044c-17.254 17.256-41.073 25.756-65.358 23.319-24.28-2.436-45.939-15.498-59.424-35.837l-16.079-24.254c-13.483-20.338-11.885-47.547 3.878-66.153l86.868-102.088c37.433-44.186 98.281-60.934 152.863-42.589 0 14.22-.672 21.035 3.173 31.333 1.448 3.881 5.769 5.854 9.648 4.404 3.881-1.448 5.853-5.768 4.404-9.648-2.714-7.273-2.31-10.749-2.161-31.295 1.08-44.455 15.747-51.278 24.624-51.278 19.539 0 46.291 25.32 46.291 56.599v13.568c0 14.799-8.958 27.73-22.542 33.057-3.857 1.512-5.757 5.864-4.245 9.72 1.519 3.877 5.884 5.75 9.72 4.245 2.253-.883 4.409-1.917 6.469-3.077 43.452 57.063 58.345 131.375 63.282 209.119-.04.631.002 1.261.118 1.879 1.679 27.346 2.149 55.099 2.216 82.664h-253.242zm110.428-278.939c-4.143 0-7.5 3.357-7.5 7.5v12c0 4.143 3.357 7.5 7.5 7.5s7.5-3.357 7.5-7.5v-12c0-4.143-3.357-7.5-7.5-7.5zm-138.954 117.23c-5.449-2.763-11.995-3.329-20.146-3.329s-14.697.566-20.146 3.329c-5.04 2.556-11.048 8.133-11.048 20.189 0 18.755 13.993 34.013 31.193 34.013s31.193-15.258 31.193-34.013c.001-12.057-6.007-17.634-11.046-20.189zm-20.146 39.202c-8.929 0-16.193-8.529-16.193-19.013 0-5.907.655-8.518 16.193-8.518s16.193 2.611 16.193 8.518c0 10.483-7.265 19.013-16.193 19.013zm9.635-129.432c4.143 0 7.5-3.357 7.5-7.5v-12c0-4.143-3.357-7.5-7.5-7.5s-7.5 3.357-7.5 7.5v12c0 4.143 3.358 7.5 7.5 7.5z"/></g></svg>