<svg id="Capa_1" enable-background="new 0 0 512 512" height="512" viewBox="0 0 512 512" width="512" xmlns="http://www.w3.org/2000/svg"><g><ellipse cx="197.267" cy="195.343" fill="#f6ee86" rx="187.843" ry="187.843" transform="matrix(.707 -.707 .707 .707 -80.35 196.704)"/><path d="m170.352 266.199c-28.219 0-51.176 22.957-51.176 51.176v18.456c-11.484 1.01-21.888 5.833-29.944 13.187 30.558 21.522 67.819 34.168 108.036 34.168 78.671 0 146.035-48.37 174.005-116.987z" fill="#f2d98d"/><ellipse cx="197.267" cy="195.343" fill="#e0b799" rx="147.655" ry="147.655" transform="matrix(.707 -.707 .707 .707 -80.35 196.704)"/><path d="m170.352 266.199c-28.219 0-51.176 22.957-51.176 51.176v3.293c22.655 14.146 49.415 22.33 78.092 22.33 55.869 0 104.487-31.033 129.568-76.799z" fill="#d99a84"/><g><g fill="#fff"><ellipse cx="118.891" cy="143.878" rx="28.919" ry="23.03"/><ellipse cx="275.644" cy="143.878" rx="28.92" ry="23.03"/></g></g><path d="m393.05 504.5h-311.049c-11.695 0-21.176-9.481-21.176-21.176v-27.082c0-11.695 9.481-21.176 21.176-21.176h311.049c11.695 0 21.176 9.481 21.176 21.176v27.082c-.001 11.695-9.481 21.176-21.176 21.176z" fill="#f6ee86"/><path d="m434.749 435.066h-311.048c-11.695 0-21.176-9.481-21.176-21.176v-27.082c0-11.695 9.481-21.176 21.176-21.176h311.048c11.695 0 21.176 9.481 21.176 21.176v27.082c0 11.696-9.481 21.176-21.176 21.176z" fill="#f2d98d"/><path d="m481.4 365.633h-311.049c-11.695 0-21.176-9.481-21.176-21.176v-27.082c0-11.695 9.481-21.176 21.176-21.176h311.049c11.695 0 21.176 9.481 21.176 21.176v27.082c0 11.695-9.481 21.176-21.176 21.176z" fill="#f6ee86"/><path d="m481.399 288.699h-112.511c15.554-28.543 23.722-60.55 23.722-93.356 0-107.712-87.631-195.343-195.342-195.343-35.825 0-70.86 9.785-101.319 28.298-3.539 2.151-4.665 6.765-2.514 10.305 2.152 3.54 6.767 4.665 10.305 2.514 25.981-15.791 55.578-24.684 86.028-25.944v25.2c-79.598 3.807-143.664 67.873-147.471 147.47h-25.2c2.011-48.006 23.239-93.594 58.964-126.041 3.066-2.784 3.295-7.527.51-10.594-2.785-3.066-7.527-3.294-10.594-.51-40.706 36.969-64.052 89.69-64.052 144.645 0 38.123 10.988 75.063 31.776 106.825 17.667 26.994 41.559 49.069 69.632 64.478-5.133 5.184-8.309 12.309-8.309 20.163v27.082c0 4.949 1.261 9.609 3.477 13.676h-16.5c-15.812 0-28.676 12.864-28.676 28.676v27.082c0 15.812 12.864 28.676 28.676 28.676h287.373c4.143 0 7.5-3.357 7.5-7.5s-3.357-7.5-7.5-7.5h-35.999v-54.434h59.675c7.541 0 13.676 6.135 13.676 13.676v27.082c0 4.522-2.233 8.747-5.975 11.304-3.42 2.337-4.298 7.004-1.961 10.424 2.335 3.419 7.002 4.299 10.424 1.961 7.834-5.353 12.512-14.209 12.512-23.689v-27.082c0-4.949-1.261-9.608-3.477-13.676h16.5c15.811 0 28.676-12.864 28.676-28.676v-27.082c0-4.949-1.261-9.608-3.477-13.676h21.451c15.811 0 28.676-12.864 28.676-28.676v-27.082c0-15.811-12.864-28.676-28.676-28.676zm-74.673 15v54.434h-73.351v-54.434h22.365c.005 0 .01.001.014.001.005 0 .01-.001.016-.001zm-55.139-15h-30.404c18.745-24.823 29.564-54.606 31.058-85.856h25.208c-1.252 30.425-10.118 59.886-25.862 85.856zm-146.819-273.531c93.487 3.845 168.83 79.188 172.675 172.675h-25.205c-3.807-79.597-67.873-143.663-147.47-147.47zm-7.5 40.02c77.281 0 140.154 62.873 140.154 140.154 0 34.608-12.629 67.631-35.63 93.356h-74.876c13.233-18.355 8.483-44.299-15.522-52.784-2.177-.77-4.405-1.577-6.626-2.417v-35.466c5.588 1.338 8.917 4.165 9.206 4.419 3.047 2.759 7.755 2.552 10.546-.476 2.809-3.045 2.617-7.79-.428-10.598-.426-.393-7.592-6.849-19.324-8.61v-7.245c0-4.143-3.357-7.5-7.5-7.5s-7.5 3.357-7.5 7.5v7.819c-1.113.245-2.243.527-3.397.875-10.73 3.232-18.746 12.414-20.922 23.963-1.983 10.53 1.39 20.684 8.804 26.498 3.93 3.082 8.819 5.905 15.516 8.886v44.97c-5.792-.427-9.809-1.843-16.383-6.144-3.47-2.268-8.115-1.296-10.383 2.17-1.088 1.664-1.423 3.599-1.102 5.413-11.7 3.616-20.225 14.532-20.225 27.403v6.655c-50.991-22.012-84.563-72.452-84.563-128.687-.001-77.28 62.872-140.154 140.155-140.154zm-26.916 302.945c-7.541 0-13.676-6.135-13.676-13.676v-27.082c0-7.541 6.135-13.676 13.676-13.676h59.674v54.434zm13.023 15v54.434h-59.675c-7.541 0-13.676-6.135-13.676-13.676v-27.082c0-7.541 6.135-13.676 13.676-13.676h46.651zm6.393-146.259c-2.355-1.278-4.486-2.61-6.259-4-6.518-5.113-4.136-20.048 6.259-23.971zm15 60.509v-37.908c.541.194 1.07.386 1.627.583 19.395 6.855 14.692 31.487-1.627 37.325zm-6.393 85.75h73.35v54.434h-73.35zm46.65-15v-54.434h73.35v54.434zm-198.773-64.179c-17.819-27.228-27.831-58.583-29.167-91.111h25.215c2.953 61.348 41.934 115.356 99.376 137.384v4.23c0 4.949 1.261 9.609 3.477 13.676h-21.453c-1.211 0-2.403.084-3.575.231-30.068-14.251-55.586-36.468-73.873-64.41zm95.424 203.046h-59.675c-7.541 0-13.676-6.135-13.676-13.676v-27.082c0-7.541 6.135-13.676 13.676-13.676h59.675zm88.349 0h-73.35v-54.434h73.35zm88.35 0h-73.35v-54.434h73.35zm41.7-69.434h-73.351v-54.434h73.351zm88.35-13.675c0 7.541-6.135 13.676-13.676 13.676h-41.699-17.975v-54.434h59.674c7.541 0 13.676 6.135 13.676 13.676zm46.65-69.434c0 7.541-6.135 13.676-13.676 13.676h-59.674v-54.434h59.674c7.541 0 13.676 6.135 13.676 13.676zm-373.096-218.141c4.143 0 7.5-3.357 7.5-7.5 0-3.454 2.81-6.265 6.266-6.265 3.454 0 6.265 2.81 6.265 6.265 0 4.143 3.357 7.5 7.5 7.5s7.5-3.357 7.5-7.5c0-11.726-9.539-21.265-21.265-21.265s-21.266 9.539-21.266 21.265c0 4.143 3.358 7.5 7.5 7.5zm123.045 0c4.143 0 7.5-3.357 7.5-7.5 0-3.454 2.811-6.265 6.266-6.265 3.454 0 6.265 2.81 6.265 6.265 0 4.143 3.357 7.5 7.5 7.5s7.5-3.357 7.5-7.5c0-11.726-9.539-21.265-21.265-21.265s-21.266 9.539-21.266 21.265c0 4.143 3.358 7.5 7.5 7.5zm-47.756 22.742c7.765 0 15.147-3.362 20.255-9.226 2.722-3.123 2.395-7.86-.728-10.581-3.122-2.722-7.861-2.397-10.581.727-2.259 2.592-5.52 4.079-8.946 4.079-3.427 0-6.688-1.487-8.947-4.08-2.723-3.122-7.46-3.447-10.582-.726-3.122 2.722-3.448 7.459-.727 10.582 5.109 5.862 12.492 9.225 20.256 9.225z"/></g></svg>