<svg id="Capa_1" enable-background="new 0 0 512 512" height="512" viewBox="0 0 512 512" width="512" xmlns="http://www.w3.org/2000/svg"><g><path d="m7.5 419.415c0 21.682 17.577 39.26 39.26 39.26h429.535c15.577 0 28.205-12.628 28.205-28.205v-270.42c0-15.577-12.628-28.205-28.205-28.205h-429.535z" fill="#a2ddfd"/><path d="m235.874 458.675c-52.21-68.629-67.383-181.792-61.447-326.831h-127.667l-39.26 287.571c0 21.683 17.577 39.259 39.26 39.259h189.114z" fill="#7acefa"/><path d="m7.5 92.585c0-21.683 17.577-39.26 39.26-39.26h32.974c15.577 0 28.205 12.628 28.205 28.205v270.42c0 15.577-12.628 28.205-28.205 28.205h-32.974c-21.683 0-39.26 17.577-39.26 39.26z" fill="#cde9fa"/><g><g fill="#fff"><ellipse cx="286.834" cy="391.715" rx="30.834" ry="24.555"/><ellipse cx="453.964" cy="391.715" rx="30.834" ry="24.555"/></g></g><path d="m382.039 362.774c-2.939 3.372-7.181 5.307-11.64 5.307-4.458 0-8.701-1.934-11.639-5.306-2.721-3.124-7.459-3.448-10.582-.727s-3.448 7.459-.727 10.581c5.788 6.643 14.152 10.452 22.948 10.452 8.795 0 17.16-3.81 22.948-10.451 2.721-3.123 2.396-7.86-.727-10.582-3.122-2.722-7.86-2.397-10.581.726zm56.272-1.739c3.532 0 6.406 2.873 6.406 6.405 0 4.143 3.358 7.5 7.5 7.5s7.5-3.357 7.5-7.5c0-11.803-9.603-21.405-21.406-21.405s-21.406 9.603-21.406 21.405c0 4.143 3.358 7.5 7.5 7.5s7.5-3.357 7.5-7.5c0-3.532 2.874-6.405 6.406-6.405zm13.939-108.144c0-35.421-28.817-64.238-64.239-64.238-32.883 0-60.058 24.84-63.786 56.738h-15.266c-4.142 0-7.5 3.357-7.5 7.5s3.358 7.5 7.5 7.5h15.266c3.728 31.898 30.903 56.738 63.786 56.738 35.421 0 64.239-28.818 64.239-64.238zm-64.239 49.238c-24.601 0-45.045-18.135-48.668-41.738h48.668c4.142 0 7.5-3.357 7.5-7.5s-3.358-7.5-7.5-7.5h-48.668c3.623-23.604 24.067-41.738 48.668-41.738 27.15 0 49.239 22.088 49.239 49.238s-22.089 49.238-49.239 49.238zm-90.707 53.646v12c0 4.143 3.358 7.5 7.5 7.5s7.5-3.357 7.5-7.5v-12c0-4.143-3.358-7.5-7.5-7.5s-7.5 3.358-7.5 7.5zm-45.304-167.123h-88.834c-4.142 0-7.5 3.357-7.5 7.5s3.358 7.5 7.5 7.5h88.834c4.142 0 7.5-3.357 7.5-7.5 0-4.142-3.358-7.5-7.5-7.5zm-77.72 113.477c-10.264 0-18.614 8.351-18.614 18.615v47.893c0 10.265 8.35 18.615 18.614 18.615h47.893c10.264 0 18.615-8.351 18.615-18.615v-47.893c0-10.265-8.351-18.615-18.615-18.615zm51.509 18.615v47.893c0 1.993-1.622 3.615-3.615 3.615h-47.894c-1.993 0-3.614-1.622-3.614-3.615v-47.893c0-1.993 1.622-3.615 3.614-3.615h47.893c1.994 0 3.616 1.622 3.616 3.615zm250.506-196.4h-360.856v-42.814c0-11.341-5.468-22.114-14.626-28.82-3.342-2.448-8.035-1.723-10.482 1.62-2.447 3.342-1.722 8.034 1.62 10.481 5.315 3.893 8.488 10.142 8.488 16.719v270.42c0 11.417-9.288 20.706-20.705 20.706h-32.974c-12.25 0-23.414 4.734-31.76 12.47v-292.541c0-17.513 14.248-31.76 31.76-31.76h14.586c4.142 0 7.5-3.357 7.5-7.5s-3.358-7.5-7.5-7.5h-14.586c-25.783 0-46.76 20.977-46.76 46.76v326.83c0 25.783 20.976 46.76 46.76 46.76h354.739c4.142 0 7.5-3.357 7.5-7.5s-3.358-7.5-7.5-7.5h-354.739c-17.512 0-31.76-14.247-31.76-31.76 0-17.512 14.248-31.759 31.76-31.759h32.974c19.688 0 35.705-16.018 35.705-35.706v-212.606h360.856c11.417 0 20.705 9.289 20.705 20.706v270.42c0 11.417-9.288 20.705-20.705 20.705h-37.984c-4.142 0-7.5 3.357-7.5 7.5s3.358 7.5 7.5 7.5h37.984c19.688 0 35.705-16.018 35.705-35.705v-270.42c0-19.689-16.017-35.706-35.705-35.706zm-216.795 128.547c0-4.143-3.358-7.5-7.5-7.5h-88.834c-4.142 0-7.5 3.357-7.5 7.5s3.358 7.5 7.5 7.5h88.834c4.142 0 7.5-3.358 7.5-7.5z"/></g></svg>