<svg id="Capa_1" enable-background="new 0 0 511.985 511.985" height="512" viewBox="0 0 511.985 511.985" width="512" xmlns="http://www.w3.org/2000/svg"><g><path d="m370.248 238.47-53.747-53.747c-18.458-18.458-43.493-28.828-69.597-28.828h-113.533c-26.104 0-51.139 10.37-69.597 28.828l-53.747 53.747c-3.38 3.38-3.38 8.86 0 12.24l38.59 38.59c3.38 3.38 8.86 3.38 12.24 0l31.745-31.745v127.228c0 10.666 8.646 19.312 19.312 19.312h156.446c10.666 0 19.312-8.646 19.312-19.312v-127.228l31.745 31.745c3.38 3.38 8.86 3.38 12.24 0l38.59-38.59c3.381-3.38 3.381-8.86.001-12.24z" fill="#88d37f"/><path d="m268.361 404.095c10.666 0 19.312-8.646 19.312-19.312v-127.228l31.745 31.745c3.38 3.38 8.86 3.38 12.24 0l38.59-38.59c3.38-3.38 3.38-8.86 0-12.24l-40.447-40.447h-64.721c-34.303 0-66.554 13.358-90.811 37.615l-53.747 53.747c-15.071 15.071-15.071 39.594 0 54.665l38.591 38.592c7.301 7.3 17.008 11.321 27.333 11.321 2.673 0 5.305-.27 7.865-.796v10.927h74.05z" fill="#5ec682"/><path d="m190.137 212.252c31.126 0 56.358-25.232 56.358-56.358h-112.715c0 31.126 25.232 56.358 56.357 56.358z" fill="#5ec682"/><path d="m501.957 310.598-53.747-53.747c-18.458-18.458-43.493-28.828-69.597-28.828h-113.533c-26.104 0-51.139 10.37-69.597 28.828l-53.747 53.747c-3.38 3.38-3.38 8.86 0 12.24l38.59 38.59c3.38 3.38 8.86 3.38 12.24 0l31.745-31.745v127.227c0 10.666 8.646 19.312 19.312 19.312h156.447c10.666 0 19.312-8.646 19.312-19.312v-127.227l31.745 31.745c3.38 3.38 8.86 3.38 12.24 0l38.59-38.59c3.38-3.38 3.38-8.86 0-12.24z" fill="#f6ee86"/><path d="m342.811 424.96-9.417-9.417c-6.377-6.377-16.717-6.377-23.094 0l-9.417 9.417c-6.377 6.377-16.717 6.377-23.094 0l-9.418-9.417c-6.377-6.377-16.717-6.377-23.094 0l-20.965 20.965v20.404c0 10.666 8.646 19.312 19.312 19.312h156.446c10.666 0 19.312-8.646 19.312-19.312v-20.404l-20.965-20.965c-6.377-6.377-16.717-6.377-23.094 0l-9.417 9.417c-6.378 6.377-16.718 6.377-23.095 0z" fill="#e7889d"/><path d="m321.846 284.381c31.126 0 56.358-25.232 56.358-56.358h-112.715c0 31.125 25.232 56.358 56.357 56.358z" fill="#f2d98d"/><path d="m259.398 329.826c-4.142 0-7.5 3.357-7.5 7.5v12c0 4.143 3.358 7.5 7.5 7.5s7.5-3.357 7.5-7.5v-12c0-4.143-3.358-7.5-7.5-7.5zm247.863-24.532-53.748-53.747c-20.006-20.006-46.607-31.024-74.9-31.024h-15.705l-33.561-33.562v-14.862c17.673-3.704 29.913-19.805 28.657-38.023-1.236-17.92-15.682-32.365-33.602-33.602-17.627-1.213-33.501 10.314-37.738 27.42-.996 4.021 1.457 8.087 5.477 9.083 4.023.993 8.087-1.457 9.083-5.477 2.482-10.021 11.792-16.785 22.145-16.061 10.49.724 18.946 9.179 19.669 19.668.756 10.969-6.804 20.626-17.585 22.465-6.436 1.097-11.107 6.624-11.107 13.143v1.917c-18.94-15.694-42.534-24.237-67.443-24.237h-15.705l-33.562-33.562v-14.863c17.673-3.704 29.913-19.805 28.657-38.021-1.236-17.92-15.682-32.365-33.602-33.602-17.629-1.196-33.501 10.315-37.738 27.42-.996 4.021 1.456 8.087 5.477 9.083 4.024.993 8.087-1.457 9.083-5.478 2.482-10.019 11.798-16.786 22.146-16.06 10.49.724 18.946 9.179 19.669 19.668.757 10.968-6.804 20.625-17.587 22.465-6.435 1.098-11.105 6.626-11.105 13.143v16.246l-33.561 33.562h-15.705c-26.904 0-52.556 10.102-72.232 28.448-3.029 2.824-3.195 7.57-.371 10.6 2.825 3.031 7.571 3.196 10.6.371 15.271-14.238 34.74-22.667 55.4-24.157 3.844 31.561 30.787 56.095 63.369 56.095 32.583 0 59.525-24.534 63.369-56.095 21.799 1.555 42.085 10.763 57.691 26.37l.041.041-30.454 30.455h-15.703c-28.293 0-54.894 11.019-74.901 31.024l-53.747 53.747c-6.299 6.299-6.299 16.548 0 22.847l38.59 38.591c6.315 6.314 16.532 6.313 22.846 0l18.942-18.942v48.805h-104.896c-6.513 0-11.812-5.299-11.812-11.812v-127.229c0-6.66-8.083-10.024-12.803-5.304l-31.745 31.745c-.451.45-1.183.452-1.634 0l-38.59-38.59c-.45-.45-.45-1.184-.001-1.633l31.039-31.039c2.929-2.93 2.929-7.678 0-10.607-2.929-2.928-7.678-2.928-10.607 0l-31.039 31.04c-6.297 6.298-6.297 16.547 0 22.846l38.591 38.591c6.298 6.298 16.546 6.298 22.846 0l18.942-18.942v109.121c0 14.784 12.028 26.812 26.812 26.812h104.897v45.316c0 14.784 12.028 26.813 26.812 26.813h112.178c4.142 0 7.5-3.357 7.5-7.5s-3.358-7.5-7.5-7.5h-112.177c-6.513 0-11.812-5.299-11.812-11.813v-17.298l18.768-18.768c3.448-3.449 9.036-3.453 12.487.001l9.417 9.416c9.31 9.312 24.386 9.317 33.701.001l9.418-9.418c3.448-3.449 9.036-3.453 12.487.001l9.417 9.416c9.31 9.312 24.387 9.317 33.702.001l9.418-9.418c3.448-3.449 9.036-3.453 12.487.001l18.768 18.767v17.297c0 6.514-5.299 11.813-11.812 11.813h-8.061c-4.142 0-7.5 3.357-7.5 7.5s3.358 7.5 7.5 7.5h8.061c14.784 0 26.812-12.028 26.812-26.813v-109.121l18.942 18.942c6.299 6.299 16.548 6.297 22.846 0l38.591-38.591c6.299-6.298 6.299-16.547.001-22.846zm-317.124-176.748 19.848 19.849h-39.696zm0 76.206c-24.39 0-44.662-17.965-48.281-41.357h96.563c-3.619 23.392-23.891 41.357-48.282 41.357zm131.709-4.077 19.848 19.848h-39.696zm48.282 34.848c-3.619 23.393-23.891 41.357-48.281 41.357s-44.662-17.965-48.281-41.357zm126.526 82.011-38.591 38.591c-.45.452-1.183.45-1.633 0l-31.745-31.745c-2.145-2.145-5.372-2.786-8.173-1.625-2.803 1.16-4.63 3.896-4.63 6.929v88.716l-8.161-8.16c-9.31-9.312-24.387-9.317-33.701-.001l-9.418 9.418c-3.448 3.449-9.036 3.453-12.488-.001l-9.417-9.416c-9.31-9.312-24.387-9.317-33.701-.001l-9.418 9.418c-3.448 3.449-9.036 3.453-12.487-.001l-9.417-9.416c-9.31-9.312-24.387-9.316-33.701-.001l-8.161 8.161v-88.716c0-3.033-1.827-5.769-4.63-6.929-2.8-1.161-6.028-.52-8.173 1.625-33.323 33.055-31.556 32.084-32.562 32.084-.964 0 1.581 1.787-39.407-38.93-.45-.45-.45-1.182 0-1.632l53.747-53.747c15.607-15.607 35.894-24.815 57.691-26.37 3.844 31.561 30.787 56.095 63.369 56.095s59.525-24.534 63.369-56.095c21.798 1.555 42.084 10.763 57.691 26.37l53.747 53.747c.45.45.45 1.181 0 1.632zm-153.416 25.78c-3.123-2.722-7.86-2.396-10.581.728-2.729 3.132-6.669 4.928-10.81 4.928s-8.081-1.796-10.81-4.928c-2.721-3.123-7.458-3.449-10.581-.728s-3.448 7.459-.727 10.581c5.579 6.402 13.641 10.074 22.119 10.074s16.54-3.672 22.118-10.074c2.72-3.122 2.395-7.861-.728-10.581zm41.057-13.488c-4.142 0-7.5 3.357-7.5 7.5v12c0 4.143 3.358 7.5 7.5 7.5s7.5-3.357 7.5-7.5v-12c0-4.143-3.358-7.5-7.5-7.5z"/></g></svg>