<svg id="Capa_1" enable-background="new 0 0 512.009 512.009" height="512" viewBox="0 0 512.009 512.009" width="512" xmlns="http://www.w3.org/2000/svg"><g><path d="m504.509 299.539v-245.03c0-15.254-12.366-27.62-27.62-27.62h-180.715c-15.254 0-27.62 12.366-27.62 27.62v245.03c0 15.254 12.366 27.62 27.621 27.62h180.715c15.253 0 27.619-12.366 27.619-27.62z" fill="#cde9fa"/><path d="m338.861 139.199h-70.308v160.34c0 15.254 12.366 27.62 27.621 27.62h101.748v-128.9c0-32.566-26.494-59.06-59.061-59.06z" fill="#a2ddfd"/><path d="m367.921 456.06v-257.801c0-16.049-13.01-29.06-29.06-29.06h-190.134c-16.049 0-29.06 13.01-29.06 29.06v257.801c0 16.049 13.011 29.06 29.06 29.06h190.134c16.05 0 29.06-13.011 29.06-29.06z" fill="#fbf1cf"/><path d="m148.728 169.199c-16.049 0-29.06 13.01-29.06 29.06v57.027c9.872 2.802 20.285 4.303 31.042 4.303 54.731 0 100.558-38.832 111.39-90.39z" fill="#fae0bd"/><path d="m16.496 279.985c-11.983-11.983-11.983-31.411 0-43.394l78.91-78.91c11.983-11.984 31.411-11.984 43.394 0 11.984 11.983 11.984 31.411 0 43.394l-78.91 78.91c-11.981 11.982-31.411 11.984-43.394 0z" fill="#e0b799"/><path d="m95.407 157.68-43.875 43.875c10.23 18.117 25.278 33.164 43.394 43.394l43.875-43.875c11.984-11.983 11.984-31.411 0-43.394-11.983-11.984-31.411-11.984-43.394 0z" fill="#d99a84"/><circle cx="150.71" cy="145.771" fill="#59636f" r="83.818"/><circle cx="150.71" cy="145.771" fill="#cde9fa" r="49.445"/><path d="m163.395 193.567-60.48-60.48c3.361-12.698 11.647-23.386 22.69-29.909l67.699 67.699c-6.524 11.043-17.212 19.328-29.909 22.69z" fill="#a2ddfd"/><g><g><ellipse cx="159.948" cy="422.538" fill="#eda1ab" rx="30.938" ry="24.637"/><ellipse cx="327.641" cy="422.538" fill="#eda1ab" rx="30.938" ry="24.637"/><ellipse cx="243.795" cy="403.608" fill="#4e5660" rx="16.423" ry="18.377"/></g></g><path d="m296.703 243.07c4.143 0 7.5-3.357 7.5-7.5s-3.357-7.5-7.5-7.5h-49.135c-4.142 0-7.5 3.357-7.5 7.5s3.358 7.5 7.5 7.5zm-131.583 130.237c-4.142 0-7.5 3.358-7.5 7.5v12c0 4.143 3.358 7.5 7.5 7.5s7.5-3.357 7.5-7.5v-12c0-4.142-3.358-7.5-7.5-7.5zm131.054-38.647c4.143 0 7.5-3.357 7.5-7.5s-3.357-7.5-7.5-7.5h-104.758c-4.142 0-7.5 3.357-7.5 7.5s3.358 7.5 7.5 7.5zm-112.258-47.644c0 4.143 3.358 7.5 7.5 7.5h104.758c4.143 0 7.5-3.357 7.5-7.5s-3.357-7.5-7.5-7.5h-104.758c-4.142 0-7.5 3.357-7.5 7.5zm309.079-263.723c-3.68-1.902-8.204-.461-10.106 3.22-1.901 3.68-.46 8.205 3.22 10.106 6.724 3.475 10.9 10.329 10.9 17.89v245.03c0 11.095-9.025 20.12-20.12 20.12h-101.467v-121.4c0-4.857-.96-9.492-2.687-13.735h66.176c4.142 0 7.5-3.357 7.5-7.5s-3.358-7.5-7.5-7.5h-77.486c-6.22-4.894-14.053-7.825-22.563-7.825l-62.809.001v-107.191c0-11.095 9.026-20.12 20.121-20.12h156.009c4.143 0 7.5-3.358 7.5-7.5 0-4.143-3.357-7.5-7.5-7.5h-156.009c-19.366 0-35.121 15.755-35.121 35.12v107.19h-20.417c9.912-56.122-33.471-107.247-89.926-107.247-50.353 0-91.318 40.966-91.318 91.319 0 11.124 2.002 21.789 5.661 31.656l-53.859 53.858c-14.921 14.922-14.927 39.076 0 54.001 14.921 14.923 39.076 14.926 54.001.001l46.974-46.974v217.747c0 20.159 16.401 36.559 36.56 36.559h8.946c4.142 0 7.5-3.357 7.5-7.5 0-4.142-3.358-7.5-7.5-7.5h-8.946c-11.888 0-21.56-9.672-21.56-21.559v-222.052c46.362 12.381 93.572-13.287 109.465-57.308l102.228-.001c11.889 0 21.561 9.672 21.561 21.561v257.8c0 11.888-9.672 21.559-21.561 21.559h-143.592c-4.142 0-7.5 3.358-7.5 7.5 0 4.143 3.358 7.5 7.5 7.5h143.591c20.159 0 36.561-16.4 36.561-36.559v-121.4h101.467c19.365 0 35.12-15.755 35.12-35.12v-245.031c0-13.193-7.286-25.155-19.014-31.216zm-438.408 251.389c-9.057 9.059-23.725 9.063-32.788-.001-9.06-9.06-9.062-23.726.001-32.787l50.078-50.078c7.935 13.534 19.254 24.852 32.787 32.788zm96.123-52.592c-42.082 0-76.318-34.236-76.318-76.318 0-42.083 34.236-76.319 76.318-76.319 42.083 0 76.319 34.236 76.319 76.319 0 42.082-34.237 76.318-76.319 76.318zm183.442-92.709c-4.143 0-7.5 3.357-7.5 7.5s3.357 7.5 7.5 7.5h104.758c4.142 0 7.5-3.357 7.5-7.5s-3.358-7.5-7.5-7.5zm-4.182 263.426v-12c0-4.142-3.357-7.5-7.5-7.5s-7.5 3.358-7.5 7.5v12c0 4.143 3.357 7.5 7.5 7.5 4.142 0 7.5-3.357 7.5-7.5zm-179.26-303.98c-31.399 0-56.945 25.546-56.945 56.945s25.546 56.944 56.945 56.944 56.945-25.545 56.945-56.944-25.546-56.945-56.945-56.945zm0 98.889c-23.128 0-41.945-18.816-41.945-41.944 0-23.129 18.816-41.945 41.945-41.945s41.945 18.816 41.945 41.945c0 23.128-18.817 41.944-41.945 41.944zm69.162 215.892c0 14.269 10.732 25.877 23.923 25.877s23.923-11.608 23.923-25.877c0-14.268-10.732-25.877-23.923-25.877s-23.923 11.608-23.923 25.877zm32.846 0c0 5.998-4.003 10.877-8.923 10.877s-8.923-4.879-8.923-10.877 4.003-10.877 8.923-10.877 8.923 4.879 8.923 10.877z"/></g></svg>