<svg id="Capa_1" enable-background="new 0 0 512.001 512.001" height="512" viewBox="0 0 512.001 512.001" width="512" xmlns="http://www.w3.org/2000/svg"><g><g><path d="m254.056 335.096-40.083-40.083c-8.396-8.396-8.396-22.008 0-30.404l183.574-183.574c8.396-8.396 22.008-8.396 30.404 0l40.083 40.083c8.396 8.396 8.396 22.008 0 30.404l-183.574 183.574c-8.396 8.396-22.008 8.396-30.404 0z" fill="#a7a7a7"/><g><path d="m208.778 105.252c.434-35.147 16.102-65.819 34.749-90.142 8.989-11.725 27.103-9.513 33.125 3.978 13.231 29.64 37.895 53.896 37.895 87.658 0 29.389-23.971 53.179-53.427 52.886-29.142-.29-52.701-25.24-52.342-54.38z" fill="#b0ade2"/><path d="m314.546 106.746c0-15.152-4.973-28.387-11.645-41.056-47.07 19.37-58.332-7.406-85.471-4.787-5.203 13.775-8.457 28.611-8.651 44.348-.359 29.141 23.2 54.091 52.341 54.381 29.456.293 53.427-23.497 53.426-52.886z" fill="#e0b799"/><path d="m307.535 157.408c11.862 64.428 8.999 125.145-11.081 168.908-13.607 29.655-55.985 29.655-69.592 0-20.08-43.763-22.943-104.479-11.081-168.908 2.098-11.398 12.078-19.654 23.667-19.654h44.419c11.59 0 21.569 8.255 23.668 19.654z" fill="#e7889d"/><path d="m312.757 194.441c-1.172-12.113-2.913-24.46-5.207-36.948-2.101-11.431-12.064-19.739-23.686-19.74h-44.41c-11.622 0-21.585 8.309-23.686 19.74-2.295 12.488-4.036 24.835-5.208 36.948z" fill="#59636f"/></g><g><path d="m47.079 130.867 178.964 178.964c7.706 7.707 17.23 13.348 27.691 16.404l26.589 7.767c17.451 5.098 33.646-11.097 28.549-28.549l-7.767-26.589c-3.056-10.461-8.697-19.985-16.404-27.691l-178.964-178.964c-12.553-12.553-32.905-12.553-45.458 0l-13.2 13.201c-12.553 12.553-12.553 32.905 0 45.457z" fill="#f6ee86"/><path d="m241.171 321.053 54.752-54.752c2.146 3.985 3.904 8.185 5.182 12.563l7.767 26.589c5.098 17.452-11.097 33.647-28.549 28.549l-26.589-7.767c-4.378-1.278-8.578-3.035-12.563-5.182z" fill="#59636f"/><path d="m76.505 160.294-29.426-29.426c-12.553-12.553-12.553-32.905 0-45.458l13.201-13.201c12.553-12.553 32.905-12.553 45.458 0l29.426 29.426z" fill="#e7889d"/><path d="m98.437 107.346h50.512v82.955h-50.512z" fill="#59636f" transform="matrix(.707 .707 -.707 .707 141.462 -43.875)"/></g></g><path d="m416.728 292.773h-294.832l18.912 166.968c2.888 25.496 24.457 44.76 50.116 44.76h156.776c25.659 0 47.229-19.264 50.116-44.76z" fill="#88d37f"/><path d="m125.294 322.772h288.037l3.398-29.999h-294.833z" fill="#5ec682"/><g><g fill="#fff"><ellipse cx="185.747" cy="395.888" rx="30.834" ry="24.555"/><ellipse cx="352.878" cy="395.888" rx="30.834" ry="24.555"/></g></g><path d="m190.924 504.501h156.776c25.659 0 47.228-19.264 50.116-44.76h-257.008c2.888 25.496 24.457 44.76 50.116 44.76z" fill="#59636f"/><path d="m430.203 292.773h-321.782c-9.592 0-16.883-8.623-15.289-18.082l2.736-16.227c2.534-15.03 15.549-26.034 30.791-26.034h285.307c15.242 0 28.257 11.004 30.791 26.034l2.736 16.227c1.594 9.459-5.697 18.082-15.29 18.082z" fill="#cde9fa"/><path d="m245.195 232.43h-118.536c-15.242 0-28.257 11.004-30.791 26.034l-2.736 16.227c-1.595 9.459 5.696 18.082 15.289 18.082h148.059c-12.159-13.993-16.543-39.49-11.285-60.343z" fill="#a2ddfd"/><path d="m203.718 379.448c4.143 0 7.5-3.358 7.5-7.5v-12c0-4.143-3.357-7.5-7.5-7.5s-7.5 3.357-7.5 7.5v12c0 4.143 3.357 7.5 7.5 7.5zm119.6-.334c4.143 0 7.5-3.357 7.5-7.5 0-3.532 2.874-6.406 6.406-6.406s6.406 2.874 6.406 6.406c0 4.143 3.357 7.5 7.5 7.5s7.5-3.357 7.5-7.5c0-11.804-9.602-21.406-21.406-21.406s-21.406 9.603-21.406 21.406c0 4.143 3.358 7.5 7.5 7.5zm150.02-263.3-40.083-40.082c-8.452-8.453-21.458-10.85-32.364-5.965-3.78 1.693-5.473 6.13-3.779 9.91 1.693 3.781 6.134 5.474 9.91 3.779 5.268-2.358 11.546-1.199 15.627 2.882l40.083 40.083c5.458 5.458 5.458 14.339 0 19.797l-12.019 12.019-19.421-19.421c-2.93-2.928-7.678-2.928-10.608 0-2.929 2.93-2.929 7.678 0 10.607l19.421 19.421-21.996 21.996-14.372-14.372c-2.93-2.928-7.678-2.928-10.607 0-2.929 2.93-2.929 7.678 0 10.607l14.372 14.372-21.997 21.997-19.42-19.421c-2.929-2.929-7.678-2.93-10.606-.001-2.93 2.929-2.93 7.678-.001 10.606l10.299 10.3h-43.782c-.255-16.822-1.719-34.685-4.483-53.251l65.672-65.672c2.929-2.93 2.929-7.678 0-10.608-2.93-2.928-7.678-2.928-10.608 0l-58.217 58.217c-.992-3.717-2.63-7.142-4.785-10.155 8.078-10.502 12.473-23.298 12.473-36.716 0-24.865-12.03-44.652-23.665-63.788-5.292-8.705-10.765-17.706-14.881-26.928-8.345-18.693-33.484-21.712-45.926-5.483-23.691 30.903-35.903 62.735-36.296 94.612-.171 13.82 4.301 27.074 12.684 38.007-4.868 6.641-5.487 12.164-6.782 19.88l-96.14-96.141c-15.495-15.489-40.57-15.492-56.066.004l-13.2 13.2c-15.456 15.457-15.456 40.607 0 56.064l29.417 29.417c.003.003.006.007.009.01s.007.006.01.009l35.699 35.699c.003.003.006.007.009.01s.007.006.01.009l23.605 23.605h-3.875c-18.973 0-35.032 13.579-38.187 32.287l-2.735 16.228c-2.363 14.016 8.438 26.829 22.684 26.829h6.777l18.157 160.311c2.682 23.669 19.244 43.039 42.196 49.348 3.961 1.092 8.113-1.22 9.22-5.243 1.099-3.994-1.25-8.122-5.243-9.22-14.218-3.908-25.123-14.585-29.48-28.229h238.517c-5.603 17.438-21.907 29.761-40.865 29.761h-134.897c-4.143 0-7.5 3.357-7.5 7.5s3.357 7.5 7.5 7.5h134.897c29.5 0 54.25-22.105 57.569-51.417l.007-.065c2.821-24.908 15.326-135.314 18.15-160.245h6.776c14.215 0 25.053-12.78 22.685-26.829l-2.735-16.228c-3.154-18.708-19.214-32.287-38.186-32.287h-6.732l68.104-68.104c11.306-11.307 11.306-29.705 0-41.012zm-223.859-96.14c5.608-7.313 16.66-5.735 20.324 2.471 6.289 14.091 14.911 26.781 22.304 39.542-31.733 10.33-42.536-4.553-63.57-7.878 5.289-11.432 12.273-22.827 20.942-34.135zm-26.719 48.597c19.599 1.025 35.185 21.213 76.46 6.835 9.316 19.917 11.882 41.115-1.045 58.571-4.319-2.193-9.188-3.422-14.307-3.422h-44.42c-4.99 0-9.743 1.17-13.98 3.26-6.08-8.17-9.317-17.972-9.191-28.17.152-12.333 2.325-24.712 6.483-37.074zm83.128 133.67c.617 7.794.984 15.463 1.104 22.988h-37.928l-22.988-22.988zm-74.812-15-10.758-10.758c.838-5.854 1.786-11.697 2.839-17.418 1.441-7.829 8.293-13.512 16.291-13.512h44.42c8.169 0 14.887 5.886 16.291 13.512 1.752 9.516 3.171 18.92 4.257 28.176zm-178.693-61.378c-9.631-9.629-9.633-25.217 0-34.851l13.2-13.2c9.607-9.607 25.243-9.609 34.851 0l24.123 24.123-48.051 48.051zm34.73 34.73 48.051-48.051 25.11 25.111-48.05 48.05zm35.717 35.718 48.051-48.051 76.969 76.969h-37.443l-24.034-24.034c-2.93-2.928-7.678-2.928-10.607 0-2.929 2.93-2.929 7.678 0 10.607l13.427 13.427h-37.442zm268.289 256.229h-243.613l-17.212-151.967h278.038zm20.847-212.31c11.624 0 21.463 8.319 23.395 19.781l2.735 16.228c.816 4.833-2.879 9.335-7.894 9.335h-321.781c-4.958 0-8.719-4.439-7.893-9.335l2.735-16.228c1.933-11.462 11.771-19.781 23.396-19.781zm-142.654 147.324c8.796 0 17.16-3.81 22.948-10.451 2.722-3.123 2.396-7.86-.727-10.582-3.125-2.722-7.861-2.397-10.582.727-2.939 3.372-7.182 5.307-11.64 5.307s-8.701-1.935-11.64-5.307c-2.723-3.122-7.46-3.447-10.582-.727-3.122 2.722-3.448 7.459-.727 10.582 5.79 6.641 14.154 10.451 22.95 10.451z"/></g></svg>