<svg id="Capa_1" enable-background="new 0 0 512 512" height="512" viewBox="0 0 512 512" width="512" xmlns="http://www.w3.org/2000/svg"><g><path d="m126.37 464.029h-21.511c-11.408 0-20.655-9.248-20.655-20.655v-68.884h62.821v68.883c0 11.408-9.247 20.656-20.655 20.656z" fill="#a7a7a7"/><path d="m84.204 374.49h62.821v56.921h-62.821z" fill="#8b97a5"/><path d="m147.16 401.411h-63.091c-11.201 0-20.913-7.747-23.404-18.668l-8.021-35.174h125.939l-8.021 35.174c-2.489 10.921-12.201 18.668-23.402 18.668z" fill="#59636f"/><path d="m385.63 464.029h21.511c11.408 0 20.655-9.248 20.655-20.655v-68.884h-62.821v68.883c0 11.408 9.247 20.656 20.655 20.656z" fill="#a7a7a7"/><path d="m364.975 374.49h62.821v56.921h-62.821z" fill="#8b97a5"/><path d="m364.84 401.411h63.091c11.201 0 20.913-7.747 23.404-18.668l8.021-35.174h-125.94l8.021 35.174c2.49 10.921 12.202 18.668 23.403 18.668z" fill="#59636f"/><path d="m485.688 347.57h-459.376c-10.39 0-18.812-8.423-18.812-18.812v-26.311c0-10.39 8.423-18.812 18.812-18.812h459.375c10.39 0 18.812 8.422 18.812 18.812v26.311c.001 10.389-8.422 18.812-18.811 18.812z" fill="#a2ddfd"/><path d="m26.312 283.634c-10.39 0-18.812 8.423-18.812 18.812v26.311c0 10.39 8.423 18.812 18.812 18.812h210.43c-18.216-13.677-25.223-48.389-19.948-63.936h-190.482z" fill="#7acefa"/><path d="m290.813 47.971h-38.473c-16.029 0-29.022 12.994-29.022 29.022v177.618c0 16.029 12.994 29.022 29.022 29.022h38.473c16.029 0 29.022-12.994 29.022-29.022v-177.618c0-16.028-12.994-29.022-29.022-29.022z" fill="#b0ade2"/><path d="m223.318 224.548v30.064c0 16.028 12.994 29.022 29.022 29.022h38.473c16.029 0 29.022-12.994 29.022-29.022v-30.064z" fill="#88d37f"/><path d="m341.307 117.804-13.789 13.789c-10.243 10.243-10.243 26.851 0 37.095l107.263 107.263c10.243 10.243 26.851 10.243 37.095 0l13.789-13.789c10.243-10.243 10.243-26.851 0-37.095l-107.263-107.263c-10.244-10.243-26.851-10.243-37.095 0z" fill="#e7889d"/><path d="m156.699 91.724h-104.86c-10.998 0-18.36 11.438-13.67 21.386 7.303 15.491 11.549 28.537 11.549 39.88 0 27.48-22.565 31.301-22.565 77.368 0 14.11 3.949 27.316 10.821 38.617 5.526 9.087 15.37 14.658 26.005 14.658h80.58c10.635 0 20.48-5.572 26.005-14.658 6.872-11.301 10.82-24.506 10.82-38.617 0-46.067-22.565-49.888-22.565-77.368 0-11.343 4.246-24.389 11.549-39.88 4.691-9.947-2.671-21.386-13.669-21.386z" fill="#f6ee86"/><path d="m37.974 268.976c5.526 9.087 15.37 14.658 26.005 14.658h79.416c-80.947-40.481-71.782-141.123-60.753-191.91h-30.803c-10.998 0-18.36 11.438-13.67 21.386 7.303 15.491 11.549 28.537 11.549 39.88 0 27.48-22.565 31.301-22.565 77.368 0 14.111 3.949 27.317 10.821 38.618z" fill="#f2d98d"/><path d="m167.584 180.27c-18.6-.4-36.283 12.391-63.315 12.391s-44.715-12.791-63.315-12.391c-6.341 11.082-13.801 23.602-13.801 50.089 0 14.111 3.949 27.316 10.821 38.617 5.526 9.087 15.37 14.658 26.005 14.658h80.58c10.635 0 20.48-5.572 26.005-14.658 6.872-11.301 10.821-24.506 10.821-38.617 0-26.487-7.46-39.007-13.801-50.089z" fill="#e0b799"/><path d="m37.974 268.976c5.526 9.087 15.37 14.658 26.005 14.658h79.416c-41.466-20.737-59.291-57.254-65.321-94.781-13.773-3.735-25.262-8.839-37.12-8.584-6.341 11.082-13.801 23.602-13.801 50.089 0 14.111 3.949 27.317 10.821 38.618z" fill="#d99a84"/><circle cx="271.576" cy="133.586" fill="#fff" r="17.473"/><path d="m271.577 108.613c-13.77 0-24.973 11.203-24.973 24.973s11.203 24.974 24.973 24.974 24.973-11.203 24.973-24.974c-.001-13.77-11.203-24.973-24.973-24.973zm0 34.947c-5.499 0-9.973-4.475-9.973-9.974s4.474-9.973 9.973-9.973 9.973 4.474 9.973 9.973c-.001 5.499-4.474 9.974-9.973 9.974zm214.11 132.574h-3.387l8.668-8.668c13.181-13.182 13.183-34.518 0-47.702l-76.429-76.428c-.001-.001-.001-.002-.002-.002-.001-.001-.001-.001-.002-.002l-30.829-30.829c-13.18-13.181-34.519-13.186-47.702 0v-.001l-8.669 8.669v-44.178c0-20.138-16.384-36.522-36.522-36.522h-38.473c-20.139 0-36.522 16.384-36.522 36.522v177.618c0 8.043 2.619 15.482 7.04 21.522h-48.137c7.506-9.828 14.163-27.439 14.163-45.774 0-65.388-41.618-50.65-11.732-114.051 7.025-14.9-3.936-32.084-20.453-32.084h-61.398c-4.142 0-7.5 3.357-7.5 7.5s3.358 7.5 7.5 7.5h61.398c5.582 0 9.199 5.78 6.885 10.688-10.259 21.764-17.206 42.738-7.795 63.977-15.919 3.091-30.822 11.271-51.521 11.271-20.692 0-35.693-8.2-51.516-11.28 9.45-21.335 2.418-42.294-7.799-63.968-2.313-4.906 1.3-10.688 6.886-10.688h7.984c4.142 0 7.5-3.357 7.5-7.5s-3.358-7.5-7.5-7.5h-7.984c-16.542 0-27.469 17.203-20.454 32.084 29.955 63.539-11.732 48.2-11.732 114.051 0 18.286 6.648 35.933 14.163 45.774h-7.504c-14.508.001-26.312 11.805-26.312 26.313v26.311c0 14.509 11.804 26.313 26.312 26.313h20.35l6.691 29.341c2.727 11.958 11.875 20.92 23.351 23.638v35.326c0 15.524 12.63 28.154 28.155 28.154h21.511c15.525 0 28.155-12.63 28.155-28.154v-35.326c11.476-2.719 20.624-11.68 23.351-23.638l6.691-29.341h142.866l6.691 29.341c2.727 11.958 11.874 20.92 23.351 23.638v35.326c0 15.524 12.63 28.154 28.155 28.154h6.222c4.142 0 7.5-3.357 7.5-7.5s-3.358-7.5-7.5-7.5h-6.222c-7.254 0-13.155-5.901-13.155-13.154v-34.463h47.821v34.463c0 2.498-.701 4.925-2.027 7.02-2.215 3.5-1.175 8.133 2.325 10.349 3.484 2.206 8.123 1.19 10.349-2.325 2.848-4.498 4.353-9.7 4.353-15.043v-35.326c11.476-2.719 20.624-11.68 23.351-23.638l6.691-29.341h20.35c14.509 0 26.313-11.804 26.313-26.313v-26.311c-.001-14.509-11.805-26.313-26.314-26.313zm-5.325-45.763c7.318 7.317 7.321 19.168 0 26.487l-13.789 13.79c-7.321 7.319-19.168 7.321-26.488-.001l-71.127-71.127 40.277-40.277zm-147.541-93.473 13.79-13.789s0 0 0-.001c7.321-7.319 19.168-7.321 26.488.001l25.528 25.528-40.277 40.277-25.529-25.529c-7.319-7.318-7.321-19.168 0-26.487zm-5.486 117.713v-75.499c4.56 4.56 82.492 82.492 97.022 97.021h-104.063c4.422-6.04 7.041-13.479 7.041-21.522zm-96.517-177.618c0-11.867 9.655-21.522 21.522-21.522h38.473c11.867 0 21.522 9.654 21.522 21.522v140.055h-81.517zm0 155.055h81.517v22.563c0 11.867-9.655 21.522-21.522 21.522h-38.473c-11.868 0-21.522-9.655-21.522-21.522zm-185.591-44.12c15.595 1.475 33.136 12.232 59.042 12.232 25.948 0 43.426-10.755 59.042-12.233 5.472 9.781 10.574 20.891 10.574 42.432 0 12.248-3.364 24.253-9.729 34.72-4.146 6.818-11.656 11.055-19.597 11.055h-80.58c-7.941 0-15.451-4.236-19.597-11.055-6.365-10.467-9.729-22.473-9.729-34.72 0-21.54 5.101-32.65 10.574-42.431zm94.298 255.446c0 7.253-5.901 13.154-13.155 13.154h-21.511c-7.254 0-13.155-5.901-13.155-13.154v-34.463h47.821zm23.726-62.298c-1.723 7.557-8.34 12.835-16.091 12.835h-63.091c-7.751 0-14.368-5.278-16.091-12.836l-5.93-26.006h107.133zm280.77 0c-1.723 7.557-8.34 12.835-16.091 12.835h-63.09c-7.751 0-14.368-5.278-16.091-12.836l-5.931-26.006h107.134zm52.979-52.319c0 6.237-5.075 11.313-11.313 11.313-17.262 0-429.661 0-459.375 0-6.238 0-11.312-5.075-11.312-11.313v-26.311c0-6.237 5.075-11.313 11.312-11.313h459.375c6.238 0 11.313 5.075 11.313 11.313z"/></g></svg>