<svg id="Capa_1" enable-background="new 0 0 511.996 511.996" height="512" viewBox="0 0 511.996 511.996" width="512" xmlns="http://www.w3.org/2000/svg"><g><path d="m27.714 394.95c-14.145-3.382-22.87-17.592-19.487-31.737 3.382-14.146 17.594-22.873 31.737-19.487 31.314 7.488 67.425-.03 80.252-11.461 10.859-9.675 27.505-8.717 37.181 2.142 9.676 10.858 8.718 27.505-2.141 37.181-25.396 22.629-77.801 35.258-127.542 23.362z" fill="#88d37f"/><path d="m120.215 332.265c-12.827 11.431-48.938 18.948-80.252 11.461-2.484-.595-4.969-.808-7.399-.692 14.211 24.153 31.932 43.899 47.183 55.999 31.14-2.285 59.019-12.753 75.508-27.446 10.858-9.676 11.817-26.323 2.141-37.181s-26.322-11.816-37.181-2.141z" fill="#5ec682"/><path d="m484.283 394.95c14.145-3.382 22.87-17.592 19.487-31.737-3.382-14.146-17.594-22.873-31.737-19.487-31.314 7.488-67.424-.03-80.252-11.461-10.859-9.675-27.506-8.717-37.181 2.142-9.676 10.858-8.718 27.505 2.141 37.181 25.395 22.629 77.8 35.258 127.542 23.362z" fill="#88d37f"/><path d="m391.781 332.265c12.827 11.431 48.938 18.948 80.252 11.461 2.484-.595 4.97-.808 7.399-.692-14.211 24.153-31.932 43.899-47.183 55.999-31.14-2.285-59.019-12.753-75.508-27.446-10.858-9.676-11.817-26.323-2.141-37.181s26.322-11.816 37.181-2.141z" fill="#5ec682"/><path d="m90.15 368.314c87.255 84.169 217.751-45.622 129.321-134.052-53.337-53.337-126.264-61.345-164.984-61.382-15.515-.015-28.121 12.591-28.106 28.106.059 61.668 18.959 124.102 63.769 167.328z" fill="#e7889d"/><path d="m114.955 179.365c-10.462 29.082-17.22 61.533-17.22 96.868 0 61.132 27.048 98.479 49.876 119.106 74.464 5.138 141.972-90.966 71.86-161.078-31.685-31.685-70.283-47.373-104.516-54.896z" fill="#e16e7e"/><path d="m421.847 368.314c-87.255 84.169-217.751-45.622-129.321-134.052 53.337-53.337 126.264-61.345 164.984-61.382 15.515-.015 28.121 12.591 28.106 28.106-.06 61.668-18.959 124.102-63.769 167.328z" fill="#e7889d"/><path d="m397.042 179.365c10.462 29.082 17.22 61.533 17.22 96.868 0 61.132-27.048 98.479-49.876 119.106-74.464 5.138-141.972-90.966-71.86-161.078 31.685-31.685 70.282-47.373 104.516-54.896z" fill="#e16e7e"/><path d="m374.261 276.233c0-95.781-58.288-168.452-93.022-203.254-13.931-13.958-36.551-13.958-50.482 0-34.734 34.802-93.022 107.472-93.022 203.254 0 159.53 236.526 159.09 236.526 0z" fill="#e7889d"/><path d="m246.992 447.888-86.714-31.561c-13.667-4.974-20.714-20.086-15.739-33.753 4.974-13.667 20.087-20.712 33.753-15.739l86.715 31.561c13.667 4.974 20.714 20.086 15.739 33.753-4.959 13.621-20.045 20.729-33.754 15.739z" fill="#5ec682"/><path d="m231.252 432.149c-4.975-13.667 2.072-28.78 15.739-33.753l86.713-31.561c13.667-4.975 28.779 2.074 33.753 15.739 4.975 13.667-2.072 28.78-15.739 33.753l-86.714 31.561c-13.716 4.993-28.796-2.123-33.752-15.739z" fill="#88d37f"/><g><g fill="#fff"><ellipse cx="182.742" cy="278.319" rx="27.03" ry="21.525"/><ellipse cx="329.255" cy="278.319" rx="27.03" ry="21.525"/></g></g><path d="m294.627 244.562c-3.122 2.722-3.448 7.459-.727 10.582 4.943 5.673 12.088 8.926 19.601 8.926s14.657-3.253 19.601-8.926c2.722-3.123 2.396-7.86-.727-10.582-3.125-2.722-7.86-2.395-10.582.727-2.094 2.403-5.116 3.781-8.292 3.781s-6.198-1.378-8.292-3.781c-2.723-3.123-7.46-3.448-10.582-.727zm216.438 116.907c-4.346-18.178-22.589-29.393-40.774-25.038-4.621 1.104-9.553 1.882-14.638 2.332 24.322-37.771 37.412-85.257 37.462-137.769.02-19.593-15.832-35.613-35.612-35.613-23.581.022-58.526 2.911-94.517 16.059-9.949-25.043-23.76-49.58-41.256-73.054-2.477-3.321-7.176-4.007-10.496-1.531s-4.006 7.175-1.531 10.496c26.03 34.923 57.06 90.836 57.06 158.884 0 34.007-11.47 62.582-33.181 82.779-2.621.736 1.817-.728-77.582 28.123-79.283-28.803-74.994-27.413-77.77-28.176-21.589-20.177-32.993-48.733-32.993-82.727 0-93.056 56.908-163.968 90.831-197.956 11.01-11.031 28.856-11.031 39.865 0 3.87 3.879 7.714 7.913 11.424 11.988 2.789 3.064 7.533 3.286 10.595.499 3.063-2.788 3.287-7.532.499-10.595-3.864-4.245-7.867-8.447-11.9-12.488-16.874-16.906-44.224-16.91-61.099 0-22.979 23.023-56.016 62.273-76.518 113.728-29.734-10.851-62.664-16.029-94.471-16.029-19.651 0-35.598 15.935-35.579 35.612.05 52.512 13.14 99.998 37.461 137.77-5.084-.45-10.015-1.226-14.634-2.33-18.179-4.357-36.427 6.847-40.777 25.037-4.339 18.145 6.893 36.436 25.037 40.775 31.822 7.61 67.019 6.08 97.124-4.369 4.519 1.583 9.14 2.788 13.848 3.648 1.709 5.559 4.849 10.701 9.305 14.845 3.046 2.832 7.792 2.636 10.6-.385 2.821-3.032 2.649-7.778-.384-10.6-5.557-5.168-7.471-13.115-4.875-20.245 3.551-9.76 14.381-14.811 24.14-11.257l60.308 21.95c-10.892 7.97-16.208 21.948-12.888 35.395l-36.733-13.369c-3.894-1.414-8.197.591-9.613 4.482-1.417 3.893.59 8.196 4.483 9.613 14.384 5.234 62.791 22.858 63.296 23.03 7.596 2.74 15.608 2.639 22.991-.048l86.713-31.561c9.971-3.629 17.586-11.579 20.768-21.85 4.71-.86 9.333-2.065 13.853-3.649 29.107 10.103 64.276 12.225 97.122 4.368 18.143-4.338 29.374-22.63 25.036-40.774zm-481.607 26.187c-10.101-2.416-16.353-12.599-13.938-22.699 2.419-10.119 12.572-16.364 22.699-13.936 9.169 2.191 18.955 3.253 29.139 3.192 9.957 12.658 21.952 25.085 35.642 33.817-23.622 5.396-49.565 5.361-73.542-.374zm106.474-1.662c-15.426-3.628-28.943-11.856-40.576-23.078-39.58-38.181-61.412-95.691-61.475-161.938-.005-5.498 2.137-10.67 6.032-14.566 6.569-6.57 14.667-6.053 14.567-6.033 22.325.021 55.364 2.738 89.268 15.106-8.284 24.557-13.513 51.601-13.513 80.748 0 32.875 9.627 61.378 28 83.39-11.441 3.968-20.177 13.76-22.303 26.371zm213.221 23.286-86.714 31.56c-9.772 3.563-20.58-1.474-24.14-11.256-3.552-9.759 1.497-20.589 11.256-24.141l86.714-31.56c9.758-3.555 20.586 1.498 24.14 11.257 3.573 9.813-1.506 20.591-11.256 24.14zm26.929-23.29c-2.119-12.488-10.797-22.401-22.403-26.394 18.427-22.019 28.082-50.51 28.082-83.363 0-26.919-4.615-54.043-13.602-80.715 33.935-12.395 67.013-15.117 89.357-15.139.254.051 8.071-.463 14.567 6.033 3.895 3.896 6.037 9.067 6.031 14.566-.063 66.246-21.895 123.757-61.475 161.938-11.653 11.242-25.17 19.451-40.557 23.074zm106.456 1.666c-23.977 5.733-49.92 5.77-73.542.374 13.688-8.731 25.683-21.157 35.641-33.816 10.184.064 19.971-1.003 29.142-3.195 10.123-2.421 20.276 3.812 22.696 13.938 2.421 10.125-3.811 20.276-13.937 22.699zm-275.75-142.368c-2.095 2.403-5.117 3.781-8.293 3.781s-6.198-1.378-8.292-3.781c-2.721-3.122-7.459-3.447-10.582-.727-3.123 2.722-3.448 7.459-.727 10.582 4.944 5.673 12.088 8.926 19.601 8.926 7.512 0 14.657-3.253 19.601-8.926 2.722-3.122 2.396-7.86-.726-10.581-3.123-2.723-7.861-2.397-10.582.726zm38.427 23.965c0 6.351 4.828 11.5 10.783 11.5s10.783-5.149 10.783-11.5-4.828-11.5-10.783-11.5-10.783 5.149-10.783 11.5z"/></g></svg>