<svg id="Capa_1" enable-background="new 0 0 512 512" height="512" viewBox="0 0 512 512" width="512" xmlns="http://www.w3.org/2000/svg"><g><path d="m328.442 164.391 45.901 45.901c5.93 5.93 15.544 5.93 21.474 0l65.632-65.632c5.93-5.93 5.93-15.544 0-21.474l-45.901-45.901c-5.93-5.93-15.544-5.93-21.474 0l-65.632 65.632c-5.93 5.93-5.93 15.544 0 21.474z" fill="#88d37f"/><ellipse cx="319.845" cy="129.303" fill="#e7889d" rx="58.29" ry="58.29" transform="matrix(.16 -.987 .987 .16 140.978 424.307)"/><path d="m203.789 218.997h64.913c8.386 0 15.185-6.798 15.185-15.185v-92.817c0-8.386-6.798-15.185-15.185-15.185h-64.913c-8.386 0-15.185 6.798-15.185 15.185v92.817c.001 8.386 6.799 15.185 15.185 15.185z" fill="#f6ee86"/><path d="m99.65 161.02h59.424l-35.338-97.09c-4.015-11.03-14.499-18.371-26.236-18.371h-62.08c-15.42 0-27.92 12.5-27.92 27.92s12.5 27.92 27.92 27.92h42.53z" fill="#59636f"/><path d="m99.65 161.02h59.424l-10.919-30h-59.424z" fill="#455060"/><path d="m476.58 365.353h-302.559l-74.371-204.333h364.229c18.896 0 33.597 16.426 31.508 35.206z" fill="#a2ddfd"/><path d="m153.224 308.214 20.797 57.139h302.559l6.401-57.558c-2.103-.232-4.237-.362-6.401-.362h-313.918c-3.214 0-6.364.275-9.438.781z" fill="#7acefa"/><circle cx="208.731" cy="428.142" fill="#59636f" r="38.299"/><circle cx="407.348" cy="428.142" fill="#59636f" r="38.299"/><path d="m476.58 393.272h-313.918c-15.42 0-27.92-12.5-27.92-27.92s12.5-27.92 27.92-27.92h313.918c15.42 0 27.92 12.5 27.92 27.92 0 15.421-12.5 27.92-27.92 27.92z" fill="#b0ade2"/><g><g><path d="m262.399 258.596c.007 13.438-13.667 24.338-30.541 24.346s-30.559-10.878-30.566-24.316 13.667-24.338 30.541-24.347c16.874-.007 30.559 10.879 30.566 24.317z" fill="#fff"/><path d="m366.901 258.544c.007 13.438 13.691 24.324 30.565 24.315s30.548-10.909 30.541-24.346c-.007-13.438-13.691-24.325-30.566-24.316-16.873.009-30.547 10.909-30.54 24.347z" fill="#fff"/><path d="m344.594 247.555c-.009-18.509-13.419-20.242-29.96-20.233-16.54.008-29.949 1.754-29.939 20.263.009 18.509 13.426 33.506 29.966 33.498 16.541-.008 29.942-15.019 29.933-33.528z" fill="#4e5660"/></g></g><path d="m407.347 435.581c4.108 0 7.439-3.33 7.439-7.439 0-4.108-3.33-7.438-7.439-7.438-4.108 0-7.439 3.33-7.439 7.438.001 4.108 3.331 7.439 7.439 7.439zm-152.59-227.572c-.016 0-.031 0-.047 0-11.854 0-21.535 9.574-21.562 21.516-.009 4.142 3.342 7.507 7.484 7.516h.016c4.135 0 7.491-3.348 7.5-7.484.008-3.613 2.95-6.547 6.563-6.547h.015c3.625.008 6.556 2.95 6.548 6.577-.009 4.142 3.342 7.507 7.484 7.516h.016c4.135 0 7.491-3.348 7.5-7.484.026-11.918-9.598-21.584-21.517-21.61zm-46.027 227.572c4.108 0 7.439-3.33 7.439-7.439 0-4.108-3.331-7.438-7.439-7.438s-7.438 3.33-7.438 7.438 3.33 7.439 7.438 7.439zm130.472-211.777c-6.514-3.299-14.489-3.981-24.455-3.981-.039 0-.078 0-.117 0-10.02.005-18.031.688-24.567 4.006-8.544 4.339-12.874 12.332-12.868 23.761.012 22.157 16.302 40.994 37.451 40.994h.02c20.406-.01 37.439-18.042 37.429-41.031-.007-11.43-4.345-19.419-12.893-23.749zm-24.545 49.779c-.004 0-.007 0-.011 0-12.897 0-22.445-12.296-22.452-26.002-.003-7.04 2.237-9.148 4.659-10.378 4.11-2.087 10.977-2.378 17.784-2.381h.126c6.766 0 13.574.293 17.66 2.363 2.424 1.227 4.666 3.333 4.67 10.374.006 13.877-9.677 26.018-22.436 26.024zm65.729-62.382c-.005 0-.01 0-.015 0-4.136 0-7.492 3.349-7.5 7.485l-.023 12c-.008 4.143 3.343 7.507 7.485 7.515h.015c4.136 0 7.492-3.349 7.5-7.485l.023-12c.008-4.143-3.343-7.507-7.485-7.515zm107.474 120.585 14.982-134.73c2.576-23.176-15.576-43.536-38.963-43.536h-.683c1.497-1.987 10.201-7.543 10.201-19.597 0-6.059-2.36-11.756-6.645-16.041l-45.9-45.9c-8.845-8.844-23.234-8.844-32.081 0l-16.997 16.998c-12.048-15.479-30.838-25.465-51.927-25.465-20.081 0-38.993 9.195-51.44 24.797h-64.617c-12.509 0-22.685 10.176-22.685 22.684v42.525h-16.779l-33.541-92.155c-5.075-13.941-18.451-23.306-33.285-23.306h-48.546c-4.143 0-7.5 3.357-7.5 7.5 0 4.142 3.357 7.5 7.5 7.5h48.546c8.552 0 16.264 5.399 19.188 13.436l31.673 87.024h-43.46l-19.903-54.687c-1.078-2.963-3.895-4.935-7.048-4.935h-42.53c-11.26 0-20.42-9.16-20.42-20.42 0-5.382 2.075-10.46 5.844-14.301 2.901-2.957 2.855-7.705-.101-10.606-2.955-2.899-7.704-2.855-10.607.101-6.536 6.662-10.136 15.472-10.136 24.807 0 19.53 15.89 35.42 35.42 35.42h37.278c1.66 4.561 73.008 200.588 80.882 222.221-15.143 4.021-26.338 17.842-26.338 34.233 0 19.53 15.89 35.42 35.42 35.42h9.378c-5.791 7.768-9.108 17.326-9.108 27.37 0 25.253 20.545 45.798 45.799 45.798s45.799-20.545 45.799-45.798c0-10.044-3.317-19.602-9.108-27.37h125.235c-5.791 7.768-9.108 17.326-9.108 27.37 0 25.253 20.545 45.798 45.799 45.798s45.799-20.545 45.799-45.798c0-10.044-3.317-19.602-9.108-27.37h14.573c4.143 0 7.5-3.357 7.5-7.5s-3.357-7.5-7.5-7.5c-65.684 0-235.185 0-295.949 0-11.26 0-20.42-9.16-20.42-20.42 0-11.259 9.16-20.419 20.42-20.419h313.917c11.26 0 20.42 9.16 20.42 20.419 0 6.5-2.99 12.465-8.203 16.365-3.316 2.481-3.993 7.182-1.512 10.498 2.48 3.316 7.182 3.995 10.498 1.512 8.902-6.66 14.217-17.268 14.217-28.375 0-15.587-10.125-28.845-24.14-33.567zm-94.588 68.986h28.152c10.201 5.257 16.723 15.831 16.723 27.37 0 16.982-13.816 30.798-30.799 30.798-16.982 0-30.799-13.815-30.799-30.798 0-11.539 6.522-22.112 16.723-27.37zm-198.618 0h28.152c10.201 5.257 16.723 15.831 16.723 27.37 0 16.982-13.816 30.798-30.799 30.798-16.982 0-30.799-13.815-30.799-30.798.001-11.539 6.523-22.112 16.723-27.37zm204.724-318.183c2.995-2.995 7.869-2.997 10.866 0l45.9 45.9c3.005 3.003 3.005 7.864 0 10.867l-14.163 14.163h-60.972c3.04-7.665 4.626-15.86 4.626-24.217 0-9.661-2.11-18.833-5.867-27.105zm-79.532-4.075c28.006 0 50.79 22.784 50.79 50.789 0 8.508-2.121 16.801-6.155 24.217h-73.094v-42.525c0-6.846-3.052-12.988-7.863-17.15 9.486-9.71 22.544-15.331 36.322-15.331zm-123.741 32.48c0-4.236 3.447-7.684 7.685-7.684h64.913c4.237 0 7.685 3.447 7.685 7.684v42.525h-80.282v-42.525zm276.868 218.94h-303.861l-58.75-161.414h258.359c.005 0 .009.001.014.001s.011-.001.016-.001h95.129c14.369 0 25.653 12.498 24.055 26.878z"/></g></svg>