<svg id="Capa_1" enable-background="new 0 0 512 512" height="512" viewBox="0 0 512 512" width="512" xmlns="http://www.w3.org/2000/svg"><g><path d="m32.106 346.709c-.099-4.776-1.287-9.484-3.504-13.715-13.565-25.898-21.102-54.546-21.102-84.68 0-115.806 111.257-209.686 248.5-209.686s248.5 93.879 248.5 209.686c0 115.806-111.257 209.686-248.5 209.686-42.133 0-81.811-8.856-116.578-24.471-4.938-2.218-10.758-1.38-14.824 2.194-20.321 17.859-46.87 29.951-80.237 37.126-16.985 3.652-31.711-12.347-26.649-28.966 8.701-28.568 15.162-60.256 14.394-97.174z" fill="#cde9fa"/><path d="m32.106 346.709c-.099-4.776-1.287-9.484-3.504-13.715-13.565-25.898-21.102-54.546-21.102-84.68 0-115.806 111.257-209.686 248.5-209.686s248.5 93.879 248.5 209.686c0 115.806-111.257 209.686-248.5 209.686-42.133 0-81.811-8.856-116.578-24.471-4.938-2.218-10.758-1.38-14.824 2.194-20.321 17.859-46.87 29.951-80.237 37.126-16.985 3.652-31.711-12.347-26.649-28.966 8.701-28.568 15.162-60.256 14.394-97.174z" fill="#cde9fa"/><path d="m357.375 439.805c-216.92-14.386-296.581-228.167-247.006-361.397-62.321 38.1-102.869 100.002-102.869 169.906 0 30.135 7.537 58.783 21.102 84.68 2.217 4.232 3.405 8.939 3.504 13.716.768 36.918-5.693 68.606-14.394 97.174-5.062 16.619 9.664 32.618 26.649 28.966 33.367-7.175 59.917-19.267 80.237-37.126 4.066-3.574 9.887-4.412 14.824-2.194 34.767 15.615 74.445 24.471 116.578 24.471 36.11-.002 70.416-6.508 101.375-18.196z" fill="#a2ddfd"/><path d="m188.664 407.801c-29.817-10.967-72.625-39.261-101.044-77.75-8.201-11.107-5.845-26.761 5.263-34.962 11.107-8.197 26.76-5.845 34.962 5.263 22.149 29.999 56.001 52.402 78.079 60.523 12.958 4.766 19.6 19.134 14.833 32.093-4.78 12.995-19.173 19.587-32.093 14.833z" fill="#ffbe9d"/><path d="m205.924 360.875c-19.303-7.1-47.605-25.119-69.218-49.585-7.624 14.688-22.041 25.546-38.564 31.827 27.737 31.797 64.191 54.999 90.522 64.684 12.92 4.754 27.313-1.838 32.093-14.833 4.766-12.959-1.875-27.328-14.833-32.093z" fill="#5ec682"/><path d="m366.241 436.267c13.591-5.686 26.487-12.377 38.529-19.982-9.149-12.479-20.051-23.062-32.669-31.611-19.95-13.517-39.325-18.704-52.065-20.675-12.734-1.968-24.716 6.052-27.967 18.231 41.191 2.753 71.341 13.508 74.172 54.037z" fill="#5ec682"/><path d="m256 457.999c39.596 0 77.02-7.828 110.241-21.728-3.606-51.655-51.579-92.554-110.241-92.554s-106.635 40.899-110.242 92.554c33.222 13.901 70.646 21.728 110.242 21.728z" fill="#88d37f"/><path d="m256 406.426c32.298 0 62.447-8.725 87.88-23.769-20.18-23.667-52.033-38.941-87.88-38.941s-67.701 15.274-87.88 38.941c25.433 15.044 55.582 23.769 87.88 23.769z" fill="#5ec682"/><ellipse cx="256" cy="253.4" fill="#ffd3bd" rx="134.352" ry="123.027"/><g><g><ellipse cx="176.355" cy="286.808" fill="#eda1ab" rx="29.387" ry="23.403"/><ellipse cx="335.645" cy="286.808" fill="#eda1ab" rx="29.387" ry="23.403"/><path d="m279.693 268.827c0-14.643-10.608-16.019-23.693-16.019s-23.693 1.376-23.693 16.019 10.608 26.513 23.693 26.513 23.693-11.871 23.693-26.513z" fill="#4e5660"/></g></g><path d="m256 130.373c-55.452 0-103.053 30.765-123.57 74.67 35.349 10.251 94.002 4.573 117.981-5.251 3.582-1.468 7.596-1.468 11.178 0 23.979 9.824 82.632 15.502 117.981 5.251-20.517-43.905-68.118-74.67-123.57-74.67z" fill="#d99a84"/><path d="m330.732 266.368c4.143 0 7.5-3.357 7.5-7.5v-12c0-4.143-3.357-7.5-7.5-7.5s-7.5 3.357-7.5 7.5v12c0 4.143 3.358 7.5 7.5 7.5zm97.656-178.651c-3.277-2.529-7.986-1.929-10.521 1.348-2.532 3.277-1.93 7.988 1.348 10.521 47.873 37.001 77.785 89.888 77.785 148.728 0 63.793-35.409 120.77-90.592 157.852-18.512-22.803-42.563-38.294-68.979-45.949 36.514-23.639 60.422-62.705 60.422-106.817 0-73.373-65.302-130.526-141.852-130.526-76.715 0-141.853 57.329-141.853 130.526 0 10.701 1.417 21.101 4.069 31.061-9.744-3.307-20.899-1.965-29.789 4.595-14.417 10.646-17.485 31.035-6.841 45.45 22.347 30.266 50.16 50.769 68.025 61.96-4.868 9.143-8.279 18.943-10.079 29.147-6.902-1.945-14.429-.319-19.886 4.477-19.156 16.836-44.299 28.424-76.862 35.428-6.919 1.482-12.451-1.922-15.326-5.606-2.55-3.266-7.264-3.843-10.527-1.297-3.265 2.55-3.846 7.263-1.297 10.527 7.186 9.204 18.766 13.521 30.304 11.04 35.132-7.555 62.481-20.255 83.612-38.825 1.848-1.624 4.517-2.011 6.799-.985 36.603 16.439 77.977 25.129 119.651 25.129 68.145 0 132.266-22.438 180.553-63.184 48.654-41.055 75.448-95.748 75.448-154.003 0-63.585-32.103-120.783-83.612-160.597zm-172.388 50.156c48.801 0 91.247 25.231 112.454 62.118-34.521 6.752-84.098 1.025-104.024-7.14-5.436-2.227-11.424-2.227-16.863 0-19.924 8.164-69.502 13.891-104.022 7.14 21.208-36.887 63.654-62.118 112.455-62.118zm-119.207 76.012c35.082 7.852 90.551 3.464 116.46-7.153 1.773-.725 3.724-.724 5.492 0 25.091 10.28 80.445 15.216 116.461 7.155 4.944 12.333 7.645 25.641 7.645 39.513 0 63.702-56.905 115.527-126.852 115.527s-126.852-51.825-126.852-115.527c.001-13.873 2.701-27.182 7.646-39.515zm-36.499 120.205c-2.258-2.736-4.478-5.566-6.641-8.495-5.731-7.762-4.078-18.741 3.683-24.473 7.767-5.73 18.743-4.077 24.476 3.685 1.799 2.437 3.713 4.872 5.719 7.29-5.988 9.034-15.425 16.65-27.237 21.993zm10.371 11.649c10.765-5.522 19.764-12.786 26.405-21.279 10.731 15.155 24.788 28.139 41.21 38.075-7.985 6.285-14.913 13.432-20.667 21.242-12.476-7.806-30.111-20.44-46.948-38.038zm145.335 104.76c-35.335 0-70.403-6.583-102.203-19.08 3.469-25.426 18.462-46.857 39.204-61.095 18.992 8.699 40.383 13.603 62.999 13.603s44.007-4.904 62.999-13.603c21.876 15.016 35.891 36.875 39.2 61.067-31.046 12.247-65.683 19.108-102.199 19.108zm116.411-25.204c-2.791-15.518-9.307-30.091-19.005-42.834 15.905 7.859 29.21 18.618 40.184 31.751-6.813 3.989-13.88 7.69-21.179 11.083zm-347.804-78.43c.548 26.32-2.661 52.422-9.81 79.798-1.046 4.008 1.354 8.104 5.362 9.151.635.166 1.272.245 1.899.245 3.33 0 6.371-2.234 7.252-5.607 7.503-28.732 10.869-56.177 10.292-83.899-.123-5.941-1.631-11.832-4.358-17.04-13.432-25.647-20.244-52.966-20.244-81.199 0-111.486 108.112-202.186 241-202.186 47.66 0 93.744 11.661 133.269 33.724 3.617 2.017 8.186.724 10.204-2.894 2.019-3.616.724-8.186-2.894-10.204-41.754-23.307-90.365-35.626-140.579-35.626-68.145 0-132.267 22.439-180.553 63.184-48.653 41.053-75.447 95.746-75.447 154.002 0 30.682 7.388 60.343 21.958 88.159 1.657 3.165 2.573 6.759 2.649 10.392zm156.661-80.497c4.143 0 7.5-3.357 7.5-7.5v-12c0-4.143-3.357-7.5-7.5-7.5s-7.5 3.357-7.5 7.5v12c0 4.143 3.357 7.5 7.5 7.5zm74.732 36.472c17.2 0 31.193-15.258 31.193-34.013 0-12.057-6.008-17.634-11.048-20.19-5.448-2.763-11.994-3.329-20.146-3.329s-14.697.566-20.146 3.329c-5.039 2.557-11.047 8.134-11.047 20.19.001 18.755 13.994 34.013 31.194 34.013zm0-42.532c15.538 0 16.193 2.612 16.193 8.52 0 10.483-7.265 19.013-16.193 19.013-8.929 0-16.193-8.529-16.193-19.013 0-5.908.655-8.52 16.193-8.52z"/></g></svg>