<svg id="Capa_1" enable-background="new 0 0 512 512" height="512" viewBox="0 0 512 512" width="512" xmlns="http://www.w3.org/2000/svg"><g><path d="m314.959 73.665h-64.833c-2.771 0-5.018-2.247-5.018-5.018v-35.521c0-2.771 2.246-5.018 5.018-5.018h64.833c8.307 0 15.042 6.735 15.042 15.042v15.473c0 8.307-6.735 15.042-15.042 15.042z" fill="#7acefa"/><path d="m140.732 157.856h230.536v247.119h-230.536z" fill="#f6ee86"/><path d="m140.732 236.939 115.268-41.954 115.268 41.954v-79.083h-230.536z" fill="#f2d98d"/><path d="m467.814 296.089h-423.628v168.181c0 10.837 8.785 19.622 19.622 19.622h384.386c10.837 0 19.621-8.785 19.621-19.622v-168.181z" fill="#f6ee86"/><path d="m44.186 296.089h423.629v30h-423.629z" fill="#f2d98d"/><path d="m487.06 296.089h-462.12c-9.632 0-17.44-7.808-17.44-17.44v-12.956c0-9.632 7.808-17.44 17.44-17.44h462.12c9.632 0 17.44 7.808 17.44 17.44v12.956c0 9.632-7.808 17.44-17.44 17.44z" fill="#59636f"/><path d="m236.442 248.254h-211.502c-9.632 0-17.44 7.808-17.44 17.44v12.956c0 9.631 7.808 17.439 17.44 17.439h223.522c-9.504-10.23-16.021-32.795-12.02-47.835z" fill="#455060"/><path d="m277.85 110.092 121.399 44.186c6.702 2.439 11.162 8.809 11.162 15.941v22.938c0 11.775-11.702 19.968-22.766 15.941l-125.844-45.803c-3.748-1.364-7.856-1.364-11.604 0l-125.844 45.803c-11.064 4.027-22.766-4.166-22.766-15.941v-22.938c0-7.132 4.46-13.502 11.162-15.941l121.399-44.186c14.116-5.137 29.588-5.137 43.702 0z" fill="#59636f"/><path d="m224.277 113.685-111.527 40.593c-6.702 2.439-11.162 8.809-11.162 15.941v22.938c0 11.774 11.702 19.968 22.766 15.941l118.72-43.211c-18.258-11.442-22.629-36.5-18.797-52.202z" fill="#455060"/><path d="m272.616 389.99h-33.231c-19.935 0-36.096 16.161-36.096 36.096v57.805h105.423v-57.805c-.001-19.935-16.161-36.096-36.096-36.096z" fill="#d99a84"/><path d="m364.468 439.15h47.59c8.311 0 15.048-6.737 15.048-15.048v-14.74c0-8.311-6.737-15.048-15.048-15.048h-47.59c-8.311 0-15.048 6.737-15.048 15.048v14.74c0 8.311 6.737 15.048 15.048 15.048z" fill="#a2ddfd"/><path d="m412.058 439.15c8.311 0 15.048-6.737 15.048-15.048v-14.74c0-5.958-3.472-11.093-8.496-13.531l-43.318 43.318h36.766z" fill="#7acefa"/><path d="m147.532 439.15h-47.59c-8.311 0-15.048-6.737-15.048-15.048v-14.74c0-8.311 6.737-15.048 15.048-15.048h47.59c8.311 0 15.048 6.737 15.048 15.048v14.74c0 8.311-6.737 15.048-15.048 15.048z" fill="#a2ddfd"/><path d="m99.942 394.315c-8.311 0-15.048 6.737-15.048 15.048v14.74c0 4.933 2.384 9.297 6.051 12.042l41.829-41.829h-32.832z" fill="#7acefa"/><path d="m171.058 255.022h-33.326v-110.862c0-6.077 3.801-11.505 9.511-13.583l14.874-5.414c4.346-1.582 8.941 1.636 8.941 6.261z" fill="#e0b799"/><path d="m173.491 302.448h-38.191c-8.203 0-14.852-6.65-14.852-14.852v-20.079c0-18.749 15.199-33.948 33.948-33.948 18.749 0 33.947 15.199 33.947 33.948v20.079c0 8.202-6.65 14.852-14.852 14.852z" fill="#d99a84"/><g><g fill="#eda1ab"><ellipse cx="176.443" cy="364.076" rx="29.355" ry="23.377"/><ellipse cx="335.557" cy="364.076" rx="29.355" ry="23.377"/></g></g><path d="m236.214 424.17c-4.142 0-7.5 3.357-7.5 7.5v10.542c0 4.143 3.358 7.5 7.5 7.5s7.5-3.357 7.5-7.5v-10.542c0-4.143-3.358-7.5-7.5-7.5zm-66.134-.067v-14.74c0-12.433-10.115-22.548-22.548-22.548h-47.59c-12.433 0-22.548 10.115-22.548 22.548v14.74c0 12.433 10.115 22.548 22.548 22.548h47.59c12.433-.001 22.548-10.116 22.548-22.548zm-77.686 0v-14.74c0-4.162 3.386-7.548 7.548-7.548h47.59c4.162 0 7.548 3.386 7.548 7.548v14.74c0 4.162-3.386 7.548-7.548 7.548h-47.59c-4.162-.001-7.548-3.386-7.548-7.548zm163.606-67.887c8.478 0 16.54-3.671 22.119-10.072 2.721-3.123 2.396-7.86-.727-10.582-3.124-2.722-7.861-2.396-10.582.727-2.729 3.132-6.669 4.928-10.81 4.928s-8.081-1.796-10.81-4.928c-2.722-3.122-7.459-3.447-10.582-.727-3.122 2.722-3.448 7.459-.727 10.582 5.579 6.401 13.641 10.072 22.119 10.072zm156.058 90.434c12.433 0 22.548-10.115 22.548-22.548v-14.74c0-12.433-10.115-22.548-22.548-22.548h-47.59c-12.433 0-22.548 10.115-22.548 22.548v14.74c0 12.433 10.115 22.548 22.548 22.548zm-55.138-22.547v-14.74c0-4.162 3.386-7.548 7.548-7.548h47.59c4.162 0 7.548 3.386 7.548 7.548v14.74c0 4.162-3.386 7.548-7.548 7.548h-47.59c-4.162-.001-7.548-3.386-7.548-7.548zm-30.971-82.53v-12c0-4.143-3.358-7.5-7.5-7.5s-7.5 3.357-7.5 7.5v12c0 4.143 3.358 7.5 7.5 7.5s7.5-3.357 7.5-7.5zm-124.898 0v-12c0-4.143-3.358-7.5-7.5-7.5s-7.5 3.357-7.5 7.5v12c0 4.143 3.358 7.5 7.5 7.5s7.5-3.357 7.5-7.5zm286.009-100.818h-108.292v-26.907l6.313 2.298c15.979 5.812 32.831-6.063 32.831-22.989v-22.938c0-10.246-6.469-19.484-16.097-22.989l-12.084-4.398c-3.894-1.414-8.197.59-9.613 4.483-1.417 3.892.591 8.195 4.483 9.612l12.083 4.397c3.725 1.355 6.227 4.93 6.227 8.894v22.938c0 6.55-6.497 11.15-12.701 8.894l-125.843-45.804c-5.397-1.965-11.34-1.963-16.735 0l-69.074 25.141v-43.08l58.156-21.168c12.436-4.526 26.134-4.526 38.57 0l75.258 27.392c3.934 1.429 8.21-.63 9.613-4.482 1.417-3.893-.59-8.196-4.483-9.613l-75.258-27.392c-5.887-2.143-11.997-3.483-18.164-4.023v-17.856h52.708c12.43 0 22.542-10.112 22.542-22.542v-15.473c0-12.43-10.112-22.542-22.542-22.542h-64.833c-6.902 0-12.518 5.615-12.518 12.518v35.521c0 5.912 4.124 10.868 9.643 12.172v18.474c-5.317.655-10.576 1.899-15.667 3.752l-55.611 20.242c-.933-1.328-2.09-2.508-3.454-3.463-3.782-2.648-8.63-3.287-12.968-1.707l-14.873 5.414c-7.234 2.633-12.467 8.877-13.983 16.236l-20.51 7.464c-9.628 3.505-16.097 12.743-16.097 22.989v22.938c0 13.555 11.003 24.462 24.472 24.462 5.801 0 9.501-2.022 11.671-2.678v18.932c-2.756 1.985-5.259 4.297-7.451 6.883h-97.839c-13.752-.002-24.94 11.185-24.94 24.936v12.956c0 13.752 11.188 24.939 24.94 24.939h11.746v160.682c0 14.955 12.167 27.121 27.122 27.121h10.162c4.142 0 7.5-3.357 7.5-7.5s-3.358-7.5-7.5-7.5h-10.163c-6.684 0-12.122-5.438-12.122-12.121v-160.681h68.022c4.03 3.93 9.532 6.358 15.593 6.358h38.191c6.061 0 11.562-2.428 15.593-6.358h271.231v160.682c0 6.684-5.437 12.121-12.122 12.121h-131.982v-50.306c0-24.039-19.557-43.596-43.596-43.596h-33.231c-24.039 0-43.596 19.557-43.596 43.596v50.306h-85.221c-4.142 0-7.5 3.357-7.5 7.5s3.358 7.5 7.5 7.5h337.625c14.955 0 27.122-12.166 27.122-27.121v-160.682h11.746c13.752 0 24.94-11.188 24.94-24.939v-12.956c0-13.752-11.188-24.939-24.94-24.939zm-234.452-205.147h62.351c4.159 0 7.542 3.384 7.542 7.542v15.473c0 4.158-3.383 7.542-7.542 7.542h-62.351zm-139.635 252.981h-88.033c-5.481 0-9.94-4.459-9.94-9.939v-12.956c0-5.48 4.459-9.938 9.94-9.938h89.718c-2.699 9.102-1.337 14.473-1.71 31.841 0 .332.011.662.025.992zm188.238 187.803h-90.423v-50.306c0-15.768 12.828-28.596 28.596-28.596h33.231c15.768 0 28.596 12.828 28.596 28.596zm-155.979-332.232c0-2.913 1.839-5.539 4.577-6.535l13.75-5.005v94.482c-6.076-1.377-12.246-1.378-18.327 0zm-23.442 57.89c-6.17 2.247-12.701-2.307-12.701-8.894v-22.938c0-3.964 2.502-7.538 6.227-8.894l14.917-5.429v43.08zm59.053 85.546c0 4.054-3.298 7.352-7.352 7.352h-38.191c-4.054 0-7.352-3.298-7.352-7.352v-20.08c0-14.583 11.864-26.447 26.447-26.447s26.448 11.864 26.448 26.447zm5.167-46.841c-2.192-2.586-4.695-4.898-7.451-6.883v-36.522l74.205-27.008c2.087-.76 4.387-.76 6.474 0l104.531 38.046v32.367zm310.99 37.894c0 5.48-4.459 9.939-9.94 9.939h-291.242c.047-1.068.014.121.025-21.073 0-4.085-.604-8.03-1.71-11.761h292.927c5.48 0 9.94 4.458 9.94 9.938zm-221.214 145.521c-4.142 0-7.5 3.357-7.5 7.5v10.542c0 4.143 3.358 7.5 7.5 7.5s7.5-3.357 7.5-7.5v-10.542c0-4.143-3.358-7.5-7.5-7.5z"/></g></svg>