<svg id="Capa_1" enable-background="new 0 0 511.989 511.989" height="512" viewBox="0 0 511.989 511.989" width="512" xmlns="http://www.w3.org/2000/svg"><g><path d="m307.506 37.327 62.485-23.46c9.275-3.482 19.586 1.438 22.714 10.838l5.114 15.371c2.745 8.251 11.142 13.227 19.698 11.671l19.296-3.508c7.328-1.332 14.695 2.128 18.347 8.619l17.995 31.979c3.457 6.144 2.882 13.764-1.458 19.319l-44.447 56.892-148.648-2.065z" fill="#a2ddfd"/><path d="m278.602 162.983 137.717 1.913-68.671-75.043 9.402-8.279c18.488-16.281 22.071-43.981 8.336-64.43l-.83-1.236-57.049 21.419z" fill="#7acefa"/><path d="m445.596 189.135h-379.203l18.788 259.739c2.267 31.344 28.358 55.616 59.784 55.616h222.06c31.426 0 57.517-24.271 59.784-55.616z" fill="#f6ee86"/><path d="m432.33 372.536 13.266-183.401h-379.203l13.266 183.401z" fill="#a7a7a7"/><path d="m72.8 277.702c46.013 4.476 73.741-27.352 95.824-27.352 20.64 0 45.967 27.768 87.371 27.768 41.367 0 66.736-27.768 87.371-27.768 21.979 0 49.908 31.809 95.824 27.355l6.407-88.57h-379.204z" fill="#8b97a5"/><path d="m83.11 420.242 2.071 28.632c2.267 31.344 28.358 55.616 59.784 55.616h222.06c31.426 0 57.517-24.271 59.784-55.616l2.071-28.632z" fill="#a7a7a7"/><path d="m209.437 151.394-53.766-71.24 52.411-63.61c6.37-7.731 17.603-9.288 25.835-3.58l14.558 10.094c5.406 3.749 12.353 4.478 18.42 1.934l38.159-16.002c8.486-3.558 18.303-.617 23.433 7.022l11.995 17.859c5.39 8.024 3.995 18.801-3.259 25.189l-17.619 15.515c-8.09 7.124-8.757 19.501-1.48 27.453l51.94 56.759z" fill="#fbf1cf"/><path d="m240.813 53.259c-9.649-14.695-25.845-23.469-43.325-23.469-.108 0-.216.005-.324.005l-41.492 50.359 53.766 71.24 14.09.648 21.51-49.653c6.977-16.107 5.398-34.474-4.225-49.13z" fill="#fae0bd"/><path d="m73.678 142.047-17.257-34.514c-6.711-13.421 1.728-29.467 16.589-31.545l21.924-3.065c6.538-.914 12.316-4.722 15.734-10.369l8.865-14.646c8.002-13.221 26.8-14.248 36.195-1.977l5.646 7.374c4.786 6.251 12.555 9.459 20.357 8.406l12.71-1.715c16.927-2.284 29.859 14.795 23.069 30.468l-34.283 79.137z" fill="#a2ddfd"/><path d="m488.488 189.513c0 32.025-25.702 58.593-57.726 58.606-33.801.014-55.386-27.768-87.396-27.768-32.003 0-53.584 27.768-87.371 27.768s-55.369-27.768-87.371-27.768c-32.01 0-53.595 27.781-87.396 27.768-32.025-.013-57.726-26.581-57.726-58.606 0-31.423 25.473-56.896 56.896-56.896h351.195c31.422 0 56.895 25.473 56.895 56.896z" fill="#59636f"/><path d="m80.397 132.617c-31.423 0-56.896 25.473-56.896 56.896 0 32.025 25.702 58.593 57.726 58.606 33.801.013 55.386-27.768 87.396-27.768 8.092 0 15.517 1.779 22.643 4.432-23.775-21.305-23.802-69.373-12.268-92.166z" fill="#455060"/><g><g fill="#fff"><ellipse cx="172.429" cy="326.949" rx="30.834" ry="24.555"/><ellipse cx="339.56" cy="326.949" rx="30.834" ry="24.555"/></g></g><path d="m461.99 132.762 15.616-19.989c6.223-7.966 7.041-18.805 2.084-27.614l-17.994-31.979c-5.217-9.273-15.755-14.223-26.225-12.32l-19.296 3.508c-4.848.887-9.684-1.981-11.24-6.659l-5.114-15.372c-4.458-13.397-19.145-20.49-32.466-15.491l-28.742 10.792-3.9-5.806c-7.108-10.583-20.801-14.688-32.56-9.757l-38.159 16.002c-3.724 1.561-7.928 1.119-11.246-1.181l-14.558-10.096c-11.349-7.867-27.117-5.683-35.896 4.975l-32.515 39.463c-2.299-1.837-2.708-3.015-8.097-9.866-12.584-16.435-37.821-15.101-48.566 2.653l-8.865 14.646c-2.259 3.733-6.034 6.222-10.355 6.826l-7.843 1.096c-4.103.573-6.963 4.363-6.39 8.466.573 4.102 4.364 6.962 8.465 6.39l7.845-1.096c8.811-1.233 16.506-6.305 21.111-13.914l8.865-14.646c5.294-8.747 17.659-9.354 23.823-1.301l5.646 7.373c3.459 4.519 8.107 7.845 13.292 9.738.329.143.665.259 1.006.352 4.135 1.343 8.576 1.79 13.018 1.191l12.709-1.716c11.136-1.507 19.657 9.729 15.184 20.055l-16.303 37.634c-121.923.119-114.642-.268-120.556.34l-10.639-21.278c-2.129-4.261-2.057-9.109.198-13.303 1.962-3.647.595-8.195-3.054-10.157-3.647-1.961-8.195-.596-10.157 3.054-4.53 8.423-4.681 18.559-.403 27.113l8.998 17.997c-24.869 8.923-42.71 32.727-42.71 60.628 0 30.212 20.124 55.743 47.5 63.598l14.2 196.304c2.538 35.089 32.084 62.574 67.264 62.574h201.248c4.142 0 7.5-3.357 7.5-7.5s-3.358-7.5-7.5-7.5h-201.248c-27.355 0-50.33-21.372-52.303-48.656l-1.489-20.591h329.645l-1.489 20.591c-1.598 22.086-16.998 40.881-38.321 46.77-3.993 1.103-6.335 5.233-5.233 9.226 1.103 3.994 5.235 6.336 9.226 5.233 27.426-7.574 47.234-31.745 49.289-60.146l14.2-196.304c27.376-7.855 47.5-33.386 47.5-63.598-.002-24.521-13.781-45.879-34-56.752zm-119.811-68.074c9.819-8.647 11.873-23.214 4.988-34.241l25.46-9.559c5.297-1.988 11.174.815 12.96 6.184l5.114 15.372c3.899 11.719 16.002 18.891 28.156 16.682l19.297-3.508c4.175-.763 8.385 1.216 10.469 4.918l17.995 31.979c1.979 3.518 1.652 7.845-.832 11.024l-18.395 23.546c-5.057-1.281-10.349-1.967-15.799-1.967h-82.173l-25.763-28.153c-4.447-4.858-4.04-12.408.903-16.761zm-117.788 28.758c9.11-21.027-8.223-43.954-30.954-40.883l-5.98.807 26.414-32.058c3.857-4.683 10.786-5.642 15.773-2.186l14.558 10.094c7.55 5.235 17.119 6.242 25.594 2.687l38.158-16.001c5.167-2.168 11.185-.363 14.308 4.287l11.994 17.858c3.278 4.881 2.423 11.493-1.99 15.379l-17.619 15.515c-11.251 9.909-12.176 27.085-2.057 38.146l16.496 18.026h-118.415zm197.511 319.296h-331.815l-2.366-32.706h336.546zm3.451-47.706h-338.717l-7.919-109.483c37.426 1.458 59.74-27.702 89.907-27.702 29.454 0 51.322 27.768 87.371 27.768 36.066 0 57.882-27.768 87.371-27.768 30.308 0 52.382 29.164 89.906 27.702zm5.406-124.418c-.008 0-.014 0-.022 0-31.379 0-53.004-27.768-87.371-27.768-34.27 0-56.085 27.768-87.371 27.768-31.306 0-53.057-27.768-87.371-27.768-34.269 0-56.086 27.768-87.371 27.768-.007 0-.016 0-.022 0-27.696-.011-50.229-22.937-50.229-51.105 0-27.236 22.159-49.396 49.395-49.396h118.809c.013 0 .026.002.039.002.009 0 .018-.002.027-.002h232.321c27.237 0 49.396 22.159 49.396 49.396-.001 28.169-22.534 51.094-50.23 51.105zm-240.36 42.892c-4.142 0-7.5 3.357-7.5 7.5v12c0 4.143 3.358 7.5 7.5 7.5s7.5-3.357 7.5-7.5v-12c0-4.143-3.357-7.5-7.5-7.5zm87.817 13.772c-3.123-2.721-7.86-2.396-10.582.727-2.939 3.372-7.181 5.307-11.64 5.307s-8.701-1.935-11.64-5.307c-2.721-3.122-7.459-3.447-10.582-.727-3.122 2.722-3.448 7.459-.727 10.582 5.788 6.642 14.153 10.451 22.948 10.451s17.16-3.81 22.948-10.451c2.723-3.123 2.398-7.86-.725-10.582zm45.69-16.013c-11.803 0-21.406 9.603-21.406 21.406 0 4.143 3.358 7.5 7.5 7.5s7.5-3.357 7.5-7.5c0-3.532 2.874-6.406 6.406-6.406s6.406 2.874 6.406 6.406c0 4.143 3.358 7.5 7.5 7.5s7.5-3.357 7.5-7.5c.001-11.804-9.603-21.406-21.406-21.406z"/></g></svg>