<svg id="Capa_1" enable-background="new 0 0 511.938 511.938" height="512" viewBox="0 0 511.938 511.938" width="512" xmlns="http://www.w3.org/2000/svg"><g><path d="m433.173 400.199 66.811 66.811c9.469 9.469 2.763 25.659-10.628 25.659h-35.675c-11.271 0-22.08-4.477-30.049-12.447l-35.241-35.241z" fill="#b0ade2"/><path d="m389.723 418.197h63.332v30h-63.332z" fill="#a09cdc" transform="matrix(.707 -.707 .707 .707 -182.895 424.848)"/><path d="m441.699 353.985-36.726-36.726-99.522 99.522 36.726 36.726c10.407 10.407 27.281 10.407 37.688 0l61.834-61.834c10.407-10.407 10.407-27.28 0-37.688z" fill="#a7a7a7"/><path d="m299.397 360.99h140.745v41.176h-140.745z" fill="#8b97a5" transform="matrix(.707 -.707 .707 .707 -161.514 373.231)"/><path d="m267.947 436.379-44.305-17.209c-32.528-12.635-60.235-35.219-79.169-64.531l-128.89-199.539c-13.048-20.2-10.223-46.769 6.781-63.773l57.154-57.154c17.004-17.004 43.572-19.829 63.772-6.781l199.539 128.89c29.312 18.934 51.897 46.641 64.531 79.169l17.209 44.305c5.732 14.756 2.206 31.505-8.987 42.699l-104.936 104.937c-11.193 11.193-27.942 14.719-42.699 8.987z" fill="#b0ade2"/><path d="m112.525 19.323c-12.112.734-23.923 5.767-33.006 14.85l-57.155 57.154c-17.004 17.005-19.829 43.573-6.781 63.773l105.007 162.564c-43.778-101.978-35.53-225.708-8.065-298.341z" fill="#a09cdc"/><path d="m424.57 279.756-17.209-44.305c-6.212-15.992-14.839-30.809-25.478-44.001l-202.241 202.242c13.192 10.638 28.009 19.266 44.001 25.478l44.305 17.209c14.756 5.732 31.505 2.207 42.699-8.987l104.937-104.937c11.193-11.194 14.718-27.943 8.986-42.699z" fill="#59636f"/><path d="m244.445 202.666-83.896-83.896c-10.62-10.62-27.838-10.62-38.457 0l-15.131 15.13c-10.62 10.62-10.62 27.837 0 38.457l83.896 83.896c10.62 10.62 27.838 10.62 38.457 0l15.131-15.131c10.62-10.619 10.62-27.837 0-38.456z" fill="#fff"/><path d="m165.852 113.465c-13.527-13.525-35.537-13.525-49.063 0l-15.131 15.131c-13.559 13.559-13.56 35.505 0 49.064l83.896 83.895c13.556 13.558 35.503 13.562 49.064.001l15.131-15.131c13.557-13.557 13.56-35.504 0-49.064v-.001zm73.29 122.354-15.131 15.132c-7.694 7.694-20.153 7.699-27.851-.001l-83.896-83.896c-7.696-7.694-7.698-20.154 0-27.85l15.131-15.131c7.677-7.677 20.171-7.68 27.851 0l83.896 83.895c7.694 7.698 7.698 20.154 0 27.851zm266.146 225.889-61.509-61.509 3.222-3.222c13.344-13.342 13.351-34.946.001-48.294l-23.622-23.623c11.296-13.194 14.54-31.649 8.182-48.02l-17.209-44.306c-13.292-34.218-36.617-62.834-67.454-82.753l-199.538-128.889c-17.153-11.08-39.199-12.379-57.533-3.392-3.719 1.823-5.256 6.316-3.433 10.036 1.824 3.719 6.317 5.255 10.036 3.433 13.638-6.684 30.033-5.719 42.791 2.522l199.538 128.89c12.393 8.005 23.454 17.551 32.994 28.391l-192.589 192.59c-10.84-9.54-20.386-20.601-28.391-32.994l-128.891-199.538c-11.055-17.114-8.623-39.992 5.785-54.398l43.439-43.439c2.929-2.93 2.929-7.678 0-10.607-2.929-2.928-7.678-2.928-10.607 0l-43.439 43.438c-19.372 19.372-22.643 50.134-7.778 73.145l128.89 199.539c19.919 30.837 48.534 54.161 82.754 67.453l44.305 17.21c16.222 6.299 34.675 3.225 48.011-8.19l23.63 23.63c13.315 13.313 34.979 13.315 48.296 0l3.222-3.222 29.938 29.938c4.107 4.105 8.853 7.438 14.108 9.904 3.724 1.751 8.205.17 9.976-3.602 1.76-3.75.147-8.216-3.603-9.976-3.679-1.727-7.001-4.06-9.874-6.934l-29.938-29.938 34.174-34.175 61.509 61.509c4.744 4.742 1.385 12.854-5.324 12.854h-18.133c-4.142 0-7.5 3.357-7.5 7.5s3.358 7.5 7.5 7.5h18.133c20.066 0 30.14-24.25 15.931-38.461zm-199.944-39.62c-9.088 9.087-22.699 11.954-34.681 7.3l-44.305-17.21c-12.707-4.936-24.549-11.41-35.375-19.221l190.166-190.166c7.811 10.825 14.285 22.668 19.221 35.375l17.209 44.306c4.653 11.979 1.788 25.592-7.3 34.679-2.646 2.646-111.716 111.715-104.935 104.937zm131.051-35.718c-8.894 8.895-61.828 61.831-61.832 61.834-7.468 7.467-19.616 7.468-27.082 0l-23.519-23.519 88.914-88.915 23.52 23.52c7.481 7.479 7.486 19.596-.001 27.08zm-273.259-222.032c-2.929-2.928-7.678-2.928-10.606 0-2.929 2.93-2.929 7.678 0 10.607l35.739 35.738c2.93 2.929 7.678 2.928 10.606 0 2.929-2.93 2.929-7.678 0-10.607z"/></g></svg>