<svg id="Capa_1" enable-background="new 0 0 512 512" height="512" viewBox="0 0 512 512" width="512" xmlns="http://www.w3.org/2000/svg"><g><path d="m25.831 330.926h78.577l-21.245-47.128h-57.332c-10.124 0-18.331 8.207-18.331 18.331v10.466c0 10.124 8.207 18.331 18.331 18.331z" fill="#59636f"/><path d="m458.782 330.926h-78.577l21.245-47.128h57.332c10.124 0 18.331 8.207 18.331 18.331v10.466c0 10.124-8.207 18.331-18.331 18.331z" fill="#59636f"/><ellipse cx="75.892" cy="88.399" fill="#fae0bd" rx="28.759" ry="28.759" transform="matrix(.23 -.973 .973 .23 -27.579 141.95)"/><path d="m168.264 168.735c-1.828-16.685-16.211-29.429-32.996-29.401-19.606.033-34.304 16.79-33.034 35.342.305 4.452-2.277 8.549-6.238 10.602-13.378 6.934-22.521 20.9-22.521 37.009 0 23.017 18.659 41.676 41.676 41.676 29.455 0 48.293-29.09 39.524-54.951-1.45-4.275-.363-8.998 2.973-12.039 7.493-6.829 11.842-17.05 10.616-28.238z" fill="#fae0bd"/><path d="m262.509 167.021h-40.404c-9.473 0-16.543 8.719-14.587 17.988l10.442 49.461h48.693l10.442-49.461c1.957-9.268-5.114-17.988-14.586-17.988z" fill="#59636f"/><path d="m324.337 452.36h-164.06c-31.65 0-58.379-23.499-62.433-54.889l-14.68-113.674h318.286l-14.68 113.674c-4.054 31.39-30.783 54.889-62.433 54.889z" fill="#a2ddfd"/><path d="m97.843 397.472c4.054 31.389 30.783 54.888 62.433 54.888h64.815c-54.011-36.21-56.622-121.804-56.622-168.563h-85.306z" fill="#7acefa"/><path d="m401.45 283.798c-14.942-32.408-70.926-65.727-159.143-65.727s-144.202 33.319-159.144 65.727z" fill="#cde9fa"/><path d="m181.375 223.982c-53.114 10.99-87.071 35.654-98.211 59.815h85.306c-12.306-16.065-5.72-45.33 12.905-59.815z" fill="#a2ddfd"/><path d="m495.578 131.355c-12.251-12.251-32.238-11.832-43.965.921l-84.452 91.84 35.656 35.656 91.84-84.452c12.752-11.727 13.171-31.714.921-43.965z" fill="#88d37f"/><path d="m426.276 200.656c-6.759-6.759-14.478-12.135-22.815-16.016l-36.301 39.477 35.656 35.656 39.432-36.26c-3.819-8.253-9.135-16.021-15.972-22.857z" fill="#5ec682"/><path d="m407.214 286.388c-32.55 32.55-69.485 32.67-84.413 17.743-14.928-14.928-14.517-52.153 17.743-84.413 17.223-17.223 46.109-16.26 64.519 2.151s19.374 47.296 2.151 64.519z" fill="#88d37f"/><g><g><ellipse cx="162.75" cy="387.382" fill="#fff" rx="29.355" ry="23.377"/><ellipse cx="321.863" cy="387.382" fill="#fff" rx="29.355" ry="23.377"/><path d="m242.307 362.544c-11.646 0-22.017-7.826-28.54 1.825-6.617 9.79 8.202 24.97 28.54 24.97s35.156-15.18 28.539-24.97c-6.523-9.65-16.894-1.825-28.539-1.825z" fill="#4e5660"/></g></g><path d="m322.639 351.707c-3.122-2.723-7.86-2.397-10.581.726-1.846 2.116-4.507 3.33-7.303 3.33s-5.457-1.214-7.301-3.329c-2.721-3.123-7.459-3.448-10.581-.727-3.123 2.721-3.449 7.459-.727 10.581 4.693 5.387 11.477 8.476 18.609 8.476 7.133 0 13.915-3.089 18.609-8.475 2.722-3.123 2.398-7.86-.725-10.582zm-246.747-227.049c19.994 0 36.26-16.266 36.26-36.259 0-19.994-16.266-36.26-36.26-36.26s-36.26 16.266-36.26 36.26 16.265 36.259 36.26 36.259zm0-57.518c11.723 0 21.26 9.537 21.26 21.26 0 11.722-9.537 21.259-21.26 21.259s-21.26-9.537-21.26-21.259c0-11.723 9.537-21.26 21.26-21.26zm111.268 285.293c-1.846 2.116-4.507 3.33-7.303 3.33s-5.457-1.214-7.301-3.329c-2.721-3.123-7.459-3.448-10.581-.727-3.123 2.721-3.449 7.459-.728 10.581 4.693 5.387 11.477 8.476 18.609 8.476 7.133 0 13.915-3.089 18.609-8.475 2.722-3.122 2.398-7.859-.726-10.581-3.119-2.724-7.858-2.398-10.579.725zm55.147 2.611c-9.857 0-25.041-9.242-34.754 5.126-3.672 5.433-3.846 12.188-.477 18.531 5.673 10.679 20.159 18.138 35.23 18.138s29.559-7.459 35.23-18.138c3.369-6.344 3.195-13.099-.477-18.532-9.7-14.353-24.956-5.125-34.752-5.125zm21.982 16.621c-2.619 4.932-11.214 10.174-21.982 10.174s-19.363-5.242-21.982-10.174c-1.072-2.018-.543-2.802-.344-3.096 1.246-1.845 2.052-2.096 9.681-.35 3.737.855 7.973 1.825 12.645 1.825 4.673 0 8.908-.97 12.646-1.825 7.857-1.8 8.489-1.412 9.68.35.198.295.727 1.078-.344 3.096zm236.592-245.612c-7.383-7.384-17.145-11.328-27.639-11.111-10.439.218-20.082 4.572-27.149 12.259l-67.398 73.294c-16.227-2.375-32.083 2.55-43.453 13.92-2.727 2.727-5.196 5.444-7.448 8.138-15.199-4.733-31.532-8.074-48.847-10.005l5.486-25.988c2.945-13.945-7.699-27.037-21.924-27.037h-40.404c-14.252 0-24.862 13.118-21.925 27.036l5.485 25.979c-14.988 1.662-28.792 4.325-41.382 7.771-.173-4.656-1.004-9.274-2.506-13.701-.52-1.53-.165-3.098.923-4.089 15.063-13.732 17.011-35.353 7.374-51.129-2.16-3.536-6.776-4.648-10.311-2.49-3.534 2.16-4.649 6.776-2.49 10.311 1.941 3.178 3.131 6.657 3.535 10.344.911 8.314-2.082 16.29-8.214 21.879-5.476 4.992-7.448 12.839-5.023 19.99 1.476 4.355 2.018 8.982 1.626 13.582-20.78 7.299-37.572 16.845-50.14 27.406-10.962-5.885-18.083-17.487-18.083-30.122 0-12.814 7.078-24.444 18.472-30.351 6.738-3.492 10.77-10.469 10.27-17.773-.962-14.061 9.702-26.294 23.774-27.268 4.133-.286 7.251-3.868 6.965-8-.287-4.133-3.876-7.242-8-6.965-22.316 1.545-39.23 20.949-37.703 43.256.092 1.343-.774 2.689-2.207 3.433-16.389 8.495-26.569 25.227-26.569 43.667 0 16.577 8.512 31.932 21.969 40.93-3.768 4.294-6.891 8.677-9.358 13.08h-52.756c-14.243-.001-25.831 11.586-25.831 25.829v10.467c0 14.243 11.588 25.831 25.831 25.831h56.824l7.75 60.007c4.522 35.02 34.561 61.428 69.871 61.428h145.324c4.143 0 7.5-3.358 7.5-7.5 0-4.143-3.357-7.5-7.5-7.5h-145.324c-27.792 0-51.435-20.786-54.994-48.35l-13.588-105.213h215.886c1.882 7.203 5.242 13.46 9.918 18.137 7.579 7.578 18.986 11.815 32.203 11.815 12.588 0 26.817-3.846 40.939-12.312l-11.309 87.573c-2.891 22.391-18.838 40.63-40.627 46.467-4.001 1.071-6.376 5.184-5.304 9.185 1.077 4.023 5.211 6.373 9.185 5.304 27.687-7.416 47.95-30.589 51.623-59.033l7.749-60.007h56.825c14.243 0 25.831-11.588 25.831-25.831v-10.467c0-14.243-11.588-25.83-25.831-25.83h-35.87c3.745-8.767 4.896-18.485 3.498-28.033l73.323-67.425c7.687-7.067 12.041-16.71 12.259-27.149.218-10.441-3.728-20.257-11.111-27.639zm-475.05 197.373c-5.973 0-10.831-4.858-10.831-10.831v-10.467c0-5.972 4.858-10.83 10.831-10.83h50.738l4.149 32.128zm196.274-148.905h40.404c4.702 0 8.22 4.326 7.248 8.938l-5.866 27.79c-7.053-.444-14.245-.68-21.584-.68-7.422 0-14.617.23-21.587.667l-5.865-27.777c-.972-4.61 2.547-8.938 7.25-8.938zm84.455 92.795c-.454 3.044-.688 6.046-.724 8.982h-209.272c20.288-26.068 70.71-50.728 145.742-50.728 27.747 0 53.328 3.315 76.206 9.864-7.521 12.31-10.7 23.5-11.952 31.882zm95.351 13.768c-29.866 29.869-62.053 29.496-73.806 17.743-18.05-18.049-.966-55.098 17.743-73.806 13.898-13.9 38.02-13.742 53.911 2.151 15.458 15.457 16.423 39.641 2.152 53.912zm56.871 10.214c5.973 0 10.831 4.858 10.831 10.83v10.467c0 5.973-4.858 10.831-10.831 10.831h-54.888l3.47-26.872c1.732-1.545 3.452-3.16 5.154-4.862v-.001c.128-.128.246-.263.372-.392h45.892zm30.798-121.499-68.024 62.552c-5.658-11.831-15.318-21.396-26.962-26.989l62.54-68.01c4.275-4.649 10.107-7.282 16.423-7.415 6.284-.106 12.251 2.255 16.718 6.722 4.466 4.466 6.853 10.402 6.721 16.717-.134 6.315-2.767 12.147-7.416 16.423z"/></g></svg>