<svg id="Capa_1" enable-background="new 0 0 512 512" height="512" viewBox="0 0 512 512" width="512" xmlns="http://www.w3.org/2000/svg"><g><path d="m313.15 462.144h-255.379c-13.306 0-24.093-10.787-24.093-24.093v-296.764h303.565v296.764c-.001 13.306-10.787 24.093-24.093 24.093z" fill="#e0b799"/><path d="m278.037 207.138c-29.026 0-52.641 23.615-52.641 52.642v9.779c0 16.461 8.85 30.895 22.043 38.79v129.702c0 8.653 2.054 16.832 5.682 24.093h60.028c13.306 0 24.093-10.787 24.093-24.093v-230.913z" fill="#d99a84"/><path d="m33.678 141.287h303.565v30h-303.565z" fill="#d99a84"/><path d="m340.5 90.677h-310.08c-12.658 0-22.92 10.262-22.92 22.92v11.757c0 8.8 7.134 15.933 15.933 15.933h324.054c8.8 0 15.933-7.134 15.933-15.933v-11.757c0-12.659-10.261-22.92-22.92-22.92z" fill="#59636f"/><path d="m274.239 325.697h-177.557c-8.617 0-15.602 6.985-15.602 15.602v57.841c0 8.617 6.985 15.602 15.602 15.602h177.557c8.617 0 15.602-6.985 15.602-15.602v-57.841c0-8.616-6.985-15.602-15.602-15.602z" fill="#fbf1cf"/><path d="m274.239 325.697h-26.799v89.045h26.799c8.617 0 15.602-6.985 15.602-15.602v-57.841c0-8.616-6.986-15.602-15.602-15.602z" fill="#fae0bd"/><path d="m274.239 188.688h-177.557c-8.617 0-15.602 6.985-15.602 15.602v57.841c0 8.617 6.985 15.602 15.602 15.602h177.557c8.617 0 15.602-6.985 15.602-15.602v-57.841c0-8.616-6.985-15.602-15.602-15.602z" fill="#fbf1cf"/><path d="m278.037 207.138c-29.026 0-52.641 23.615-52.641 52.642v9.779c0 2.793.274 5.521.762 8.174h48.081c8.617 0 15.602-6.985 15.602-15.602v-54.993z" fill="#fae0bd"/><path d="m482.456 284.73h-205.016v153.321c0 13.306 10.787 24.093 24.093 24.093h156.831c13.306 0 24.093-10.787 24.093-24.093v-153.321z" fill="#cde9fa"/><path d="m277.44 284.73h205.017v30h-205.017z" fill="#a2ddfd"/><path d="m489.328 284.73h-218.76c-8.379 0-15.172-6.792-15.172-15.172v-9.779c0-12.504 10.137-22.641 22.641-22.641h203.821c12.505 0 22.641 10.137 22.641 22.641v9.779c.001 8.38-6.792 15.172-15.171 15.172z" fill="#fbf1cf"/><path d="m427.351 339.965h-94.806c-6.754 0-12.229 5.475-12.229 12.229v42.487c0 6.754 5.475 12.229 12.229 12.229h94.806c6.754 0 12.229-5.475 12.229-12.229v-42.487c0-6.754-5.475-12.229-12.229-12.229z" fill="#a2ddfd"/><path d="m455.651 201.778h-97.457c-11.571 0-20.951 9.38-20.951 20.951v14.409h139.36v-14.409c-.001-11.571-9.381-20.951-20.952-20.951z" fill="#a7a7a7"/><path d="m388.318 152.76h37.208v49.018h-37.208z" fill="#59636f"/><path d="m478.509 152.76h-143.174c-6.816 0-11.764-6.486-9.962-13.06l20.653-75.343c2.348-8.564 10.131-14.501 19.011-14.501h83.769c8.88 0 16.664 5.937 19.011 14.501l20.653 75.343c1.803 6.574-3.144 13.06-9.961 13.06z" fill="#f6ee86"/><path d="m427.352 332.465h-94.807c-10.878 0-19.728 8.851-19.728 19.729v42.487c0 10.878 8.851 19.729 19.728 19.729h94.807c10.878 0 19.729-8.851 19.729-19.729v-42.487c-.001-10.879-8.852-19.729-19.729-19.729zm4.728 62.216c0 2.607-2.121 4.729-4.729 4.729h-94.807c-2.607 0-4.728-2.121-4.728-4.729v-42.487c0-2.607 2.121-4.729 4.728-4.729h94.807c2.607 0 4.729 2.121 4.729 4.729zm-52.132-28.632c-4.08 0-7.388 3.308-7.388 7.388s3.307 7.388 7.388 7.388 7.388-3.308 7.388-7.388-3.308-7.388-7.388-7.388zm26.974-239.901c4.143 0 7.5-3.357 7.5-7.5v-34.68c0-4.143-3.357-7.5-7.5-7.5s-7.5 3.357-7.5 7.5v34.681c0 4.142 3.357 7.499 7.5 7.499zm-253.822 251.572h64.721c4.143 0 7.5-3.357 7.5-7.5s-3.357-7.5-7.5-7.5h-64.721c-4.143 0-7.5 3.357-7.5 7.5s3.357 7.5 7.5 7.5zm331.002-147.989v-7.003c0-15.689-12.763-28.451-28.451-28.451h-22.624v-34.017h45.483c11.776 0 20.306-11.192 17.194-22.543l-20.653-75.343c-3.23-11.786-14.022-20.019-26.244-20.019h-83.769c-12.222 0-23.014 8.231-26.245 20.019l-5.702 20.802h-243.866c-4.143 0-7.5 3.357-7.5 7.5 0 4.142 3.357 7.5 7.5 7.5h239.754l-9.762 35.609h-295.783c-4.65 0-8.434-3.783-8.434-8.433v-11.757c0-8.503 6.917-15.42 15.42-15.42h21.991c4.143 0 7.5-3.358 7.5-7.5 0-4.143-3.357-7.5-7.5-7.5h-21.991c-16.774.002-30.42 13.648-30.42 30.422v11.757c0 12.921 10.513 23.433 23.434 23.433h2.744v289.265c0 17.42 14.173 31.593 31.593 31.593h372.672c4.143 0 7.5-3.357 7.5-7.5s-3.357-7.5-7.5-7.5h-128.91c-9.149 0-16.593-7.443-16.593-16.593.001-69.991 0-80.285 0-145.82h190.017v145.82c0 7.185-4.579 13.52-11.396 15.766-3.933 1.296-6.072 5.535-4.776 9.47 1.299 3.945 5.546 6.069 9.47 4.776 12.98-4.275 21.702-16.337 21.702-30.012v-145.837c12.21-.335 22.043-10.366 22.043-22.656v-9.779c0-15.865-12.323-28.897-27.898-30.049zm-28.452-20.454c7.417 0 13.451 6.034 13.451 13.451v6.91h-124.359v-6.91c0-7.417 6.034-13.451 13.451-13.451zm-110.908-11.612v-37.405h36.076v34.017h-22.625c-4.862 0-9.443 1.229-13.451 3.388zm51.076-3.388v-34.017h22.208v34.017zm-42.558-127.937c1.449-5.289 6.293-8.983 11.778-8.983h83.769c5.485 0 10.328 3.694 11.777 8.983l20.653 75.344c.494 1.8-.855 3.577-2.728 3.577h-143.174c-1.737 0-2.935-1.491-2.82-3.019.023-.186 12.079-44.239 20.745-75.902zm-295.489 388.304c-9.149 0-16.593-7.443-16.593-16.593v-289.265h277.487c1.826 4.755 5.751 8.834 11.077 10.581v70.272h-32.401v-25.349c0-12.738-10.363-23.101-23.102-23.101h-177.557c-12.739 0-23.103 10.363-23.103 23.101v57.841c0 12.739 10.363 23.103 23.103 23.103h157.53c3.994 4.166 9.555 6.812 15.728 6.981v25.983h-173.258c-12.739 0-23.103 10.363-23.103 23.102v57.841c0 12.739 10.363 23.103 23.103 23.103h173.258v15.809c0 6.083 1.732 11.767 4.724 16.593h-216.893zm190.143-184.411h-151.232c-4.468 0-8.103-3.635-8.103-8.103v-57.84c0-4.467 3.635-8.101 8.103-8.101h177.557c4.468 0 8.102 3.635 8.102 8.101v25.349h-4.304c-16.619 0-30.141 13.521-30.141 30.141.005 3.968-.013 9.401.018 10.453zm22.026 62.964v74.045h-173.258c-4.468 0-8.103-3.635-8.103-8.103v-57.841c0-4.467 3.635-8.102 8.103-8.102h173.258zm227.06-63.638c0 4.23-3.441 7.672-7.672 7.672h-218.761c-4.23 0-7.671-3.441-7.671-7.672v-9.779c0-8.349 6.792-15.141 15.141-15.141h203.821c8.349 0 15.142 6.792 15.142 15.141zm-279.18-43.848h-64.72c-4.143 0-7.5 3.357-7.5 7.5s3.357 7.5 7.5 7.5h64.721c4.143 0 7.5-3.357 7.5-7.5-.001-4.143-3.358-7.5-7.501-7.5z"/></g></svg>